<svg width="12" height="12" viewBox="0 0 12 12" fill="none" xmlns="http://www.w3.org/2000/svg">
<path d="M2.16483 4.08134C1.80755 5.33524 1.34085 6.92697 2.17821 8.08833C2.57949 8.58943 3.08893 8.98568 3.66536 9.24506C4.27307 9.5572 4.92394 9.76943 5.59463 9.87426C6.23806 9.99151 6.89913 9.94912 7.52366 9.75046C8.14819 9.5518 8.71837 9.20255 9.18744 8.73143C9.6504 8.24349 10.0552 7.6998 10.3932 7.112C10.7444 6.58404 10.9222 5.95297 10.9001 5.31217C10.8331 4.12999 10.0739 3.01023 9.18297 2.31619C8.18334 1.55213 6.97076 1.14608 5.72861 1.15946C4.54718 1.1438 3.40361 1.59083 2.52656 2.41108C1.75018 3.18275 1.25881 4.21148 1.13765 5.31906C1.07051 5.86418 1.1154 6.4178 1.26933 6.94369C1.42326 7.46958 1.68276 7.95585 2.03083 8.37051C2.81255 9.21581 3.84448 9.76631 4.96269 9.93447C7.03933 10.3093 10.1186 9.41853 10.2927 6.82745C10.3399 6.24499 10.2375 5.65998 9.99596 5.13177C9.75438 4.60357 9.38224 4.15097 8.91726 3.81994C8.42784 3.49173 7.87015 3.28871 7.29014 3.22757C6.71014 3.16643 6.12441 3.24893 5.58122 3.46829C5.3244 3.56268 5.09421 3.72167 4.91134 3.93098C4.72119 4.22233 4.58981 4.55044 4.52504 4.89568C4.32719 5.64884 4.24432 6.42944 4.27942 7.20915C4.30399 7.72968 4.40445 8.40981 4.93366 8.63191C5.46287 8.854 6.05014 8.57878 6.41858 8.19474C6.87617 7.69832 7.20089 7.08674 7.36066 6.42056C7.52043 5.75438 7.50974 5.05653 7.32964 4.39594C7.30188 4.28052 7.24964 4.17298 7.17672 4.08111C7.10381 3.98924 7.01204 3.91542 6.9081 3.8649C6.80416 3.81438 6.69066 3.78847 6.57586 3.7891C6.46105 3.78973 6.34782 3.81686 6.2444 3.86852C5.74645 4.06747 5.35123 4.62738 5.18822 5.1294C4.91357 5.95531 5.01405 7.28086 6.13499 7.19988C6.38896 7.17622 6.62989 7.07267 6.82545 6.90313C7.02102 6.7336 7.16186 6.50617 7.22914 6.25134C7.32665 5.98161 7.33917 5.68688 7.26488 5.40932C7.16439 5.13865 6.81829 5.10851 6.5749 5.05993C5.83107 4.91254 5.06848 4.89696 4.3196 5.01373L4.65231 4.74759C4.21912 5.71462 5.07882 6.90616 5.78666 7.45676C6.18214 7.79353 6.66754 7.99685 7.17779 8.03965C7.37199 8.05064 7.56584 8.01241 7.74251 7.92815C7.91918 7.84389 8.07333 7.71617 8.19156 7.55617C8.60465 6.92922 8.49075 5.96687 8.03523 5.36075C7.37651 4.48394 6.19083 4.17623 5.17707 4.06982C4.86268 4.02397 4.5442 4.01619 4.22807 4.04666C3.93599 4.09619 3.67234 4.25715 3.48895 4.49783C2.97936 5.09959 2.51996 5.74501 2.11568 6.42722C1.72715 7.05186 0.760295 6.47117 1.15329 5.84422C1.48154 5.31444 1.82317 4.80082 2.20724 4.30342C2.52655 3.87774 2.85256 3.41736 3.32371 3.14669C3.82167 2.90065 4.37769 2.80914 4.92475 2.88303C5.43341 2.91487 5.93845 2.99228 6.43423 3.11438C7.34973 3.34573 8.27193 3.80839 8.87259 4.58571C9.14097 4.9362 9.33711 5.34001 9.44887 5.77216C9.56064 6.2043 9.58566 6.65555 9.52238 7.09811C9.46863 7.54198 9.29603 7.96142 9.02414 8.30895C8.75225 8.65647 8.3919 8.91819 7.98388 9.06455C7.05051 9.39769 5.9921 9.02055 5.22843 8.4445C4.3931 7.84424 3.78773 6.95923 3.51798 5.94374C3.39245 5.43696 3.41578 4.9028 3.58498 4.40983C3.62814 4.24721 3.71577 4.10103 3.8373 3.98882C3.97962 3.89551 4.1445 3.84576 4.31292 3.84536C4.62011 3.80184 4.92956 3.77787 5.23958 3.77363C5.85315 3.76463 6.46559 3.8315 7.0639 3.97267C7.59758 4.10222 8.07319 4.38901 8.28756 4.93499C8.69172 5.95986 8.23843 7.24853 7.39438 7.8963C6.99543 8.20091 6.50919 8.35762 6.01386 8.34125C5.51852 8.32489 5.04289 8.13637 4.66348 7.80604C3.9936 7.20685 3.85293 6.24215 3.97575 5.38616C4.04567 4.90837 4.20984 4.45063 4.45802 4.04146C4.70619 3.63229 5.03305 3.2804 5.41822 3.00786C6.3114 2.39016 7.59311 2.54523 8.17591 3.53539C8.71405 4.46078 8.66269 5.77251 8.3992 6.77424C8.13572 7.80836 7.56186 8.84016 6.67984 9.4301C5.79783 10.02 4.54736 10.0316 3.81719 9.19875C3.08701 8.3659 3.08478 7.11658 3.17857 6.08246C3.2306 5.48094 3.34132 4.88645 3.50904 4.30805C3.63626 3.773 3.90815 3.28664 4.29281 2.90608C5.03861 2.24905 6.11491 1.99225 7.07732 2.02927C9.03115 2.11024 10.7929 3.41743 11.2775 5.41395C11.5167 6.37515 11.4381 7.39168 11.0542 8.30115C10.6375 9.20138 9.94504 9.93347 9.08474 10.3833C5.95861 12.0883 0.959018 10.913 0.110497 6.95702C-0.0634594 6.05811 -0.0316572 5.12946 0.203337 4.24558C0.43833 3.36171 0.869987 2.54722 1.46368 1.86739C2.74762 0.379833 4.76396 -0.196293 6.63517 0.0581886C8.55997 0.31961 10.3955 1.41388 11.3735 3.186C11.8594 4.01937 12.0717 4.99334 11.9786 5.96216C11.8424 7.06337 11.1971 8.01195 10.5451 8.86099C9.90613 9.73259 9.04221 10.3991 8.05311 10.7835C7.05512 11.1134 5.98955 11.1573 4.9694 10.9107C3.96766 10.7046 3.0199 10.2795 2.18939 9.6637C1.75124 9.35039 1.38342 8.94301 1.11099 8.46913C0.83856 7.99525 0.667909 7.46608 0.610675 6.9177C0.501261 5.84888 0.787098 4.76614 1.07738 3.75284C1.28058 3.0403 2.35908 3.34332 2.15365 4.05818L2.16483 4.08134Z" fill="#808080"/>
</svg>
