<svg width="11" height="10" viewBox="0 0 11 10" fill="none" xmlns="http://www.w3.org/2000/svg">
<path d="M5.88881 4.85873C5.92471 4.97042 5.95459 5.08375 5.97866 5.19857L5.90883 4.69857C5.92429 4.84149 5.92429 4.98583 5.90883 5.12875L5.96889 4.62875C5.94159 4.83157 5.88764 5.02977 5.80873 5.21859L5.99868 4.7684C5.99868 4.8384 5.84846 5.13853 5.77846 5.15853C5.70846 5.17853 6.09856 4.77865 5.87856 5.02865L5.71889 5.17855C5.52889 5.36855 5.87856 5.05869 5.87856 5.06869C5.81338 5.12221 5.74307 5.16876 5.6686 5.20834C5.51483 5.30024 5.3544 5.38069 5.18862 5.44857L5.63881 5.25863C5.07337 5.47995 4.48163 5.62777 3.87856 5.69857L4.37856 5.62875C4.0963 5.66368 3.81072 5.66368 3.52846 5.62875L4.0187 5.69857C3.84707 5.6719 3.67922 5.62477 3.5187 5.55844L3.95864 5.74838C3.86864 5.74838 3.50846 5.45879 3.77846 5.66879C4.04846 5.87879 3.68883 5.51863 3.65883 5.50863C3.62883 5.49863 3.91871 5.88855 3.78871 5.67855L3.69887 5.5184C3.62235 5.39023 3.5553 5.25662 3.49868 5.11849L3.68862 5.56869C3.55871 5.2467 3.46502 4.91133 3.40883 4.56869L3.47866 5.06869C3.43859 4.76668 3.43859 4.46054 3.47866 4.15853L3.40883 4.65853C3.43874 4.46056 3.48891 4.26611 3.55873 4.07846L3.36879 4.52865C3.36879 4.44865 3.51877 4.12848 3.59877 4.09848C3.67877 4.06848 3.27893 4.47836 3.50893 4.22836L3.6686 4.06869C3.8486 3.88869 3.54868 4.18881 3.49868 4.18881C3.44868 4.18881 3.64862 4.07844 3.68862 4.05844C3.83437 3.97071 3.98476 3.89086 4.13881 3.81869L3.68862 4.00863C3.98817 3.89041 4.30034 3.80655 4.61879 3.75863L4.11879 3.82846C4.45077 3.78587 4.78682 3.78587 5.11879 3.82846L4.61879 3.75863C4.90633 3.8045 5.18784 3.8816 5.45864 3.98861L5.00893 3.79867C5.18695 3.87262 5.35746 3.96303 5.5187 4.06869C5.5758 4.09955 5.62959 4.13629 5.67885 4.17855L5.44887 3.98861C5.5395 4.0458 5.61769 4.12034 5.67885 4.20834L5.86879 4.40853C5.99879 4.55853 5.57871 3.99846 5.78871 4.32846C5.8988 4.49396 5.9958 4.66784 6.07875 4.84848L5.88881 4.40853C6.00941 4.68926 6.08993 4.98534 6.12856 5.28842L6.05873 4.78842C6.08845 5.03084 6.08845 5.27597 6.05873 5.5184L6.12856 5.0184C6.0962 5.27954 6.02923 5.53541 5.92885 5.77865L6.11879 5.32846C6.04883 5.48682 5.96843 5.64044 5.87856 5.78842L5.77846 5.93881L5.96889 5.68881C5.96889 5.76881 5.81893 5.86879 5.75893 5.91879L5.5685 6.09848C5.4285 6.22848 5.99885 5.7984 5.67885 6.0184C5.5188 6.12014 5.35171 6.21038 5.17885 6.28842L5.62856 6.09848C5.41102 6.17826 5.18687 6.23867 4.95864 6.27865L5.45864 6.20834C5.22961 6.2383 4.99772 6.2383 4.7687 6.20834L5.25893 6.27865C5.00172 6.24276 4.74986 6.1754 4.50893 6.07846L4.95864 6.2684L4.52846 6.04867C4.47244 6.00301 4.41247 5.96271 4.34877 5.92855C4.76877 6.16855 4.60889 6.12838 4.46889 5.99838L4.3185 5.83871C4.1685 5.68871 4.58885 6.22836 4.42885 5.97836C4.32196 5.81268 4.22806 5.63878 4.14858 5.45834L4.33852 5.90853C4.22096 5.5847 4.13718 5.24959 4.08852 4.90853L4.15883 5.40853C4.12541 5.07604 4.12541 4.74103 4.15883 4.40853L4.09877 4.90853C4.11906 4.69903 4.16949 4.4937 4.24868 4.29867L4.05873 4.74838C4.0913 4.66982 4.12788 4.59306 4.1686 4.5184C4.2486 4.3984 4.22879 4.4184 4.11879 4.5184C4.00879 4.6184 3.99879 4.66869 4.11879 4.56869C4.23879 4.46869 3.72871 4.76875 4.03871 4.62875L4.30873 4.48861L3.85854 4.67855C4.04351 4.61337 4.23473 4.56634 4.42885 4.53842L3.92885 4.59848C4.19772 4.5635 4.47004 4.5635 4.73891 4.59848L4.23891 4.52865C4.47565 4.56937 4.70703 4.63616 4.92885 4.72836L4.47866 4.53842C4.58824 4.5857 4.6949 4.63928 4.79848 4.69857C4.79848 4.69857 4.91887 4.79867 4.94887 4.79867C4.97887 4.79867 4.56873 4.47857 4.80873 4.69857L4.92885 4.82846C5.07885 4.95846 4.70873 4.48853 4.80873 4.65853C4.87465 4.7652 4.93492 4.87544 4.98891 4.98861L4.79848 4.53842C4.87737 4.7203 4.93135 4.91236 4.95864 5.10873L4.89858 4.60873C4.91857 4.80489 4.91857 5.00241 4.89858 5.19857L4.96889 4.69857C4.94087 4.86233 4.89697 5.02304 4.83852 5.17855L5.02846 4.72836L4.87856 5.02865C4.72856 5.28865 5.19864 4.68853 4.95864 4.90853L4.86879 4.99838L5.0685 4.84848C4.95691 4.89534 4.84998 4.95216 4.74868 5.0184L5.18862 4.82846C4.98985 4.91075 4.78145 4.96778 4.5685 4.99838L5.0685 4.93881C4.73623 4.97646 4.40077 4.97646 4.0685 4.93881L4.5685 5.00863C4.27158 4.96606 3.98034 4.8921 3.69887 4.78842L4.13881 4.97836L3.89858 4.85873C3.82858 4.85873 3.50848 4.59873 3.79848 4.85873C4.08848 5.11873 3.61881 4.58857 3.88881 4.94857C4.15881 5.30857 3.88881 4.94871 3.88881 4.83871L4.07875 5.28842C4.02839 5.16612 3.99164 5.03882 3.96889 4.90853L4.03871 5.40853C4.01863 5.24582 4.01863 5.0815 4.03871 4.91879L3.96889 5.41879C3.99495 5.28929 4.03161 5.16181 4.07875 5.03842L3.88881 5.48861C3.88881 5.39861 3.99875 5.19877 4.07875 5.14877L3.89858 5.38851L4.02846 5.24838C4.13846 5.15838 4.11846 5.16838 4.02846 5.24838C3.93846 5.32838 3.87846 5.36838 4.02846 5.24838L4.34877 5.06869L3.90883 5.25863C4.09071 5.17974 4.28229 5.12576 4.47866 5.09848L3.97866 5.16879C4.08175 5.15875 4.18563 5.15875 4.28871 5.16879L3.79848 5.09848H3.97866L3.52846 4.90853C3.5763 4.93906 3.62684 4.96589 3.67885 4.98861C3.67885 4.98861 3.2587 4.65875 3.5187 4.87875C3.7787 5.09875 3.30856 4.54857 3.37856 4.69857C3.44856 4.84857 3.44889 4.82851 3.46889 4.88851L3.28871 4.43881C3.33927 4.57137 3.37599 4.70842 3.39858 4.84848L3.32875 4.35873C3.34873 4.50137 3.34873 4.64578 3.32875 4.78842L3.38881 4.28842C3.37077 4.40133 3.34026 4.51205 3.29848 4.61849L3.48891 4.17855C3.39891 4.34855 3.25852 4.43846 3.58852 4.07846C3.38852 4.29846 3.97866 3.82859 3.72866 3.96859L4.17885 3.77865C4.09304 3.81587 4.00192 3.83931 3.90883 3.84848L4.39858 3.78842H4.18862L4.68862 3.85873H4.48891L4.93862 4.03842C4.72862 3.94842 4.81852 3.88857 5.08852 4.19857L5.29848 4.47836C5.27071 4.44274 5.25074 4.40232 5.23891 4.35873L5.42885 4.79867C5.4231 4.75218 5.4231 4.70502 5.42885 4.65853L5.49868 5.14877C5.48867 5.0959 5.48867 5.04148 5.49868 4.98861L5.43862 5.48861C5.43379 5.43205 5.43379 5.37525 5.43862 5.31869L5.24868 5.7684C5.2714 5.71639 5.29822 5.66634 5.32875 5.61849C5.12875 5.86849 5.06885 5.93846 5.17885 5.82846C5.28885 5.71846 5.17889 5.82861 4.96889 5.98861C5.02414 5.94737 5.08437 5.91364 5.14858 5.88851L4.69887 6.07846C4.95738 5.98469 5.22561 5.921 5.49868 5.88851L4.99868 5.95834C5.22101 5.9284 5.44627 5.9284 5.6686 5.95834L5.1686 5.88851L5.39858 5.94857L4.95864 5.75863L5.08852 5.82846C4.9044 5.72571 4.74981 5.57803 4.63881 5.39877L4.44887 4.94857C4.47333 5.00699 4.49345 5.06734 4.50893 5.12875L4.43862 4.62875C4.44862 4.72181 4.44862 4.81547 4.43862 4.90853L4.50893 4.40853C4.49693 4.46973 4.47992 4.53009 4.45864 4.58871L4.64858 4.14877C4.62901 4.19085 4.60575 4.23065 4.57875 4.2684C4.50875 4.3984 4.57891 4.32846 4.73891 4.07846C4.68055 4.13017 4.62684 4.18699 4.57875 4.24838C4.45875 4.37838 4.97887 3.98877 4.69887 4.14877L4.46889 4.28842L4.90883 4.09848L4.65883 4.17855L5.15883 4.10873H4.98891L5.48891 4.17855C5.4363 4.17108 5.38509 4.15434 5.33852 4.12875L5.77846 4.31869C6.24846 4.89869 6.39893 5.05865 6.25893 4.77865L6.44887 5.22836C6.44453 5.18513 6.44453 5.1417 6.44887 5.09848L6.5187 5.58871C6.51373 5.54218 6.51373 5.49511 6.5187 5.44857L6.45864 5.94857C6.44964 5.89898 6.44964 5.84827 6.45864 5.79867L6.2687 6.24838C6.2687 6.16838 6.4387 5.96838 6.2687 6.24838C6.22013 6.34541 6.14326 6.42553 6.04848 6.47836C5.89515 6.59169 5.89515 6.61175 6.04848 6.53842L5.59877 6.72836C5.71449 6.68117 5.83516 6.648 5.95864 6.62875L5.46889 6.69857C5.62874 6.68859 5.78903 6.68859 5.94887 6.69857C6.4225 6.66396 6.86529 6.45118 7.18862 6.10336C7.51194 5.75554 7.69155 5.29846 7.69155 4.82357C7.69155 4.34869 7.51194 3.89161 7.18862 3.54379C6.86529 3.19597 6.4225 2.98318 5.94887 2.94857C5.39867 2.90172 4.84599 3.00334 4.34829 3.24252C3.85058 3.4817 3.42596 3.84956 3.11879 4.30844C2.93949 4.61351 2.82993 4.9545 2.79848 5.30697C2.76703 5.65944 2.8142 6.01452 2.93666 6.34652C3.05913 6.67852 3.25417 6.97928 3.50698 7.22689C3.75978 7.47451 4.06411 7.66309 4.39858 7.77865C4.94215 7.90786 5.51112 7.88258 6.04116 7.7059C6.5712 7.52922 7.04125 7.20816 7.39858 6.77865C7.82918 6.39309 8.12181 5.87728 8.23207 5.3099C8.34234 4.74252 8.26427 4.15485 8.00942 3.63607C7.75456 3.1173 7.33693 2.69585 6.82045 2.43637C6.30398 2.17688 5.71692 2.09338 5.14858 2.19857C4.16418 2.21428 3.22208 2.5999 2.50893 3.27865C2.0487 3.75895 1.79164 4.3986 1.79164 5.06381C1.79164 5.72901 2.0487 6.36818 2.50893 6.84848C2.86607 7.18787 3.30838 7.42414 3.7892 7.53158C4.27003 7.63902 4.77128 7.61344 5.23891 7.45834C5.79487 7.24394 6.2744 6.86918 6.61635 6.38119C6.9583 5.8932 7.1471 5.31435 7.15883 4.71859C7.17947 4.25176 7.10072 3.78574 6.92836 3.3514C6.75601 2.91707 6.49395 2.52423 6.15883 2.19857C4.53883 0.708573 1.79854 1.57881 0.858539 3.43881C0.592286 3.94446 0.453265 4.50699 0.453265 5.07846C0.453265 5.64993 0.592286 6.21294 0.858539 6.71859C1.34382 7.52857 2.10887 8.13338 3.00893 8.41879C3.79484 8.71381 4.6437 8.79976 5.4728 8.6683C6.30189 8.53684 7.08282 8.19245 7.73891 7.66879C8.36152 7.06555 8.76504 6.2718 8.88637 5.41342C9.0077 4.55504 8.83986 3.68072 8.40883 2.92855C7.98518 2.22717 7.37387 1.65828 6.64418 1.28549C5.9145 0.912694 5.09506 0.75095 4.27846 0.81869C3.27905 0.856123 2.33328 1.2787 1.63881 1.99838C1.01227 2.72572 0.658678 3.64895 0.638812 4.60873C0.60644 5.36055 0.721801 6.11137 0.978656 6.81869C1.30022 7.72027 1.88576 8.50424 2.65883 9.06869C3.26357 9.50581 3.96543 9.78885 4.70424 9.8934C5.44306 9.99795 6.1963 9.92095 6.89858 9.66879C7.65029 9.38922 8.32268 8.93045 8.85756 8.33285C9.39244 7.73525 9.77404 7.0166 9.96889 6.23861C10.1447 5.44421 10.1288 4.61952 9.92299 3.83236C9.71716 3.0452 9.32699 2.31792 8.78481 1.71127C8.24263 1.10461 7.56402 0.635717 6.80483 0.343104C6.04564 0.0504916 5.22768 -0.057188 4.4186 0.0286511C3.51039 0.0811023 2.63607 0.390931 1.8976 0.922206C1.15913 1.45348 0.587121 2.18423 0.248676 3.02865C0.00656304 3.79413 -0.0599283 4.60409 0.0543397 5.39877C0.168608 6.19345 0.46085 6.95225 0.908832 7.61849C1.42142 8.42009 2.21172 9.00426 3.12856 9.25863C4.04792 9.43068 4.99402 9.39643 5.89858 9.15853C6.60529 9.0213 7.2823 8.76063 7.89858 8.38851C8.72511 7.86892 9.36337 7.09806 9.71889 6.18881C10.0133 5.43316 10.0341 4.59808 9.77846 3.82846C9.63751 3.36297 9.33191 2.96469 8.9186 2.70834C8.47658 2.46423 7.95888 2.39642 7.46889 2.5184C6.99396 2.65818 6.59207 2.97806 6.34926 3.40951C6.10646 3.84096 6.04162 4.34994 6.1686 4.82846L5.88881 4.85873Z" fill="#CDCDCD"/>
</svg>
