<svg width="12" height="12" viewBox="0 0 12 12" fill="none" xmlns="http://www.w3.org/2000/svg">
<path d="M2.50658 4.67627C1.96662 5.37523 1.6844 6.24937 1.71014 7.14298C1.73589 8.0366 2.06793 8.89178 2.64717 9.55637C3.90329 10.9721 5.83471 11.0315 7.48725 10.3915C9.03147 9.79187 10.82 8.39287 10.8292 6.52747C10.7953 5.52435 10.5264 4.54467 10.0456 3.67226C9.67162 2.89201 9.10774 2.22547 8.40917 1.73788C5.2539 -0.310737 0.240963 3.44145 1.24125 7.17702C1.75983 9.11143 3.5184 10.3059 5.34381 10.6866C7.04244 11.0411 9.27808 10.5058 9.87502 8.59278C9.99287 8.22556 10.0232 7.83438 9.96342 7.45248C9.90364 7.07059 9.75551 6.70918 9.53161 6.39897C8.97846 5.68517 8.04272 5.56384 7.21069 5.52577C6.65754 5.4996 6.10206 5.49003 5.54891 5.47338C5.08795 5.46148 4.45184 5.33544 4.01624 5.54483C3.40086 5.84224 3.22337 6.79391 3.13579 7.43157C3.09668 7.62257 3.09201 7.81936 3.12197 8.01212C3.17498 8.21436 3.38241 8.30486 3.55066 8.39527C3.95316 8.60578 4.39002 8.73726 4.83904 8.78308C5.73946 8.88045 6.64402 8.64339 7.39044 8.11447C8.07647 7.6186 8.58453 6.90255 8.83556 6.07774C9.06604 5.26638 9.07988 4.25997 8.44837 3.63183C7.81685 3.00368 6.83501 2.85137 6.02833 2.82996C5.5858 2.79485 5.14437 2.9111 4.77219 3.16072C4.47304 3.39805 4.23093 3.70337 4.06463 4.05297C3.60609 4.89195 3.38939 5.84871 3.44004 6.8106C3.50688 7.46491 4.08999 8.42379 4.85057 8.11923C5.00298 8.04179 5.13806 7.93238 5.24719 7.798C5.35633 7.66362 5.43712 7.50729 5.4844 7.33886C5.56174 7.09637 5.60746 6.84423 5.62037 6.58927C5.62037 6.44413 5.62036 6.29665 5.63418 6.15151C5.63418 6.06824 5.58117 5.72561 5.63418 5.67564C5.61805 5.69468 5.69412 5.46628 5.67338 5.69946L5.71257 5.74698C5.6803 5.72794 5.64802 5.70891 5.61345 5.69226L5.41524 5.60187C5.20718 5.51769 4.99291 5.45089 4.7745 5.40204C4.43494 5.30421 4.074 5.32082 3.74426 5.44956C3.10813 5.75887 3.16346 6.65831 3.55758 7.15797C3.82523 7.47189 4.18016 7.69295 4.57398 7.79091C4.7702 7.85007 4.97177 7.88833 5.17553 7.90512C5.32304 7.91939 5.68259 7.99076 5.80704 7.89083C5.88541 7.82896 5.91539 7.59582 5.93843 7.50302C6.0046 7.23974 6.0516 6.97168 6.07902 6.70115C6.13748 6.16013 6.12429 5.61339 6.03983 5.07604C6.02578 4.96029 6.00346 4.84578 5.97301 4.73343C5.94202 4.65094 5.90424 4.57133 5.86008 4.4955C5.8232 4.57164 6.07211 4.47889 6.05598 4.47889C6.18044 4.47889 6.1597 4.39794 6.08595 4.54546C6.0629 4.59542 6.04676 4.63346 6.02602 4.69056C5.88182 5.09325 5.83821 5.52702 5.89924 5.95168C5.96148 6.35791 6.11981 6.74195 6.3602 7.06991C6.42935 7.1627 6.53768 7.32215 6.65753 7.34118C6.83731 7.36974 7.08391 7.17229 7.2245 7.08187C7.90442 6.64169 8.45296 5.89213 8.46449 5.0427C8.48128 4.64039 8.36754 4.24388 8.14125 3.91588C7.91496 3.58788 7.58909 3.34719 7.2153 3.23205C6.78672 3.10174 6.34521 3.02192 5.89924 2.99412C5.71874 2.95135 5.5312 2.95135 5.3507 2.99412C5.19167 3.0774 5.09027 3.39625 5.01882 3.54852C4.5688 4.50112 4.33247 5.54617 4.32738 6.606C4.32738 7.01525 4.27897 7.43876 4.66157 7.66718C5.09215 7.88211 5.54225 8.0527 6.00528 8.17639C6.46624 8.33819 6.96867 8.58325 7.4596 8.63797C7.52777 8.65728 7.59953 8.65866 7.66836 8.64204C7.73719 8.62542 7.8009 8.59122 7.85371 8.54271C7.87642 8.50698 7.89065 8.46621 7.89521 8.42374C7.89115 8.43778 7.89028 8.45263 7.89268 8.46707C7.89507 8.48152 7.90066 8.49519 7.90902 8.50704C7.40197 7.94789 8.21557 7.1056 8.72493 7.66474C8.93175 7.90351 9.04124 8.21551 9.0305 8.53562C9.01977 8.85573 8.88964 9.15926 8.66731 9.38268C8.18791 9.90851 7.45499 9.89189 6.82347 9.70868C6.15047 9.51357 5.48898 9.25651 4.8275 9.02334C4.26974 8.82585 3.67511 8.56179 3.39162 7.9955C3.10813 7.42922 3.14502 6.61548 3.20264 5.97306C3.26071 5.25349 3.40945 4.54484 3.64514 3.865C3.85257 3.2773 4.10611 2.52783 4.5809 2.10907C5.09948 1.65461 5.82318 1.78786 6.44548 1.87113C7.69468 2.03531 8.87705 2.52066 9.38872 3.80075C9.60392 4.37923 9.66101 5.00762 9.5537 5.61732C9.44639 6.22702 9.17882 6.79453 8.78024 7.25788C8.38501 7.7415 7.88745 8.12491 7.32593 8.37854C7.02394 8.52663 6.68155 8.56211 6.35711 8.47881C6.03266 8.39551 5.74621 8.1986 5.5466 7.92173C5.16176 7.43429 4.90319 6.85391 4.79515 6.23504C4.68711 5.61618 4.73314 4.97909 4.92893 4.38362C5.01122 4.08847 5.16147 3.81836 5.36685 3.59616C5.50404 3.46788 5.67545 3.38512 5.85878 3.3588C6.04212 3.33249 6.2289 3.36383 6.39478 3.44861C7.02169 3.77696 7.14614 4.54551 7.2245 5.19269C7.30527 5.89285 7.28664 6.60139 7.16919 7.29599C7.06778 7.93841 6.90644 8.70691 6.268 8.99243C5.71255 9.24226 4.93814 9.12096 4.36885 8.97106C3.77848 8.82739 3.23928 8.51484 2.81311 8.06928C2.02026 7.19844 1.8405 5.7113 2.68406 4.80953C3.52761 3.90776 4.87823 4.09574 5.88774 4.5264C6.17971 4.61631 6.43794 4.7965 6.62757 5.0427C6.835 5.37105 6.80735 5.78266 6.80504 6.1586C6.8346 6.86731 6.68946 7.57226 6.38324 8.2073C6.24195 8.47978 6.0476 8.71908 5.81239 8.9103C5.57718 9.10152 5.30623 9.24051 5.01651 9.31843C4.70692 9.37846 4.38819 9.36554 4.0841 9.28067C3.78 9.19581 3.49839 9.04116 3.26026 8.82827C2.18391 7.93126 2.17469 6.41806 2.47892 5.14273C2.74628 4.0173 3.22798 2.85142 4.17525 2.16379C5.21011 1.41668 6.6921 1.57368 7.83528 1.952C9.08909 2.36362 9.97183 3.30583 10.1401 4.67871C10.283 5.93025 9.81281 7.18656 9.05914 8.14781C8.31003 9.10651 7.24182 9.74272 6.0629 9.93232C5.4142 10.0356 4.75231 10.0097 4.11302 9.85611C3.52069 9.71335 2.81312 9.44693 2.38673 8.97582C1.8935 8.42381 1.96957 7.68621 2.07789 7.00334C2.15285 6.4707 2.3166 5.95552 2.56189 5.48058C2.83077 4.96314 3.27836 4.56901 3.81572 4.37653C4.46798 4.15525 5.24698 4.2814 5.92229 4.30043C7.17379 4.3385 8.61201 4.24567 9.71601 4.97137C10.1947 5.30313 10.5811 5.75827 10.837 6.29162C11.0929 6.82498 11.2094 7.41799 11.1749 8.01212C11.1282 8.61497 10.9525 9.19969 10.6603 9.7239C10.3682 10.2481 9.96691 10.6988 9.48553 11.0435C8.45298 11.831 7.10235 12.0951 5.84162 11.9595C3.30634 11.6859 0.794111 10.056 0.141852 7.40543C-0.498882 4.80005 1.11679 2.19467 3.26256 0.921721C4.32842 0.271031 5.55398 -0.0471533 6.7912 0.00565081C8.01863 0.0788304 9.17272 0.632903 10.0179 1.55466C10.8083 2.44218 11.3889 3.50654 11.7143 4.66442C12.1222 6.02541 12.1545 7.45539 11.4054 8.70931C10.1723 10.7555 7.58174 12.1117 5.2585 11.9928C4.04954 11.9424 2.90087 11.4342 2.03178 10.5651C1.18202 9.69793 0.673044 8.53693 0.602813 7.30552C0.551875 6.04549 0.957851 4.81105 1.7414 3.8435C1.85009 3.73278 1.99662 3.67075 2.14933 3.67075C2.30203 3.67075 2.44859 3.73278 2.55728 3.8435C2.66222 3.95647 2.72083 4.10697 2.72083 4.26349C2.72083 4.42001 2.66222 4.57051 2.55728 4.68348L2.50658 4.67627Z" fill="#808080"/>
</svg>
