<svg width="341" height="54" viewBox="0 0 341 54" fill="none" xmlns="http://www.w3.org/2000/svg">
<path d="M78.971 0C162.807 1.38489 195.901 -0.531797 296.215 1.10791C307.93 1.30733 320.893 2.63672 328.703 7.64448C332.959 10.381 335.088 13.9708 336.845 17.494C339.852 23.5099 342.136 29.825 340.398 36.0071C338.661 42.1893 332.276 48.2717 322.104 50.6869C315.954 52.1383 309.081 52.1605 302.423 52.1605H264.118C216.831 52.1605 173.448 54.3762 126.161 53.9441C97.4602 53.7004 68.6817 53.3125 40.2546 50.8086C29.8092 49.8891 18.778 48.4824 11.3784 44.2169C5.81405 41.004 3.04197 36.5611 1.48005 32.1516C-0.979987 25.2161 -0.706688 17.7485 4.85767 11.3891C10.422 5.02968 21.9997 0.15487 34.4755 0.309977L78.971 0Z" fill="#FBBB62"/>
</svg>
