<svg width="25" height="21" viewBox="0 0 25 21" fill="none" xmlns="http://www.w3.org/2000/svg">
<path d="M0.241954 11.2602C1.45286 13.1436 2.80104 14.9381 4.13761 16.7324C4.82303 17.6463 5.5197 18.571 6.23939 19.4626C6.56578 19.99 6.99674 20.4484 7.50726 20.811C9.01519 21.6358 10.1918 19.5517 10.9344 18.5821C12.7507 16.3531 14.5442 14.2137 16.3606 12.0405C19.0795 8.79737 21.81 5.58753 24.6316 2.43356C25.8311 1.08503 23.8205 -0.909907 22.6096 0.460904C18.36 5.21973 14.2931 10.1124 10.2377 15.0161L8.38691 17.245C7.98759 17.6071 7.63479 18.0148 7.33602 18.4596C7.22178 18.7606 5.58822 18.5598 8.21566 18.5375C10.1006 18.5375 9.19832 18.7273 9.01554 18.3818C8.84765 18.1381 8.65639 17.9101 8.44436 17.7016C7.87318 16.9883 7.30199 16.2193 6.73081 15.4726C5.33712 13.6115 3.93196 11.7505 2.68678 9.80012C1.70434 8.28442 -0.740505 9.67781 0.219085 11.2046L0.241954 11.2602Z" fill="#CDCDCD"/>
</svg>
