<svg width="14" height="24" viewBox="0 0 14 24" fill="none" xmlns="http://www.w3.org/2000/svg">
<path d="M11.9841 0C9.84752 0.0618105 7.79944 0.867216 6.19308 2.27736C4.59597 3.72659 4.24697 5.91525 4.41851 7.96784C4.6078 10.1506 4.93905 12.3096 5.01003 14.4746C5.10468 16.8407 5.08102 19.2068 5.05145 21.5729C5.05145 23.4776 8.00907 23.4776 8.00907 21.5729C8.13942 17.5128 7.9793 13.4485 7.52994 9.41116C7.34065 8.00333 6.93841 6.11045 7.8257 4.85641C8.2685 4.30001 8.85284 3.87299 9.51746 3.62013C10.2762 3.22478 11.1118 2.99875 11.9664 2.95762C13.8711 2.99903 13.8711 0.0414067 11.9664 0H11.9841Z" fill="#CDCDCD"/>
<path d="M1.47881 12.6048C4.886 12.4905 8.29516 12.4668 11.7063 12.5339C12.0985 12.5339 12.4746 12.378 12.752 12.1007C13.0293 11.8234 13.1851 11.4472 13.1851 11.055C13.1851 10.6628 13.0293 10.2867 12.752 10.0093C12.4746 9.73201 12.0985 9.57623 11.7063 9.57623C8.2991 9.50919 4.88994 9.53285 1.47881 9.64721C1.08898 9.65478 0.71722 9.81301 0.441514 10.0887C0.165807 10.3644 0.00757174 10.7362 0 11.126C0.00460686 11.5168 0.161889 11.8903 0.438228 12.1666C0.714567 12.4429 1.08804 12.6002 1.47881 12.6048Z" fill="#CDCDCD"/>
<path d="M6.60712 23.1217C9.10927 23.4234 8.60647 19.3655 8.56506 17.9281C8.50591 15.7276 8.05635 13.5863 7.86115 11.4213C7.76059 10.3261 7.71912 9.22622 7.73692 8.12652C7.67729 7.3154 7.86941 6.50562 8.28704 5.80773C9.32221 4.29934 11.2861 3.77881 12.9364 3.28193C14.7524 2.73181 13.9775 -0.125261 12.1497 0.430773C10.2154 1.0223 8.24563 1.67299 6.74908 3.08673C5.25252 4.50048 4.79704 6.36378 4.7793 8.41046C4.81382 10.6186 5.01153 12.8211 5.37082 15C5.50192 15.9809 5.57893 16.9683 5.60152 17.9577C5.60152 18.5196 5.60152 19.0816 5.60152 19.6435C5.60152 19.9215 5.60152 20.2055 5.60152 20.4835V20.7674C5.54828 21.282 5.67841 21.1637 5.99784 20.4125L6.74316 20.2114H6.60712C6.21587 20.2145 5.84152 20.3713 5.56485 20.6479C5.28819 20.9246 5.1314 21.2989 5.1283 21.6902C5.13733 22.0795 5.29602 22.4505 5.57142 22.7259C5.84682 23.0013 6.21775 23.16 6.60712 23.169V23.1217Z" fill="#CDCDCD"/>
</svg>
