<svg width="195" height="55" viewBox="0 0 195 55" fill="none" xmlns="http://www.w3.org/2000/svg">
<path d="M45.1594 0C93.101 1.3956 112.025 -0.53591 169.39 1.11648C176.089 1.31745 183.502 2.65711 187.968 7.7036C190.402 10.4613 191.619 14.0789 192.624 17.6293C194.343 23.6917 195.65 30.0556 194.656 36.2856C193.662 42.5155 190.011 48.645 184.194 51.0789C180.677 52.5415 176.747 52.5639 172.94 52.5639H151.035C123.994 52.5639 99.1857 54.7968 72.1446 54.3613C55.7323 54.1157 39.2754 53.7248 23.0195 51.2016C17.0463 50.2749 10.7382 48.8573 6.50672 44.5589C3.32475 41.3211 1.73954 36.8438 0.846361 32.4003C-0.560403 25.4111 -0.404118 17.8858 2.77785 11.4772C5.95982 5.06858 12.5805 0.156067 19.7148 0.312374L45.1594 0Z" fill="#FBBB62"/>
</svg>
