<svg width="241" height="68" viewBox="0 0 241 68" fill="none" xmlns="http://www.w3.org/2000/svg">
<path d="M55.8124 0C115.063 1.72482 138.452 -0.66233 209.349 1.37985C217.628 1.62823 226.79 3.28392 232.309 9.52086C235.317 12.9291 236.822 17.4 238.064 21.788C240.189 29.2806 241.803 37.1457 240.575 44.8453C239.347 52.5448 234.834 60.1202 227.645 63.1283C223.299 64.9359 218.442 64.9636 213.736 64.9636H186.664C153.244 64.9636 122.583 67.7232 89.1633 67.185C68.8795 66.8814 48.5404 66.3984 28.4497 63.2799C21.0675 62.1346 13.2713 60.3826 8.04163 55.0702C4.10905 51.0686 2.1499 45.5352 1.04602 40.0434C-0.692601 31.4055 -0.499448 22.105 3.43314 14.1846C7.36572 6.26424 15.5481 0.192883 24.3654 0.386063L55.8124 0Z" fill="#303466"/>
</svg>
