<?xml version="1.0" encoding="utf-8"?>
<!-- Generator: Adobe Illustrator 25.4.0, SVG Export Plug-In . SVG Version: 6.00 Build 0)  -->
<svg version="1.1" id="Layer_1" xmlns="http://www.w3.org/2000/svg" xmlns:xlink="http://www.w3.org/1999/xlink" x="0px" y="0px"
	 viewBox="0 0 27 27" style="enable-background:new 0 0 27 27;" xml:space="preserve">
<style type="text/css">
	.st0{fill:#CACACA;}
</style>
<g>
	<g>
		<path class="st0" d="M22.28,14.23c0.05,1.88,0.18,3.9-0.24,5.75c-0.11,0.48-0.21,0.83-0.62,1.12c-0.41,0.28-1.06,0.4-1.55,0.53
			c-1.13,0.32-2.29,0.53-3.46,0.63c-2.3,0.21-4.63,0.11-6.91-0.23c-0.93-0.14-1.9-0.28-2.8-0.54c-1.46-0.42-1.76-1.46-1.89-2.85
			c-0.22-2.35-0.08-4.72-0.1-7.08C4.68,9.8,4.1,7.37,5.02,5.73c0.51-0.92,1.71-0.95,2.63-0.99c1.26-0.05,2.52-0.07,3.77-0.08
			c2.52-0.02,5.04,0.01,7.55,0.05c1.15,0.02,2.71-0.18,3.11,1.18c0.24,0.81,0.21,1.76,0.24,2.6C22.4,10.4,22.39,12.32,22.28,14.23
			c-0.06,1.06,1.59,1.06,1.65,0c0.12-2.08,0.13-4.18,0.03-6.26c-0.1-2.05-0.31-4.27-2.7-4.76c-1.23-0.25-2.55-0.16-3.8-0.17
			C15.83,3.02,14.19,3,12.56,3.01c-1.51,0.01-3.02,0.02-4.53,0.07C6.83,3.12,5.54,3.16,4.52,3.87C2.71,5.12,2.88,7.83,2.99,9.75
			c0.17,2.84-0.09,5.68,0.13,8.52c0.09,1.17,0.19,2.42,0.89,3.41c0.74,1.03,1.95,1.37,3.13,1.61c2.65,0.54,5.39,0.82,8.1,0.7
			c1.49-0.07,2.99-0.25,4.44-0.61c1.16-0.28,2.79-0.6,3.48-1.69c0.62-0.99,0.68-2.37,0.74-3.5c0.08-1.32,0.05-2.64,0.02-3.96
			C23.9,13.17,22.25,13.17,22.28,14.23L22.28,14.23z"/>
	</g>
	<g>
		<path class="st0" d="M16.69,12.5c0.24,1.32-0.12,2.81-1.2,3.68c-1.15,0.92-2.66,0.68-3.89,0.04c-0.57-0.3-1.07-0.7-1.3-1.32
			c-0.22-0.61-0.17-1.28-0.01-1.9c0.17-0.67,0.45-1.4,0.95-1.9c0.51-0.5,1.31-0.77,2-0.85c1.43-0.17,2.96,0.53,3.37,1.98
			c0.29,1.02,1.88,0.59,1.59-0.44c-0.55-1.93-2.38-3.16-4.35-3.22c-1.05-0.03-2.15,0.26-3.04,0.8c-0.94,0.57-1.49,1.46-1.88,2.46
			c-0.73,1.88-0.54,4.08,1.15,5.37c1.59,1.2,3.93,1.67,5.73,0.71c2.12-1.12,2.87-3.61,2.46-5.86c-0.08-0.44-0.61-0.69-1.01-0.58
			C16.81,11.61,16.61,12.06,16.69,12.5L16.69,12.5z"/>
	</g>
	<g>
		<path class="st0" d="M18.32,7.05c-0.02,0-0.03,0-0.04,0c0.07,0.01,0.15,0.02,0.22,0.03c-0.02,0-0.04-0.01-0.05-0.01
			c0.07,0.03,0.13,0.06,0.2,0.08c-0.02-0.01-0.04-0.02-0.05-0.03c0.06,0.04,0.11,0.09,0.17,0.13c-0.02-0.01-0.03-0.03-0.05-0.05
			c0.04,0.06,0.09,0.11,0.13,0.17c-0.01-0.02-0.02-0.04-0.03-0.06c0.03,0.07,0.06,0.13,0.08,0.2c-0.01-0.02-0.01-0.04-0.02-0.06
			c0.01,0.07,0.02,0.15,0.03,0.22c0-0.02,0-0.04,0-0.06c-0.01,0.07-0.02,0.15-0.03,0.22c0-0.02,0.01-0.03,0.01-0.05
			c-0.03,0.07-0.06,0.13-0.08,0.2c0.01-0.02,0.02-0.03,0.03-0.04c-0.04,0.06-0.09,0.11-0.13,0.17c0.01-0.01,0.02-0.02,0.04-0.04
			c-0.06,0.04-0.11,0.09-0.17,0.13c0.02-0.01,0.04-0.02,0.06-0.03c-0.07,0.03-0.13,0.06-0.2,0.08c0.02-0.01,0.04-0.01,0.07-0.02
			c-0.07,0.01-0.15,0.02-0.22,0.03c0.03,0,0.05,0,0.08,0c-0.07-0.01-0.15-0.02-0.22-0.03c0.02,0,0.04,0.01,0.06,0.02
			c-0.07-0.03-0.13-0.06-0.2-0.08c0.02,0.01,0.04,0.02,0.05,0.03c-0.06-0.04-0.11-0.09-0.17-0.13c0.01,0.01,0.03,0.02,0.04,0.04
			c-0.04-0.06-0.09-0.11-0.13-0.17c0.01,0.02,0.02,0.03,0.03,0.05c-0.03-0.07-0.06-0.13-0.08-0.2c0.01,0.02,0.01,0.04,0.02,0.06
			c-0.01-0.07-0.02-0.15-0.03-0.22c0,0.02,0,0.05,0,0.07c0.01-0.07,0.02-0.15,0.03-0.22c0,0.03-0.01,0.05-0.02,0.08
			c0.03-0.07,0.06-0.13,0.08-0.2c-0.01,0.02-0.02,0.04-0.04,0.06c0.04-0.06,0.09-0.11,0.13-0.17c-0.01,0.02-0.03,0.03-0.04,0.04
			c0.06-0.04,0.11-0.09,0.17-0.13c-0.02,0.01-0.03,0.02-0.05,0.03c-0.1,0.05-0.17,0.12-0.23,0.21c-0.07,0.08-0.12,0.17-0.15,0.28
			c-0.03,0.11-0.04,0.22-0.01,0.33c0,0.11,0.04,0.21,0.1,0.31c0.04,0.06,0.09,0.11,0.13,0.17c0.1,0.1,0.22,0.17,0.36,0.21
			c0.07,0.01,0.15,0.02,0.22,0.03c0.15,0,0.29-0.04,0.42-0.11c0.01,0,0.02-0.01,0.03-0.02c0,0,0.01-0.01,0.01-0.01
			c0.05-0.04,0.12-0.09,0.17-0.13c0,0,0.01-0.01,0.01-0.01c0.01-0.01,0.02-0.02,0.03-0.03c0.03-0.03,0.05-0.07,0.07-0.09
			c0.02-0.03,0.05-0.07,0.08-0.1c0.01-0.01,0.01-0.02,0.02-0.03c0.04-0.07,0.07-0.15,0.1-0.23c0-0.01,0.01-0.02,0.01-0.04
			c0-0.01,0-0.01,0-0.02c0.01-0.08,0.02-0.16,0.03-0.24c0.01-0.09-0.02-0.22-0.03-0.29c0-0.01,0-0.02-0.01-0.04
			c0-0.01,0-0.01-0.01-0.02c-0.01-0.04-0.03-0.08-0.04-0.11c-0.01-0.03-0.03-0.07-0.05-0.11c0-0.01-0.01-0.02-0.02-0.03
			c0,0,0-0.01-0.01-0.01c-0.04-0.05-0.09-0.12-0.13-0.17c0,0-0.01-0.01-0.01-0.01c-0.03-0.03-0.08-0.06-0.11-0.09
			c-0.03-0.03-0.07-0.06-0.11-0.08c-0.07-0.04-0.15-0.07-0.22-0.09c-0.01,0-0.02-0.01-0.04-0.01c-0.08-0.02-0.17-0.03-0.25-0.03
			c-0.01,0-0.03,0-0.04,0c-0.01,0-0.01,0-0.02,0c-0.08,0.01-0.16,0.02-0.23,0.03c-0.01,0-0.02,0-0.04,0.01
			c-0.04,0.01-0.09,0.04-0.13,0.05c-0.04,0.02-0.09,0.03-0.13,0.06c-0.07,0.04-0.16,0.12-0.19,0.15c-0.01,0.01-0.02,0.02-0.03,0.02
			c-0.03,0.03-0.05,0.07-0.07,0.09c-0.02,0.03-0.05,0.06-0.07,0.1c-0.03,0.04-0.04,0.09-0.06,0.13c-0.02,0.04-0.04,0.09-0.05,0.13
			c-0.01,0.04-0.01,0.09-0.02,0.12c0,0.04-0.01,0.09-0.02,0.13c0,0.01,0,0.02,0,0.03c0.01,0.07,0.02,0.16,0.03,0.22
			c0,0,0,0.01,0,0.01c0,0.01,0,0.01,0,0.02c0.02,0.08,0.06,0.17,0.1,0.23c0.01,0.01,0.01,0.03,0.02,0.04
			c0.05,0.07,0.1,0.14,0.15,0.2c0.01,0.01,0.02,0.02,0.03,0.03c0.05,0.04,0.12,0.09,0.17,0.13c0,0,0.01,0,0.01,0.01
			c0.01,0,0.01,0.01,0.02,0.01c0.01,0,0.01,0.01,0.02,0.01c0.06,0.03,0.14,0.06,0.2,0.09c0,0,0.01,0,0.01,0
			c0.07,0.03,0.24,0.04,0.26,0.04c0.02,0,0.03,0,0.04,0c0.11,0,0.22-0.02,0.32-0.07c0.1-0.03,0.19-0.09,0.27-0.17
			c0.08-0.07,0.14-0.16,0.17-0.27c0.05-0.1,0.08-0.2,0.07-0.32c-0.01-0.07-0.02-0.15-0.03-0.22C19.07,7.52,19,7.4,18.9,7.29
			c-0.06-0.04-0.11-0.09-0.17-0.13C18.6,7.09,18.46,7.05,18.32,7.05L18.32,7.05z"/>
	</g>
</g>
</svg>
