<svg width="31" height="30" viewBox="0 0 31 30" fill="none" xmlns="http://www.w3.org/2000/svg">
<path d="M18.6301 17.1901C18.0849 17.9894 17.3357 18.6283 16.4602 19.0402C16.136 19.1464 15.8003 19.2133 15.4602 19.24C14.8395 19.2601 14.2184 19.24 13.6003 19.1799C13.0886 19.1335 12.5825 19.0363 12.0901 18.8899C11.9452 18.8507 11.8073 18.7903 11.6804 18.7102C11.4949 18.622 11.3229 18.5072 11.1701 18.3698C10.9157 18.1453 10.7287 17.8546 10.6301 17.53C10.4637 17.0435 10.3499 16.5407 10.2903 16.03C10.2298 15.56 10.2502 15.083 10.3503 14.6198C10.4227 14.2134 10.5833 13.8278 10.8205 13.4899C11.2707 12.7737 11.9255 12.2092 12.7004 11.8698C13.5782 11.4905 14.5414 11.3525 15.4905 11.4699C15.9002 11.4656 16.3047 11.5629 16.6677 11.7531C17.0307 11.9433 17.3409 12.2204 17.5705 12.5598C17.4605 12.4198 17.5703 12.6299 17.6203 12.6399C17.6703 12.6499 17.8001 12.91 17.8801 13.05L18.0305 13.3298C18.0305 13.3298 18.2301 13.7498 18.1501 13.5598C18.3663 14.0534 18.5112 14.5756 18.5803 15.1101C18.5803 15.0401 18.5803 14.8899 18.5803 15.1999V15.6799C18.5803 15.9199 18.5803 16.1601 18.5803 16.4001C18.5803 16.7001 18.6503 16.07 18.5803 16.57C18.5803 16.7 18.5302 16.8302 18.5002 16.9602C18.4287 17.2479 18.3422 17.5313 18.2405 17.8098C18.139 18.1929 18.192 18.6008 18.3884 18.945C18.5848 19.2893 18.9088 19.5426 19.2903 19.6501C19.6732 19.7463 20.0787 19.6905 20.4216 19.4948C20.7645 19.2991 21.0181 18.9784 21.1301 18.5998C21.5729 17.3702 21.7212 16.0543 21.5632 14.757C21.4052 13.4597 20.9454 12.2174 20.2204 11.1301C19.8393 10.501 19.3343 9.95558 18.7361 9.52755C18.1378 9.09952 17.4589 8.79755 16.7405 8.63985C15.251 8.31814 13.7031 8.39049 12.2502 8.84981C10.8833 9.27477 9.676 10.1011 8.7844 11.2209C7.8928 12.3408 7.3581 13.7027 7.25022 15.1301C7.14861 16.6723 7.49594 18.2107 8.25022 19.5598C9.07039 20.7669 10.3237 21.6123 11.7502 21.9201C13.4481 22.3628 15.2265 22.3972 16.9402 22.0202C18.4506 21.5359 19.7698 20.5872 20.7102 19.3098C20.9794 19.0225 21.1296 18.6439 21.1296 18.2502C21.1296 17.8565 20.9794 17.4774 20.7102 17.1901C20.4277 16.9117 20.0468 16.7556 19.6501 16.7556C19.2534 16.7556 18.8726 16.9117 18.5901 17.1901H18.6301Z" fill="#303466"/>
<path d="M21.7301 7.04993C21.706 7.07906 21.6791 7.10592 21.65 7.13001L21.9503 6.90003C21.8836 6.94261 21.8134 6.97927 21.7404 7.00989L22.1002 6.85999C21.9424 6.92189 21.7777 6.96539 21.61 6.98987L22.0001 6.94007C21.8973 6.95512 21.7928 6.95512 21.6901 6.94007L22.09 7.00013L21.92 6.94984L22.2701 7.09974C22.2234 7.07902 22.1798 7.05252 22.1403 7.02015L22.4401 7.25013C22.4052 7.2254 22.3749 7.19464 22.3502 7.1598L22.5802 7.46009L22.5104 7.34974L22.67 7.71009C22.6624 7.6772 22.6624 7.64288 22.67 7.60999V8.00989V7.90003V8.29993C22.6642 8.26685 22.6642 8.23292 22.67 8.19984L22.5201 8.54993C22.5391 8.49925 22.5661 8.45183 22.6002 8.4098L22.36 8.71986L22.5201 8.5597L22.2203 8.79993C22.3009 8.73728 22.3879 8.68347 22.4801 8.63978L22.1202 8.79017H22.2404L21.84 8.84974C21.876 8.83996 21.9143 8.83996 21.9503 8.84974L21.5504 8.79017C21.6065 8.79618 21.6605 8.81297 21.7101 8.83997L21.36 8.69007L21.4801 8.75989L21.1803 8.52015L21.3004 8.65003L21.0602 8.33997C21.0998 8.39102 21.13 8.44846 21.15 8.50989L21.0001 8.15003C21.0373 8.23585 21.0613 8.32696 21.0704 8.42005L21.0201 8.02015C21.0302 8.1199 21.0302 8.2202 21.0201 8.31995L21.0704 7.92982C21.0796 7.98276 21.0796 8.03703 21.0704 8.08997L21.2203 7.73987L21.17 7.83997L21.4 7.52991L21.3302 7.60999L21.63 7.38001L21.5402 7.42982L21.8903 7.27991H21.7404L22.13 7.21986C22.0771 7.22986 22.0232 7.22986 21.9703 7.21986L22.3702 7.27015C22.2976 7.26079 22.2269 7.24051 22.1603 7.21009L22.5201 7.35999C22.3316 7.27847 22.1538 7.17432 21.9904 7.04993L22.3004 7.27991C22.2312 7.23391 22.1701 7.17649 22.1202 7.10999L22.36 7.4098C22.3309 7.3771 22.3075 7.3401 22.2902 7.29993L22.4401 7.6598V7.5597L22.4904 7.96009V7.84974L22.4401 8.25013C22.4343 8.20364 22.4343 8.15648 22.4401 8.10999L22.2902 8.46986C22.3102 8.41152 22.3406 8.35715 22.38 8.3097L22.1403 8.61976C22.2066 8.5334 22.2839 8.4561 22.3702 8.38978L22.0704 8.61976C22.1478 8.5604 22.2317 8.51017 22.3204 8.46986L21.9601 8.61976L22.2203 8.54993L21.8204 8.59974C21.9034 8.58928 21.9874 8.58928 22.0704 8.59974L21.67 8.54993C21.7535 8.55929 21.8349 8.5828 21.9103 8.61976L21.5504 8.46009L21.7301 8.56995L21.4303 8.33997C21.4897 8.37956 21.5406 8.43045 21.5802 8.48987L21.3502 8.19007L21.4303 8.31995L21.2701 7.96986C21.3006 8.0294 21.3209 8.09356 21.3302 8.1598L21.2701 7.75989C21.28 7.81613 21.28 7.87358 21.2701 7.92982L21.3302 7.52991C21.3209 7.59615 21.3006 7.66031 21.2701 7.71986L21.4303 7.36976L21.34 7.50989L21.5704 7.21009C21.5423 7.24828 21.5085 7.2816 21.4703 7.3097L21.7701 7.07972C21.6031 7.17712 21.4597 7.31045 21.3502 7.46986C21.218 7.61389 21.125 7.78977 21.0802 7.98011C21.0302 8.17699 21.0302 8.38284 21.0802 8.57972C21.0895 8.77592 21.1519 8.96625 21.2604 9.13001C21.4593 9.46821 21.782 9.71562 22.1603 9.81995C22.352 9.87543 22.5527 9.89069 22.7506 9.86487C22.9485 9.83906 23.1391 9.77284 23.3102 9.67005C23.5833 9.50363 23.8159 9.27795 23.9904 9.00989C24.0946 8.84168 24.1751 8.65996 24.2301 8.46986C24.2391 8.43036 24.2391 8.38923 24.2301 8.34974C24.2632 8.18795 24.2869 8.02458 24.3004 7.85999C24.2985 7.65418 24.2715 7.44949 24.2203 7.25013C24.1131 6.8597 23.8898 6.511 23.5802 6.25013C23.4346 6.11042 23.2693 5.99243 23.09 5.90003C22.9061 5.796 22.7072 5.72154 22.5001 5.67982C22.0796 5.58634 21.642 5.60386 21.2301 5.73011C21.0279 5.7996 20.8334 5.89011 20.65 6.00013C20.5174 6.08872 20.3906 6.18562 20.2701 6.29017L20.15 6.38978C19.7465 6.78088 19.5042 7.30882 19.4703 7.86976C19.4675 8.13703 19.5179 8.40221 19.6193 8.64954C19.7206 8.89687 19.8706 9.12128 20.0602 9.3097C20.2027 9.45295 20.3605 9.58073 20.5304 9.69007L20.7804 9.84974C21.1573 10.085 21.5869 10.2229 22.0304 10.2501C22.1337 10.2555 22.2367 10.2555 22.34 10.2501C22.44 10.2501 22.55 10.2501 22.65 10.2501C22.8058 10.2015 22.9567 10.1374 23.1002 10.0597H23.15C23.275 9.98099 23.3923 9.89106 23.5001 9.79017C23.8769 9.38598 24.0846 8.85251 24.0802 8.29993C24.0833 7.85431 23.9768 7.41498 23.7701 7.02015C23.7159 6.93283 23.6556 6.84931 23.59 6.77015C23.5288 6.68573 23.4623 6.60531 23.3903 6.52991C23.1459 6.30214 22.8561 6.12861 22.5402 6.02015C22.2734 5.93768 21.9922 5.91174 21.715 5.94446C21.4377 5.97719 21.1705 6.06779 20.9303 6.21009C20.5645 6.41452 20.2554 6.70621 20.0304 7.0597C19.8439 7.36017 19.7436 7.70609 19.7404 8.0597V8.10999C19.7498 8.26121 19.7699 8.41128 19.8004 8.5597C19.9306 9.04897 20.2411 9.47084 20.67 9.73987C20.8533 9.86974 21.0611 9.96157 21.2804 10.0099C21.7575 10.1085 22.2512 10.0915 22.7203 9.96009C22.9413 9.89771 23.1553 9.81398 23.36 9.71009C23.562 9.60515 23.7447 9.46634 23.9 9.29993C24.1778 9.01649 24.3354 8.6367 24.34 8.23987C24.3544 8.04117 24.3092 7.84286 24.2101 7.67005C24.152 7.48214 24.0449 7.3128 23.9 7.17982C23.6166 6.90205 23.2368 6.74448 22.84 6.73987C22.4436 6.74652 22.065 6.90378 21.7804 7.17982L21.7301 7.04993Z" fill="#303466"/>
<path d="M8.77008 29.4802C11.4601 29.4802 14.1602 29.31 16.8502 29.26C18.8502 29.26 20.8502 29.2102 22.9102 29.0202C24.5656 28.9786 26.1801 28.4988 27.5899 27.6301C30.6599 25.4001 29.87 20.63 29.9 17.32L29.96 11.01C29.96 9.09998 30.13 7.13019 29.96 5.23019C29.957 4.44953 29.733 3.68547 29.3135 3.02707C28.8941 2.36866 28.2961 1.84266 27.5899 1.50998C26.0013 0.992074 24.3239 0.805092 22.6602 0.960173L9.82038 0.880095C7.99038 0.880095 5.96028 0.630037 4.22028 1.32004C3.54056 1.60549 2.92498 2.02421 2.40973 2.55148C1.89448 3.07876 1.48998 3.70374 1.22028 4.38986C-0.149722 7.58986 0.0899458 11.6798 0.129946 15.0798C0.129946 17.4065 0.266769 19.7398 0.540102 22.0798C0.750102 23.9898 0.740044 26.3798 1.73004 28.0798C2.61004 29.5898 4.14004 29.6598 5.73004 29.5598C6.73004 29.4998 7.73004 29.5002 8.73004 29.5002C9.12787 29.5002 9.50929 29.3421 9.79059 29.0608C10.0719 28.7795 10.23 28.398 10.23 28.0002C10.23 27.6024 10.0719 27.2205 9.79059 26.9392C9.50929 26.6579 9.12787 26.5002 8.73004 26.5002C8.16004 26.5002 7.59032 26.5002 7.01032 26.5002C6.43032 26.5002 5.91016 26.5598 5.35016 26.5798C5.15016 26.5798 4.91002 26.5798 4.71002 26.5798C4.56019 26.5898 4.41015 26.5898 4.26032 26.5798C4.39032 26.7398 4.39032 26.7298 4.26032 26.5798C3.9669 25.9529 3.80664 25.2718 3.7901 24.5798C3.6701 23.7598 3.57004 22.9398 3.48004 22.1198C3.30004 20.3598 3.16993 18.6001 3.10993 16.8401C2.89614 13.6807 3.00367 10.5076 3.43024 7.36984C3.51062 6.31021 3.94747 5.30926 4.66998 4.53C5.77998 3.58 7.6701 3.93015 9.0401 3.94015L19.4102 4.00998C21.1102 4.00998 22.8201 4.00998 24.5201 4.00998C26.0001 4.00998 26.9003 4.17004 26.9503 5.82004C27.0303 9.17004 26.8802 12.5399 26.8502 15.8899V20.7502C26.8502 22.0902 27.1003 24.04 26.0303 25.07C24.9603 26.1 22.8903 26.0699 21.4903 26.1599C19.6603 26.2699 17.8303 26.2698 15.9903 26.3098C13.5803 26.3598 11.1601 26.47 8.75006 26.51C6.84006 26.51 6.83008 29.5102 8.77008 29.4802Z" fill="#303466"/>
</svg>
