<svg width="20" height="20" viewBox="0 0 20 20" fill="none" xmlns="http://www.w3.org/2000/svg">
<path d="M1.96911 1.32012L2.33438 1.36919C2.2834 1.36553 2.23352 1.3526 2.18719 1.33102L2.50884 1.46732C2.46295 1.44601 2.41914 1.42046 2.378 1.391L2.65605 1.60361C2.60728 1.56754 2.56331 1.52542 2.5252 1.47823L2.74327 1.75083C2.70056 1.69993 2.66566 1.64298 2.63969 1.58182L2.77599 1.90893C2.74959 1.84419 2.73128 1.77643 2.72147 1.7072L2.77053 2.06703C2.75969 2.00755 2.75969 1.9466 2.77053 1.88712L2.72147 2.25239C2.72512 2.20141 2.73805 2.15153 2.75962 2.10519L2.62333 2.42685C2.6395 2.38291 2.66352 2.34227 2.69421 2.30691L2.47613 2.5795C2.51024 2.53912 2.54862 2.50257 2.59062 2.47048L2.31258 2.68309C2.36031 2.64882 2.41147 2.61958 2.46523 2.59586L2.13811 2.73216C2.19281 2.7119 2.24945 2.69729 2.30713 2.68855L1.94184 2.73761H2.11086L1.75103 2.68855L1.88188 2.72671L1.56022 2.59042C1.60415 2.60659 1.64479 2.63059 1.68016 2.66128L1.40212 2.44321L1.48389 2.52498L1.27127 2.25239C1.29446 2.28688 1.31454 2.32337 1.33124 2.36143L1.19494 2.03432C1.2102 2.08085 1.22294 2.12817 1.23311 2.17607L1.18404 1.81079C1.18947 1.86335 1.18947 1.91634 1.18404 1.9689L1.22765 1.60907C1.22194 1.65382 1.21096 1.69774 1.19494 1.73991L1.33124 1.41825C1.31616 1.45087 1.29791 1.48192 1.27672 1.51094L1.48935 1.23835L1.41302 1.31467L1.68561 1.10205L1.63654 1.13476C1.48319 1.21879 1.35231 1.33846 1.25491 1.48369C1.13526 1.61414 1.05246 1.77407 1.01503 1.94708C0.96608 2.12552 0.96608 2.31384 1.01503 2.49227C1.02679 2.6722 1.08298 2.84642 1.17859 2.99931L1.39121 3.2719C1.55735 3.43958 1.76389 3.56163 1.99092 3.62627L2.35619 3.67533C2.59744 3.67468 2.8343 3.61077 3.04312 3.48997C3.1902 3.40648 3.32276 3.29968 3.43566 3.17376C3.62865 2.96391 3.77374 2.71465 3.8609 2.44321C3.90494 2.27938 3.93054 2.11115 3.93723 1.94164C3.94602 1.75789 3.92578 1.5739 3.87726 1.39646C3.83799 1.22962 3.77366 1.06968 3.68645 0.922131C3.60575 0.774559 3.50277 0.64033 3.38115 0.524155C3.25755 0.40311 3.11594 0.301948 2.96135 0.224292C2.70196 0.0774659 2.40892 0.000462674 2.11086 0.000780151C1.93656 -0.0041344 1.76238 0.0141865 1.59293 0.0552855C1.24491 0.134081 0.924674 0.305504 0.66611 0.551408L0.595241 0.616827C0.508011 0.725865 0.415329 0.840368 0.339003 0.954857C0.160015 1.25484 0.0658018 1.59776 0.0664092 1.94708C0.0699012 2.11584 0.0899885 2.28384 0.12638 2.44866C0.135083 2.5087 0.151576 2.56735 0.175445 2.62313C0.281631 2.95795 0.468912 3.26134 0.720632 3.50633C0.851304 3.62516 0.995926 3.72768 1.15133 3.81163C1.28097 3.8774 1.41593 3.93211 1.55477 3.97518C1.70203 4.00764 1.85143 4.0295 2.00182 4.0406C2.19114 4.05183 2.37987 4.01031 2.547 3.92066C2.71314 3.86216 2.86404 3.76715 2.98859 3.64261C3.11313 3.51806 3.20815 3.36716 3.26665 3.20102C3.3563 3.03389 3.39783 2.84516 3.38659 2.65584L3.33753 2.29056C3.2749 2.0639 3.1547 1.8573 2.98861 1.69085L2.71056 1.47823C2.50277 1.35496 2.26522 1.29086 2.02363 1.29287L1.96911 1.32012Z" fill="#CDCDCD"/>
<path d="M0.617684 7.02703C0.617684 10.5053 0.617684 13.9836 0.617684 17.4619L2.94563 16.5024C2.83115 16.3824 2.80389 16.3661 2.86931 16.4588C2.79298 16.3225 2.77663 16.2952 2.80934 16.3661C2.85295 16.5187 2.72755 15.9081 2.76026 16.1589C2.74113 15.8212 2.74113 15.4826 2.76026 15.1449V12.4189C2.76026 11.5521 2.76026 10.6798 2.76026 9.81294C2.70355 9.12623 2.81392 8.43599 3.08193 7.8012C3.18395 7.64662 3.25339 7.47285 3.28601 7.29054C3.31863 7.10822 3.31375 6.92118 3.27168 6.74081C3.2296 6.56044 3.15121 6.39055 3.04128 6.24149C2.93135 6.09243 2.79219 5.96733 2.6323 5.87385C2.47242 5.78036 2.29515 5.72046 2.11133 5.69777C1.92752 5.67508 1.74101 5.69008 1.56318 5.74188C1.38536 5.79367 1.21997 5.88116 1.07709 5.99901C0.934208 6.11686 0.816854 6.2626 0.732177 6.42732C-0.254611 8.29186 0.0397845 10.5871 0.0452364 12.6261C0.0452364 13.6565 0.0452364 14.6924 0.0452364 15.7228C0.0452364 16.7532 0.257857 17.7727 1.04838 18.4487C1.24254 18.6217 1.48168 18.7364 1.73819 18.7793C1.9947 18.8223 2.25813 18.7919 2.49809 18.6916C2.73805 18.5912 2.94476 18.4251 3.09437 18.2124C3.24397 17.9996 3.33038 17.7489 3.34362 17.4892C3.34362 14.0109 3.34362 10.5326 3.34362 7.05428C3.34362 5.29878 0.617684 5.29878 0.617684 7.05428V7.02703Z" fill="#CDCDCD"/>
<path d="M5.98661 6.77006C6.56848 10.4016 6.81667 14.0788 6.72806 17.7556C6.73231 18.1157 6.87727 18.46 7.13196 18.7146C7.38665 18.9693 7.73086 19.1143 8.09103 19.1185C8.45032 19.1116 8.79296 18.9657 9.04707 18.7116C9.30118 18.4575 9.44702 18.1149 9.45399 17.7556C9.56303 16.7524 9.30679 15.7275 9.45399 14.7298C9.61133 14.019 9.97778 13.3715 10.5062 12.8707C11.5312 11.704 12.8996 10.461 14.3988 9.95395C14.9767 9.75768 15.5983 9.63229 15.9962 10.1393C16.3297 10.7092 16.5483 11.339 16.6396 11.993C17.0574 13.9044 17.2405 15.8597 17.1847 17.8156H19.9107C19.6763 15.9401 20.1397 14.0647 19.9543 12.1892C19.7853 10.4719 19.2128 8.78725 17.8008 7.70233C17.0505 7.14794 16.1637 6.80793 15.2351 6.71862C14.3064 6.62931 13.371 6.79408 12.5288 7.19531C10.8224 7.97493 9.80291 9.57233 9.25773 11.306C8.57079 13.4323 8.12919 15.6675 7.584 17.8483L10.2609 18.2135L9.83017 6.5847C9.7702 4.83465 7.04426 4.8292 7.10423 6.5847L7.50767 18.2135C7.56219 19.7073 9.80291 20.1108 10.1845 18.5734C10.697 16.5289 11.155 14.4627 11.7383 12.4346C12.1527 11.0062 13.0195 9.45238 14.6932 9.42512C16.2416 9.42512 16.9885 10.6627 17.1956 12.042C17.4846 13.9066 16.934 15.9183 17.1956 17.8319C17.2066 18.1899 17.3537 18.5303 17.607 18.7836C17.8602 19.0368 18.2006 19.1839 18.5586 19.1949C18.9188 19.1906 19.263 19.0457 19.5177 18.791C19.7724 18.5363 19.9173 18.1921 19.9216 17.8319C19.9629 15.8918 19.7984 13.9529 19.4309 12.0475C19.1147 10.4119 18.684 8.51466 17.1466 7.58239C15.511 6.57924 13.4829 7.23347 11.9618 8.12757C10.4724 9.02582 9.15593 10.1835 8.07466 11.5459C7.35802 12.386 6.90148 13.4165 6.76077 14.5117C6.64083 15.6021 6.86436 16.6925 6.76077 17.7501H9.4867C9.55617 13.8281 9.26417 9.90798 8.6144 6.03951C8.51825 5.69105 8.2876 5.39506 7.97321 5.21664C7.65881 5.03823 7.28642 4.99201 6.93795 5.08817C6.58949 5.18432 6.29349 5.41496 6.11507 5.72935C5.93666 6.04375 5.89045 6.41614 5.98661 6.76461V6.77006Z" fill="#CDCDCD"/>
</svg>
