<svg width="26" height="27" viewBox="0 0 26 27" fill="none" xmlns="http://www.w3.org/2000/svg">
<path d="M0.519833 10.0498C0.293166 14.5698 0.246362 19.093 0.379696 23.6196C0.414308 24.0933 0.627092 24.5365 0.974911 24.8599C1.32273 25.1832 1.77981 25.3628 2.2547 25.3628C2.72958 25.3628 3.18715 25.1832 3.53497 24.8599C3.88279 24.5365 4.09508 24.0933 4.1297 23.6196C3.9897 19.093 4.0365 14.5698 4.26983 10.0498C4.28867 9.79206 4.25445 9.53336 4.16876 9.28955C4.08307 9.04574 3.94774 8.82209 3.77179 8.63281C3.59583 8.44353 3.38272 8.29269 3.14581 8.18945C2.90889 8.08622 2.65326 8.03271 2.39483 8.03271C2.1364 8.03271 1.88077 8.08622 1.64386 8.18945C1.40694 8.29269 1.19383 8.44353 1.01788 8.63281C0.841927 8.82209 0.707088 9.04574 0.621395 9.28955C0.535702 9.53336 0.500997 9.79206 0.519833 10.0498Z" fill="#303466"/>
<path d="M8.3999 9.57004C8.50295 14.3198 8.86717 19.0604 9.49023 23.7702C9.50529 24.2641 9.70826 24.7334 10.0576 25.0827C10.407 25.4321 10.8763 25.6351 11.3701 25.6501C11.8654 25.6423 12.3382 25.4412 12.6875 25.0901C13.0368 24.7389 13.2351 24.2655 13.2402 23.7702C13.2402 21.4402 13.2399 18.7702 14.1899 16.7102C14.5845 15.7638 15.2062 14.929 16 14.28C16.5814 13.8394 17.2739 13.5696 18 13.5002C18.748 13.4395 19.4919 13.6566 20.0898 14.1101C19.8798 13.9501 20.3699 14.3899 20.4199 14.4499C20.2299 14.2199 20.5501 14.6602 20.5601 14.6902C20.7673 15.1542 20.9056 15.646 20.9702 16.1501C21.4695 18.9141 21.6805 21.7224 21.6001 24.53C21.5501 26.94 25.3001 26.94 25.3501 24.53C25.4004 21.7687 25.2098 19.0082 24.7803 16.28C24.4103 13.95 23.7302 11.74 21.4902 10.57C20.5094 10.0591 19.4227 9.78418 18.3169 9.76682C17.2111 9.74946 16.1165 9.99004 15.1201 10.4699C13.1509 11.4837 11.6133 13.174 10.79 15.2302C9.62004 17.9302 9.53025 20.8702 9.51025 23.7702H13.2603C12.6372 19.0604 12.273 14.3198 12.1699 9.57004C12.1099 7.16004 8.35992 7.15004 8.41992 9.57004H8.3999Z" fill="#303466"/>
<path d="M3.83008 1.9897L4.12012 2.35982L4.31006 2.79976C4.30472 2.78352 4.30472 2.76619 4.31006 2.74995L4.37988 3.24995C4.37521 3.23888 4.37305 3.22682 4.37305 3.2148C4.37305 3.20278 4.37521 3.19072 4.37988 3.17964L4.31006 3.66988C4.30558 3.6434 4.30558 3.61628 4.31006 3.5898L4.12012 4.03999L4.18018 3.94966L3.87988 4.32954L3.93994 4.26997L3.56006 4.56978H3.62988L3.18018 4.74995H3.25L2.75 4.80952H2.82031L2.32031 4.74995H2.3999L1.9502 4.55952H2.03027L1.6499 4.26997L1.72021 4.3398L1.43018 3.95992L1.49023 4.05952L1.30029 3.61958C1.30492 3.66279 1.30492 3.70674 1.30029 3.74995L1.24023 3.24995V3.36958L1.30029 2.86958C1.30593 2.90603 1.30593 2.94348 1.30029 2.97993L1.47998 2.52974C1.46795 2.57022 1.44744 2.60757 1.41992 2.6396L1.72021 2.25972L1.62012 2.34956L2 2.05952L1.87012 2.12984L2.32031 1.9399L2.16016 1.9897L2.66016 1.91988H2.49023L2.99023 1.9897H2.85986L3.30029 2.17964L3.2002 2.11958L3.58008 2.40962L3.51025 2.3398L3.80029 2.71968L3.74023 2.61958L3.93018 3.06978C3.92206 3.02683 3.92206 2.98285 3.93018 2.9399L3.99023 3.4399V3.27974L3.93018 3.77974C3.91992 3.7269 3.91992 3.67242 3.93018 3.61958L3.74023 4.06978C3.76089 4.01993 3.78785 3.97275 3.82031 3.92964L3.53027 4.30952C3.55837 4.27134 3.5917 4.23801 3.62988 4.20992L3.25 4.49995L3.3501 4.4399L2.91016 4.62984C2.9461 4.61956 2.98407 4.61956 3.02002 4.62984C3.2561 4.57345 3.47319 4.45639 3.6499 4.28999C3.85666 4.16343 4.02607 3.98388 4.14014 3.76997C4.36933 3.32318 4.43642 2.81054 4.33008 2.31978L4.14014 1.86958C3.97418 1.59202 3.73995 1.36149 3.45996 1.19966L3.02002 1.00972C2.69273 0.919937 2.34731 0.919937 2.02002 1.00972H1.93018L1.68018 1.10982L1.43994 1.20992C1.2772 1.30532 1.12647 1.41927 0.990234 1.54976C0.964451 1.57051 0.940669 1.5938 0.919922 1.61958C0.798562 1.76335 0.685219 1.91376 0.580078 2.06978C0.488385 2.243 0.411465 2.42368 0.350098 2.60982V2.69966C0.308081 2.89394 0.281255 3.09154 0.27002 3.28999V3.40962L0.339844 3.90962C0.338874 3.92627 0.338874 3.94326 0.339844 3.95992C0.394899 4.14363 0.468831 4.321 0.560059 4.4897C0.572877 4.52168 0.589481 4.55176 0.609863 4.57954C0.71384 4.73587 0.831027 4.8835 0.959961 5.01997L1.16992 5.17964L1.37012 5.3398H1.41992C1.58558 5.43275 1.75972 5.50975 1.93994 5.56978H2.04004C2.23111 5.60905 2.42519 5.63229 2.62012 5.6396C2.73298 5.65426 2.8471 5.65426 2.95996 5.6396C3.07123 5.63275 3.18174 5.61622 3.29004 5.5898C3.4719 5.53368 3.64937 5.46351 3.82031 5.37984L3.91016 5.32954C4.07093 5.22743 4.22131 5.11062 4.35986 4.97993L4.41992 4.91988C4.54428 4.77501 4.65824 4.6213 4.76025 4.45992C4.95344 4.11799 5.05647 3.73251 5.06006 3.3398V3.28999C5.06006 3.19999 5.06006 3.08997 5.06006 3.01997C5.06006 2.94997 5.06006 2.8297 5.06006 2.7397C5.06272 2.70308 5.06272 2.66646 5.06006 2.62984C5.00167 2.44579 4.92462 2.26792 4.83008 2.09956C4.72436 1.93868 4.60397 1.78831 4.47021 1.64986L4.08008 1.34956C3.96008 1.29956 3.75012 1.19962 3.62012 1.15962H3.57031C3.21257 1.06946 2.83772 1.06946 2.47998 1.15962H2.43018L1.97021 1.35982L1.74023 1.52974C1.65876 1.58701 1.58188 1.65048 1.51025 1.71968C1.45153 1.78185 1.39786 1.84894 1.3501 1.91988L1.2002 2.11958C1.00074 2.46212 0.900306 2.8537 0.910156 3.24995C0.913759 3.43197 0.937056 3.61308 0.97998 3.78999L1.07031 4.02974C1.07031 4.09974 1.13992 4.17972 1.16992 4.25972C1.25796 4.42994 1.3767 4.58269 1.52002 4.70992C1.68897 4.88715 1.8981 5.02059 2.12988 5.09956C2.35528 5.20495 2.60128 5.25972 2.8501 5.25972C3.09891 5.25972 3.34491 5.20495 3.57031 5.09956C3.80317 5.02284 4.01281 4.88907 4.18018 4.70992L4.47021 4.32954C4.63312 4.04247 4.72221 3.71959 4.72998 3.3896L4.66016 2.8896C4.57501 2.57592 4.40959 2.28977 4.18018 2.05952L3.83008 1.9897Z" fill="#303466"/>
</svg>
