<?xml version="1.0" encoding="utf-8"?>
<!-- Generator: Adobe Illustrator 25.4.0, SVG Export Plug-In . SVG Version: 6.00 Build 0)  -->
<svg version="1.1" id="Layer_1" xmlns="http://www.w3.org/2000/svg" xmlns:xlink="http://www.w3.org/1999/xlink" x="0px" y="0px"
	 viewBox="0 0 27 27" style="enable-background:new 0 0 27 27;" xml:space="preserve">
<style type="text/css">
	.st0{fill:#CACACA;}
</style>
<g>
	<path class="st0" d="M6.5,6.72C6.46,6.77,6.41,6.81,6.36,6.84C6.42,6.8,6.48,6.76,6.53,6.71C6.44,6.78,6.35,6.84,6.24,6.88
		c0.07-0.03,0.13-0.06,0.2-0.08C6.4,6.81,6.37,6.82,6.33,6.83C6.41,6.82,6.48,6.81,6.55,6.8c-0.02,0-0.04,0-0.05,0
		c0.07,0.01,0.15,0.02,0.22,0.03c-0.02,0-0.03-0.01-0.05-0.02c0.07,0.03,0.13,0.06,0.2,0.08C6.8,6.86,6.74,6.82,6.68,6.78
		C6.74,6.82,6.79,6.86,6.85,6.9C6.8,6.87,6.75,6.82,6.72,6.77C6.76,6.83,6.8,6.89,6.84,6.94C6.83,6.92,6.81,6.89,6.8,6.86
		c0.03,0.07,0.06,0.13,0.08,0.2C6.87,7.03,6.86,7,6.85,6.97c0.01,0.07,0.02,0.15,0.03,0.22c-0.01-0.04-0.01-0.08,0-0.12
		C6.87,7.14,6.86,7.21,6.85,7.29c0.01-0.04,0.02-0.08,0.03-0.12C6.86,7.24,6.83,7.3,6.8,7.37C6.82,7.33,6.84,7.3,6.87,7.26
		C6.82,7.32,6.78,7.37,6.74,7.43C6.77,7.39,6.8,7.35,6.84,7.32C6.79,7.37,6.73,7.41,6.68,7.45C6.75,7.4,6.82,7.36,6.9,7.32
		C6.83,7.35,6.77,7.38,6.7,7.41c0.06-0.02,0.11-0.05,0.17-0.05C6.8,7.36,6.73,7.37,6.66,7.38c0.02,0,0.03,0,0.05,0
		C6.64,7.37,6.56,7.36,6.49,7.35c0.03,0,0.05,0.01,0.07,0.02C6.5,7.34,6.43,7.32,6.37,7.29C6.4,7.31,6.43,7.32,6.46,7.35
		C6.4,7.3,6.34,7.26,6.29,7.22c0.07,0.06,0.13,0.12,0.19,0.19C6.44,7.35,6.39,7.3,6.35,7.24C6.4,7.3,6.43,7.36,6.46,7.43
		C6.44,7.36,6.41,7.3,6.38,7.23c0.02,0.05,0.03,0.1,0.04,0.15C6.41,7.31,6.4,7.24,6.39,7.16c0,0.03,0,0.06,0,0.09
		C6.4,7.19,6.41,7.11,6.42,7.04C6.42,7.08,6.4,7.13,6.39,7.17c0.03-0.07,0.06-0.13,0.08-0.2C6.45,7,6.43,7.04,6.41,7.07
		C6.46,7.01,6.5,6.95,6.54,6.9C6.51,6.94,6.47,6.98,6.43,7.01C6.49,6.97,6.54,6.92,6.6,6.88C6.56,6.91,6.52,6.93,6.48,6.95
		c0.07-0.03,0.13-0.06,0.2-0.08C6.63,6.88,6.59,6.89,6.54,6.9c0.07-0.01,0.15-0.02,0.22-0.03c-0.06,0.01-0.12,0-0.17,0
		C6.66,6.88,6.73,6.89,6.8,6.9C6.74,6.89,6.69,6.87,6.63,6.85c0.07,0.03,0.13,0.06,0.2,0.08C6.76,6.9,6.7,6.86,6.64,6.82
		C6.69,6.86,6.75,6.9,6.8,6.95C6.75,6.9,6.7,6.86,6.66,6.8C6.7,6.86,6.75,6.91,6.79,6.97C6.75,6.92,6.72,6.87,6.7,6.82
		c0.03,0.07,0.06,0.13,0.08,0.2C6.76,6.96,6.74,6.91,6.74,6.85C6.75,6.93,6.76,7,6.76,7.07c-0.01-0.06-0.01-0.12,0-0.18
		C6.76,6.97,6.75,7.04,6.74,7.11C6.74,7.06,6.76,7,6.78,6.94C6.75,7.01,6.73,7.08,6.7,7.14c0.03-0.06,0.06-0.12,0.1-0.17
		C6.76,7.02,6.71,7.08,6.67,7.14C6.71,7.09,6.75,7.05,6.8,7.01C6.74,7.05,6.69,7.1,6.63,7.14c0.05-0.04,0.1-0.07,0.16-0.09
		C6.72,7.07,6.66,7.1,6.59,7.13C6.65,7.1,6.71,7.09,6.78,7.08C6.71,7.09,6.63,7.1,6.56,7.11c0.08-0.01,0.16-0.01,0.25,0
		C6.73,7.1,6.66,7.09,6.59,7.08C6.66,7.09,6.73,7.11,6.8,7.14C6.74,7.11,6.67,7.08,6.6,7.05c0.08,0.03,0.15,0.07,0.21,0.12
		C6.76,7.13,6.7,7.09,6.65,7.05C6.7,7.09,6.75,7.14,6.8,7.2C6.76,7.14,6.71,7.09,6.67,7.03c0.04,0.05,0.07,0.1,0.09,0.16
		C6.74,7.13,6.71,7.06,6.68,7C6.7,7.05,6.72,7.1,6.72,7.15C6.71,7.08,6.7,7.01,6.7,6.94c0.01,0.05,0.01,0.1,0,0.15
		C6.7,7.02,6.71,6.94,6.72,6.87C6.72,6.91,6.7,6.96,6.69,7c0.03-0.07,0.06-0.13,0.08-0.2C6.75,6.85,6.73,6.89,6.7,6.93
		c0.04-0.06,0.09-0.11,0.13-0.17C6.8,6.79,6.78,6.82,6.75,6.84C6.8,6.8,6.86,6.75,6.91,6.71C6.9,6.72,6.88,6.74,6.86,6.75
		C6.68,6.85,6.54,7.04,6.48,7.24C6.43,7.44,6.45,7.7,6.56,7.88c0.11,0.18,0.28,0.33,0.49,0.38C7.27,8.3,7.5,8.29,7.69,8.17
		c0.52-0.31,0.78-0.98,0.6-1.56c-0.17-0.54-0.61-0.95-1.15-1.1C6.87,5.43,6.6,5.44,6.32,5.49C6.04,5.54,5.8,5.69,5.6,5.87
		C5.19,6.23,5.04,6.81,5.15,7.33C5.18,7.47,5.24,7.6,5.31,7.72c0.07,0.12,0.17,0.25,0.27,0.35c0.2,0.19,0.45,0.35,0.72,0.41
		c0.13,0.03,0.27,0.05,0.4,0.05c0.23-0.01,0.4-0.06,0.6-0.15c0.23-0.1,0.45-0.32,0.57-0.55c0.16-0.3,0.21-0.66,0.11-0.98
		C7.9,6.56,7.73,6.3,7.52,6.1C7.36,5.96,7.2,5.85,7,5.78c-0.2-0.07-0.43-0.06-0.63-0.01C6.1,5.85,5.85,6,5.64,6.19
		C5.5,6.31,5.41,6.47,5.34,6.63C5.31,6.71,5.28,6.77,5.26,6.85c-0.02,0.1-0.04,0.21-0.03,0.32c0.02,0.21,0.06,0.42,0.18,0.6
		c0.13,0.19,0.25,0.3,0.44,0.44c0.12,0.09,0.24,0.15,0.38,0.2c0.14,0.05,0.29,0.05,0.43,0.03c0.17-0.02,0.24-0.05,0.41-0.13
		C7.3,8.21,7.5,8.06,7.67,7.89c0.15-0.15,0.24-0.37,0.24-0.58c0-0.2-0.09-0.44-0.24-0.58C7.51,6.58,7.3,6.47,7.08,6.48
		C6.86,6.49,6.66,6.57,6.5,6.72L6.5,6.72z"/>
</g>
<g>
	<path class="st0" d="M5.82,10.93c-0.15,1.56-0.29,3.13-0.31,4.7C5.5,16.4,5.53,17.19,5.6,17.96c0.07,0.76,0.23,1.5,0.32,2.26
		c0.05,0.44,0.34,0.82,0.82,0.82c0.4,0,0.88-0.38,0.82-0.82c-0.09-0.75-0.25-1.5-0.32-2.26c-0.07-0.78-0.1-1.56-0.09-2.34
		c0.01-1.57,0.16-3.14,0.31-4.7c0.04-0.44-0.41-0.82-0.83-0.82C6.16,10.1,5.86,10.48,5.82,10.93L5.82,10.93z"/>
</g>
<g>
	<path class="st0" d="M10.8,11.32c-0.21,3.04,0.6,6.04,0.49,9.08c0.55,0,1.1,0,1.65,0c-0.06-0.96,0.08-1.88,0.32-2.81
		c0.23-0.88,0.48-1.79,0.82-2.63c0.53-1.3,1.69-2.34,3.15-2.41c0.65-0.03,1.35,0.11,1.83,0.58c0.48,0.47,0.56,1.2,0.61,1.84
		c0.13,1.93,0.17,3.87,0.17,5.8c0,1.06,1.65,1.06,1.65,0c0-1.77-0.04-3.55-0.14-5.32c-0.08-1.54-0.32-3.12-1.77-3.98
		c-1.28-0.76-2.89-0.69-4.21-0.11c-1.45,0.64-2.39,1.86-2.93,3.32c-0.67,1.8-1.26,3.8-1.14,5.73c0.06,1.06,1.61,1.07,1.65,0
		c0.11-3.04-0.7-6.04-0.49-9.08C12.52,10.26,10.87,10.26,10.8,11.32L10.8,11.32z"/>
</g>
<g>
	<path class="st0" d="M5.83,11.05c0.04,3.16-0.04,6.38,0.42,9.52c0.07,0.44,0.62,0.68,1.01,0.58c0.47-0.13,0.64-0.57,0.58-1.01
		c-0.22-1.47-0.25-2.96-0.28-4.45c-0.03-1.54-0.06-3.08-0.08-4.63C7.47,9.99,5.82,9.99,5.83,11.05L5.83,11.05z"/>
</g>
<g>
	<path class="st0" d="M6.79,6.96C6.7,7,6.6,7.03,6.5,7.05c0.07-0.01,0.15-0.02,0.22-0.03c-0.04,0.01-0.09,0.01-0.13,0
		c0.07,0.01,0.15,0.02,0.22,0.03C6.77,7.05,6.74,7.04,6.7,7.02c0.07,0.03,0.13,0.06,0.2,0.08C6.87,7.09,6.84,7.07,6.81,7.05
		C6.86,7.1,6.92,7.14,6.98,7.18C6.94,7.16,6.91,7.13,6.88,7.09C6.93,7.15,6.97,7.2,7.01,7.26c-0.04-0.05-0.07-0.1-0.09-0.15
		c0.03,0.07,0.06,0.13,0.08,0.2C6.98,7.23,6.96,7.15,6.95,7.08C6.96,7.15,6.97,7.22,6.98,7.3C6.96,7.14,6.95,6.97,6.97,6.81
		C6.96,6.88,6.95,6.96,6.94,7.03c0.01-0.07,0.03-0.13,0.05-0.2C6.97,6.9,6.94,6.96,6.91,7.03c0.02-0.04,0.04-0.08,0.07-0.11
		C6.94,6.97,6.89,7.03,6.85,7.08C6.87,7.06,6.9,7.03,6.92,7.01C6.87,7.05,6.81,7.1,6.76,7.14c0.04-0.03,0.08-0.05,0.12-0.07
		C6.81,7.1,6.75,7.12,6.68,7.15c0.04-0.02,0.09-0.03,0.14-0.04C6.74,7.13,6.67,7.14,6.6,7.15c0.05-0.01,0.11-0.01,0.16,0
		C6.69,7.14,6.61,7.13,6.54,7.12c0.05,0.01,0.09,0.02,0.14,0.04C6.61,7.13,6.55,7.1,6.48,7.07c0.05,0.02,0.1,0.05,0.15,0.09
		C6.57,7.11,6.52,7.07,6.46,7.03C6.5,7.06,6.54,7.1,6.58,7.15C6.54,7.09,6.49,7.04,6.45,6.98C6.5,7.04,6.53,7.1,6.56,7.17
		C6.53,7.1,6.51,7.04,6.48,6.97c0.03,0.08,0.05,0.16,0.07,0.24C6.53,7.14,6.52,7.06,6.51,6.99c0.01,0.11,0.01,0.21,0,0.31
		c0.01-0.07,0.02-0.15,0.03-0.22C6.53,7.19,6.5,7.29,6.47,7.39c-0.09,0.3,0,0.61,0.21,0.84c0.1,0.11,0.24,0.18,0.38,0.22
		C7.19,8.5,7.28,8.49,7.41,8.47C7.57,8.45,7.69,8.4,7.82,8.3c0.11-0.08,0.15-0.12,0.23-0.25c0.06-0.09,0.09-0.2,0.13-0.31
		c0.04-0.11,0.09-0.22,0.13-0.33c0.07-0.19,0.01-0.47-0.08-0.64C8.13,6.6,7.93,6.44,7.74,6.4C7.52,6.35,7.29,6.36,7.1,6.48
		C7.04,6.52,6.99,6.56,6.93,6.61c-0.1,0.1-0.17,0.22-0.21,0.36C6.67,7.11,6.61,7.25,6.56,7.39c0.03-0.07,0.06-0.13,0.08-0.2
		C6.64,7.21,6.63,7.22,6.62,7.23c0.04-0.06,0.09-0.11,0.13-0.17c0,0-0.01,0.01-0.01,0.01C6.86,7,6.98,6.93,7.1,6.86
		c0,0-0.01,0-0.01,0.01C7.16,6.86,7.23,6.85,7.3,6.84c-0.01,0-0.01,0-0.02,0c0.07,0.01,0.15,0.02,0.22,0.03c-0.01,0-0.01,0-0.02,0
		c0.07,0.03,0.13,0.06,0.2,0.08c0,0-0.01-0.01-0.01-0.01c0.1,0.1,0.2,0.2,0.3,0.3c0,0,0-0.01-0.01-0.01
		c0.03,0.21,0.06,0.42,0.08,0.64c0.08-0.23,0.12-0.47,0.12-0.71c0-0.29-0.07-0.55-0.19-0.81c-0.11-0.25-0.31-0.44-0.53-0.6
		C7.24,5.57,6.98,5.51,6.72,5.49C6.47,5.47,6.17,5.55,5.96,5.68C5.67,5.87,5.48,6.13,5.38,6.46C5.32,6.66,5.3,6.89,5.31,7.1
		c0.01,0.15,0.02,0.3,0.05,0.44c0.03,0.15,0.08,0.28,0.15,0.42c0.15,0.32,0.45,0.55,0.77,0.66c0.31,0.1,0.65,0.05,0.94-0.07
		c0.11-0.03,0.2-0.07,0.28-0.15C7.6,8.34,7.67,8.27,7.72,8.17c0.1-0.18,0.15-0.44,0.08-0.64c-0.06-0.2-0.19-0.39-0.38-0.49
		c-0.07-0.03-0.13-0.06-0.2-0.08C7.08,6.92,6.93,6.92,6.79,6.96L6.79,6.96z"/>
</g>
<g>
	<path class="st0" d="M21.68,20.75c0.05-2.19,0.44-4.46,0-6.62c-0.21-1.02-0.7-1.91-1.54-2.55c-0.67-0.51-1.52-1.03-2.39-1.03
		c-2.25-0.01-4.4,1.47-5.34,3.46c-0.93,1.96-1.04,4.2-0.91,6.34c0.07,1.05,1.72,1.06,1.65,0c-0.11-1.7-0.08-3.46,0.51-5.09
		c0.17-0.47,0.44-0.99,0.78-1.43c-0.07,0.1,0.14-0.15,0.17-0.19c0.08-0.09,0.17-0.18,0.26-0.26c0.08-0.07,0.16-0.14,0.24-0.21
		c0.03-0.03,0.16-0.12,0.03-0.02c0.06-0.04,0.11-0.08,0.17-0.12c0.18-0.12,0.37-0.23,0.57-0.33c0.05-0.02,0.28-0.13,0.19-0.09
		c-0.07,0.03,0.19-0.07,0.25-0.09c0.37-0.13,0.75-0.21,1.13-0.28c0.04-0.01,0.07-0.01,0.11-0.02c0.19-0.03-0.2,0.01-0.01,0
		c0.11,0,0.21-0.01,0.3,0c0.37,0.06,0.71,0.29,1.02,0.48c0.13,0.08,0.26,0.17,0.38,0.27c-0.14-0.11,0.13,0.13,0.18,0.18
		c0.32,0.33,0.49,0.73,0.6,1.17c0.25,1.02,0.2,2.1,0.16,3.14c-0.05,1.1-0.13,2.2-0.16,3.3C20,21.81,21.65,21.81,21.68,20.75
		L21.68,20.75z"/>
</g>
</svg>
