<svg width="34" height="46" viewBox="0 0 34 46" fill="none" xmlns="http://www.w3.org/2000/svg">
<g clip-path="url(#clip0_4598_13784)">
<path d="M17.0199 45.2699C19.7799 42.1399 23.0798 39.5099 25.6698 36.2699C28.178 32.9922 30.1061 29.3093 31.37 25.3803C32.73 21.3803 33.5301 17.1999 32.7401 12.9799C32.0401 9.16988 30.4898 5.37029 27.3798 2.90029C24.2698 0.430286 19.87 -0.159987 15.89 0.120013C11.9432 0.315975 8.21662 1.99869 5.45984 4.82997C-0.150165 10.7 -1.18991 20.31 1.22009 27.83C2.76071 32.0781 5.14141 35.9724 8.22009 39.2802C10.275 41.4783 12.5238 43.4865 14.9398 45.2802C16.4398 46.4802 18.5699 44.3701 17.0599 43.1601C15.5499 41.9501 13.9201 40.71 12.4701 39.35C9.84681 36.8384 7.61191 33.9502 5.83972 30.7802C2.38972 24.6602 1.94013 15.9302 5.51013 9.78017C7.0467 6.98097 9.55934 4.84521 12.5697 3.78017C16.2288 2.60076 20.1844 2.72786 23.7601 4.14003C26.9901 5.63003 28.6199 8.76995 29.4999 12.06C30.3849 15.7308 30.2045 19.5783 28.9799 23.1503C27.8781 27.1147 26.0578 30.8431 23.6097 34.1503C21.0397 37.4703 17.7098 40.0901 14.9398 43.2201C13.6298 44.5901 15.7399 46.7199 17.0199 45.2699Z" fill="#CDCDCD"/>
<path d="M13.5103 20C13.8303 20 13.1602 19.82 13.4302 20L13.1802 19.8501C13.3702 19.9801 13.1301 19.8503 13.0801 19.7603C13.0083 19.6918 12.9413 19.6181 12.8799 19.5401C12.7199 19.3601 12.9699 19.7003 12.8799 19.4903L12.73 19.2203C12.73 19.1303 12.73 19.1303 12.73 19.2203L12.6802 19.0703C12.4805 18.2803 12.5766 17.4444 12.9502 16.7203C13.3041 15.8673 13.8318 15.0974 14.5 14.46C14.7887 14.1686 15.1274 13.9318 15.5 13.7603C15.6411 13.69 15.7883 13.6332 15.94 13.5904L16.2701 13.5103C16.3801 13.5103 16.3801 13.5103 16.2701 13.5103H16.44C16.7883 13.4678 17.1418 13.5042 17.4742 13.6167C17.8065 13.7293 18.1091 13.9148 18.3599 14.1602C18.5335 14.3271 18.6973 14.5044 18.8501 14.6905C19.0201 14.8905 18.7602 14.5503 18.9102 14.7603C19.0602 14.9703 19.0399 14.9403 19.0899 15.0303C19.3723 15.4423 19.6137 15.8811 19.8101 16.3404C20.1993 17.2055 20.3643 18.1544 20.2901 19.1001C20.2011 19.8056 19.8892 20.4641 19.3999 20.98C19.1514 21.2536 18.8283 21.4484 18.4703 21.5401C18.0614 21.6592 17.6316 21.6902 17.21 21.6304C16.1745 21.4454 15.186 21.0579 14.3003 20.4903C14.1303 20.3905 13.9419 20.325 13.7466 20.2979C13.5513 20.2708 13.3525 20.2824 13.1617 20.3321C12.9708 20.3817 12.7916 20.4685 12.6343 20.5874C12.477 20.7064 12.345 20.8554 12.2452 21.0254C12.1454 21.1955 12.0799 21.3833 12.0528 21.5787C12.0256 21.774 12.0373 21.9728 12.087 22.1636C12.1366 22.3544 12.2234 22.5337 12.3423 22.691C12.4612 22.8482 12.6103 22.9803 12.7803 23.0801C15.2303 24.5101 18.4702 25.4601 20.9502 23.5801C23.4302 21.7001 23.8003 18.4303 22.7803 15.7203C21.7603 13.0103 19.7803 10.5303 16.7803 10.4903C13.7803 10.4503 11.4801 12.7 10.3101 15.23C9.89592 15.9877 9.64042 16.822 9.55961 17.6817C9.4788 18.5414 9.57415 19.4084 9.83988 20.23C10.1199 21.0032 10.6117 21.6826 11.2588 22.19C11.9059 22.6974 12.6824 23.0125 13.5 23.1001C13.8971 23.0975 14.2769 22.939 14.5577 22.6582C14.8384 22.3775 14.9974 21.9972 15 21.6001C14.9924 21.2047 14.8319 20.8275 14.5523 20.5479C14.2726 20.2682 13.8955 20.1078 13.5 20.1001L13.5103 20Z" fill="#CDCDCD"/>
</g>
<defs>
<clipPath id="clip0_4598_13784">
<rect width="33.05" height="45.76" fill="white"/>
</clipPath>
</defs>
</svg>
