<svg width="134" height="199" viewBox="0 0 134 199" fill="none" xmlns="http://www.w3.org/2000/svg">
<g clip-path="url(#clip0_4499_13828)">
<path d="M61.6528 118.38H3.93713V0H61.6528V56.571H33.87C34.8093 59.5695 36.0675 62.4589 37.6229 65.1898C42.526 73.7359 49.5457 78.8514 58.4921 80.4022L61.6528 80.96V118.38ZM11.5543 110.771H54.03V87.2525C29.8268 80.9266 25.2643 53.6814 25.2196 53.3969L24.5327 49.0011H54.03V7.60901H11.5543V110.771Z" fill="#303466"/>
<path d="M129.716 118.391H72V99.1346L75.1608 98.5768C91.0933 95.8154 97.4988 81.9697 99.7829 74.7512H72V0H129.716V118.391ZM79.6228 110.782H122.098V7.62016H79.6228V67.1813H109.126L108.433 71.5715C108.389 71.8616 103.826 99.1011 79.6228 105.433V110.782Z" fill="#303466"/>
<path d="M90.977 110.771H51.0535V118.38H90.977V110.771Z" fill="#303466"/>
<path d="M90.977 0H51.0535V7.609H90.977V0Z" fill="#303466"/>
<path d="M9.56611 143.885C8.35986 146.418 7.75674 148.649 7.75674 150.579C7.75674 150.769 7.75674 150.964 7.75674 151.17C7.77487 151.427 7.81042 151.683 7.86294 151.935C7.96414 152.543 8.16398 153.131 8.4548 153.675C9.25897 155.109 10.5938 155.823 12.4757 155.823H16.7758C18.9277 155.823 20.4391 155.538 21.3103 154.969C21.7459 154.679 21.9694 154.411 21.9806 154.11C20.0858 153.101 18.0363 152.413 15.9157 152.074V147.405H38.7786V152.52H26.4034C26.6577 152.992 26.7756 153.525 26.744 154.06C26.744 154.3 26.744 154.54 26.744 154.774C26.7023 155.1 26.6389 155.422 26.5542 155.739C26.3379 156.581 25.933 157.363 25.3703 158.026C23.7396 159.949 20.8933 160.91 16.8315 160.91H12.5315C9.07657 160.91 6.47047 159.702 4.71321 157.284C3.33079 155.33 2.61426 152.983 2.66934 150.59C2.71006 148.494 3.1047 146.419 3.83654 144.454C4.16116 143.519 4.55302 142.61 5.00921 141.732L9.56611 143.885Z" fill="#303466"/>
<path d="M53.8904 141.442C54.3963 142.26 54.7731 143.152 55.0073 144.086C55.2075 144.87 55.3125 145.675 55.32 146.484C55.32 149.006 54.6852 150.895 53.4156 152.152C52.9398 152.635 52.3695 153.015 51.7403 153.268C51.2376 153.47 50.7061 153.59 50.1655 153.625C50.065 153.625 49.9198 153.625 49.7299 153.625C48.2964 153.596 46.8847 153.267 45.5861 152.66C45.0362 152.429 44.501 152.164 43.9835 151.868L43.6372 151.684L43.3301 151.511C43.09 151.366 42.9168 151.265 42.8107 151.215C41.9618 152.067 40.5453 152.492 38.5609 152.492H37.6953V147.388H38.3319C39.3818 147.388 40.0744 147.171 40.4094 146.736C40.7707 145.985 41.0623 145.202 41.2805 144.398C41.2805 144.303 41.342 144.22 41.3755 144.136C41.4065 144.017 41.4476 143.902 41.4984 143.79C41.5992 143.504 41.7185 143.224 41.8557 142.953C42.1848 142.234 42.6032 141.56 43.1011 140.945C43.7203 140.142 44.519 139.494 45.4333 139.053C46.3476 138.612 47.3523 138.391 48.3673 138.407C49.4765 138.367 50.5757 138.628 51.5482 139.163C52.5206 139.697 53.3301 140.485 53.8904 141.442ZM50.3609 148.058C50.5027 147.668 50.5727 147.256 50.5676 146.841C50.5676 146.73 50.5676 146.618 50.5676 146.501C50.5351 145.759 50.2909 145.04 49.864 144.432C49.7104 144.173 49.4946 143.956 49.2362 143.801C48.9779 143.646 48.685 143.558 48.384 143.545C47.6189 143.545 46.9823 144.002 46.4853 144.917C46.2824 145.281 46.1195 145.667 45.9995 146.066C45.9493 146.211 45.8934 146.39 45.832 146.624L45.7705 146.858L45.7035 147.059C46.3896 147.623 47.1704 148.062 48.0099 148.353C48.599 148.584 49.2211 148.719 49.8528 148.755C50.0203 148.71 50.199 148.487 50.3609 148.058Z" fill="#303466"/>
<path d="M65.6178 134.608L65.8971 135.015C65.9641 135.11 66.02 135.188 66.0702 135.249C66.1424 135.35 66.2094 135.454 66.2712 135.562C66.4499 135.807 66.6342 136.07 66.8296 136.337C67.3397 137.081 67.8981 137.896 68.505 138.781L71.152 142.529C71.8669 143.525 72.3079 144.691 72.4309 145.91C72.4532 146.116 72.4644 146.322 72.4644 146.529C72.4702 147.499 72.2403 148.456 71.7943 149.318C71.2619 150.347 70.4385 151.197 69.4265 151.762C68.3615 152.359 67.1575 152.665 65.9362 152.649C63.9567 152.575 61.9935 152.262 60.0892 151.717C59.3744 151.527 58.654 151.321 57.928 151.092C57.699 151.031 57.4813 150.964 57.269 150.891C57.209 150.871 57.1473 150.856 57.0847 150.847L57.04 150.813H57.0066L58.6428 145.971C59.0393 146.105 59.4972 146.25 60.0278 146.406C60.6811 146.596 61.3289 146.769 61.96 146.92C63.2576 147.277 64.5915 147.486 65.9362 147.544C66.1869 147.583 66.4433 147.551 66.6771 147.453C66.9108 147.354 67.1125 147.193 67.2597 146.987C67.3314 146.841 67.3678 146.68 67.3657 146.518C67.3413 146.15 67.2071 145.799 66.9804 145.508L64.3278 141.743L62.6134 139.299C61.7814 138.122 61.368 137.531 61.368 137.52L65.6178 134.608Z" fill="#303466"/>
<path d="M83.4156 152.52H82.0139C80.9494 152.539 79.8929 152.332 78.9145 151.912C77.5367 151.332 76.4405 150.237 75.8598 148.861C75.4398 147.884 75.2323 146.828 75.251 145.765V130.067H80.3442V145.754C80.2929 146.219 80.4228 146.687 80.7071 147.059C81.0838 147.334 81.5503 147.457 82.0139 147.405H83.4156V152.52Z" fill="#303466"/>
<path d="M90.3013 147.405C90.7257 147.405 90.938 147.6 90.938 147.996V151.901C90.9494 151.987 90.9405 152.074 90.9124 152.156C90.8842 152.238 90.8375 152.312 90.7758 152.372C90.714 152.433 90.639 152.478 90.5567 152.505C90.4743 152.532 90.3869 152.539 90.3013 152.526H83.7842C83.6999 152.536 83.6145 152.527 83.5343 152.499C83.4542 152.471 83.3814 152.425 83.3216 152.365C83.2619 152.304 83.2166 152.231 83.1894 152.151C83.1621 152.071 83.1535 151.985 83.1643 151.901V147.996C83.1643 147.6 83.371 147.405 83.7842 147.405H90.3013Z" fill="#303466"/>
<path d="M97.2931 147.405C97.7175 147.405 97.9354 147.6 97.9354 147.996V151.901C97.947 151.987 97.9381 152.075 97.9096 152.157C97.8812 152.24 97.8339 152.314 97.7715 152.375C97.7091 152.436 97.6333 152.481 97.5502 152.507C97.4672 152.533 97.3791 152.54 97.2931 152.526H90.7816C90.6969 152.537 90.6107 152.528 90.5298 152.501C90.4489 152.473 90.3755 152.428 90.3151 152.367C90.2547 152.307 90.2089 152.233 90.1813 152.153C90.1538 152.072 90.1451 151.986 90.1561 151.901V147.996C90.1561 147.6 90.3684 147.405 90.7816 147.405H97.2931Z" fill="#303466"/>
<path d="M116.085 131.841L105.877 136.477C106.77 137.358 108.023 138.66 109.635 140.382C110.826 141.593 111.811 142.991 112.55 144.521C112.907 145.33 113.097 146.203 113.108 147.087V147.215C113.097 148.456 112.605 149.644 111.735 150.529C111.14 151.117 110.429 151.573 109.646 151.868C108.282 152.347 106.842 152.574 105.396 152.537H97.1367V147.433H105.396C107.005 147.433 107.965 147.344 108.278 147.165C108.239 147.026 108.186 146.892 108.122 146.763C108.015 146.563 107.876 146.339 107.703 146.077C107.166 145.282 106.56 144.536 105.893 143.846C104.084 141.927 102.515 140.324 101.185 139.037C100.957 138.82 100.739 138.613 100.532 138.429C100.326 138.245 100.225 138.134 100.08 138.011C100.032 137.958 99.9795 137.91 99.9234 137.866L99.8173 137.76L99.767 137.726V137.698H99.7336L100.325 133.431L113.957 127.211L116.085 131.841Z" fill="#303466"/>
<path d="M131.37 130.112H123.736C123.121 130.112 122.619 130.112 122.183 130.168C121.811 130.189 121.447 130.284 121.111 130.446C120.814 130.597 120.562 130.822 120.379 131.099C120.149 131.464 119.972 131.861 119.855 132.276L116.956 131.417C117.18 130.591 117.559 129.815 118.073 129.13C118.524 128.552 119.096 128.08 119.748 127.746C120.321 127.464 120.936 127.276 121.569 127.189C122.287 127.095 123.011 127.051 123.736 127.055H131.37V130.112ZM127.243 152.52H122.133V132.354H127.243V152.52Z" fill="#303466"/>
<path d="M10.2922 188.886C10.2922 191.835 9.54762 194.152 8.05842 195.837C6.39796 197.715 3.97801 198.656 0.79857 198.66H0.00561523V194.007H0.79857C2.54093 194.007 3.78078 193.611 4.51793 192.83C5.25509 192.049 5.63483 190.727 5.63483 188.886V181.238H10.2922V188.886Z" fill="#303466"/>
<path d="M16.4743 191.196H11.8168V170.74H16.4743V191.196Z" fill="#303466"/>
<path d="M25.8786 175.52C26.1243 175.894 26.4371 176.391 26.8726 176.993C27.9895 178.652 29.3205 180.647 30.8655 182.979C30.9493 183.113 31.0386 183.246 31.1336 183.375C31.2285 183.503 31.3736 183.721 31.4853 183.888C31.8204 184.34 32.1332 184.741 32.4236 185.082C33.2576 186.06 33.8979 186.549 34.3446 186.549H35.3387V191.19H33.9873C32.5016 191.152 31.0853 190.554 30.0222 189.517C29.623 189.951 29.1528 190.315 28.6317 190.593C27.6351 191.153 26.5077 191.437 25.3647 191.419C23.6887 191.375 22.0224 191.15 20.3946 190.749C19.7691 190.61 19.1492 190.454 18.5237 190.281L17.9375 190.114L17.7699 190.069H17.714L19.0878 185.606L20.2047 185.935C20.7631 186.075 21.3216 186.203 21.8354 186.315C22.9949 186.589 24.1792 186.746 25.3703 186.783C25.6411 186.821 25.9171 186.781 26.1661 186.669C26.4152 186.556 26.6272 186.375 26.7776 186.147C26.8537 186.023 26.8943 185.88 26.8949 185.734C26.8775 185.441 26.7726 185.159 26.5934 184.926C25.7595 183.698 24.9887 182.555 24.2814 181.495L22.7568 179.263L21.6399 177.59L25.5491 175.052L25.8786 175.52Z" fill="#303466"/>
<path d="M35.1599 186.549C35.7808 186.599 36.4037 186.481 36.9637 186.209C37.1444 186.105 37.2926 185.953 37.3913 185.769C37.49 185.586 37.5353 185.379 37.5222 185.171C37.5213 185.015 37.5026 184.86 37.4664 184.708C37.3715 184.223 37.2765 183.732 37.1816 183.23C37.1425 183.04 37.1089 182.839 37.0698 182.622L37.014 182.348L36.9693 182.081C36.8297 181.305 36.7181 180.753 36.6399 180.407L41.1075 179.057C41.3904 180.388 41.7125 182.029 42.0736 183.977C42.1495 184.408 42.1887 184.845 42.1909 185.283C42.2042 186.528 41.8122 187.743 41.074 188.747C39.89 190.37 37.9242 191.173 35.2548 191.173L35.1599 186.549ZM32.7697 198.989C32.2782 198.988 31.7978 198.843 31.3893 198.569C30.9808 198.296 30.6626 197.908 30.4749 197.454C30.2872 197.001 30.2383 196.501 30.3347 196.02C30.4311 195.538 30.6683 195.096 31.0163 194.749C31.4821 194.283 32.1142 194.021 32.7734 194.021C33.4327 194.02 34.0651 194.281 34.5317 194.746C34.9982 195.212 35.2607 195.843 35.2612 196.502C35.2618 197.16 35.0003 197.792 34.5345 198.258C34.3072 198.496 34.033 198.684 33.7293 198.811C33.4256 198.937 33.0988 199 32.7697 198.994V198.989ZM38.7341 198.989C38.2416 198.991 37.7595 198.846 37.3493 198.574C36.9391 198.302 36.619 197.914 36.4299 197.459C36.2408 197.005 36.1912 196.505 36.2872 196.022C36.3832 195.54 36.6206 195.097 36.9693 194.749C37.4369 194.285 38.0694 194.025 38.7285 194.025C39.3876 194.025 40.0199 194.285 40.4876 194.749C40.8328 195.097 41.0676 195.539 41.1624 196.02C41.2573 196.5 41.208 196.998 41.0208 197.451C40.8335 197.904 40.5166 198.291 40.1098 198.565C39.703 198.838 39.2245 198.986 38.7341 198.989Z" fill="#303466"/>
<path d="M50.5677 174.455L50.8245 174.823C50.8804 174.907 50.9363 174.979 50.9809 175.035C51.0256 175.091 51.1094 175.225 51.1653 175.319C51.3272 175.543 51.4947 175.783 51.679 176.028L53.2259 178.259L55.6383 181.679C56.2919 182.585 56.6946 183.647 56.8055 184.758C56.8055 184.948 56.8335 185.138 56.8335 185.316C56.8343 186.193 56.6255 187.057 56.2247 187.838C55.7399 188.778 54.9881 189.554 54.0636 190.069C53.0919 190.613 51.9942 190.892 50.8804 190.878C49.0783 190.811 47.291 190.524 45.5584 190.024C44.905 189.851 44.246 189.667 43.5815 189.466C43.3748 189.411 43.1738 189.349 42.9839 189.282L42.8163 189.243L42.7717 189.21H42.7214L44.2125 184.803C44.5754 184.926 44.9943 185.054 45.4746 185.199C46.0721 185.366 46.6586 185.522 47.2393 185.668C48.4208 185.988 49.6347 186.176 50.8581 186.225C51.0881 186.26 51.3232 186.229 51.5365 186.136C51.7498 186.043 51.9327 185.893 52.0643 185.701C52.1315 185.57 52.1659 185.424 52.1648 185.277C52.1426 184.942 52.0201 184.621 51.813 184.357C50.9418 183.118 50.1376 181.969 49.3949 180.92C48.8364 180.128 48.3171 179.384 47.8368 178.689C47.0773 177.623 46.7199 177.082 46.7199 177.071L50.5677 174.455Z" fill="#303466"/>
<path d="M93.7414 182.934C93.8366 183.351 93.8834 183.778 93.881 184.206C93.8795 184.58 93.8458 184.953 93.7804 185.322C93.6327 186.178 93.3095 186.995 92.831 187.72C92.3143 188.551 91.5858 189.229 90.7203 189.686C89.8549 190.143 88.8834 190.362 87.9055 190.32C86.9743 190.331 86.0478 190.188 85.1635 189.896C84.7839 189.551 84.3374 189.288 83.8517 189.122C83.3659 188.956 82.8513 188.892 82.3398 188.934C81.8282 188.975 81.3306 189.121 80.8778 189.362C80.425 189.604 80.0267 189.935 79.7075 190.337C78.9707 190.343 78.2363 190.251 77.524 190.063C77.5402 191.967 76.8858 193.815 75.6755 195.285C74.8671 196.215 73.8296 196.919 72.6655 197.326C71.3168 197.781 69.9003 198.002 68.4771 197.979H67.5165C66.0564 197.998 64.6155 197.646 63.3281 196.958C62.078 196.297 61.0287 195.313 60.2902 194.108C59.7662 193.246 59.3888 192.303 59.1733 191.318C58.9862 190.47 58.8944 189.604 58.8996 188.736C58.8996 188.507 58.8996 188.284 58.8996 188.055C59.1215 185.401 59.8815 182.82 61.1334 180.468L65.2938 182.521C64.3352 184.322 63.7412 186.293 63.546 188.323C63.546 188.496 63.546 188.663 63.546 188.819C63.5056 189.814 63.7518 190.8 64.2552 191.659C64.6239 192.264 65.1752 192.737 65.8299 193.009C66.3605 193.23 66.9306 193.34 67.5053 193.332H68.4659C70.2418 193.332 71.4424 193.042 72.0567 192.451C72.6152 191.943 72.8665 190.995 72.8665 189.617V180.519H77.5128V183.966C77.5128 185.082 78.1382 185.64 79.3835 185.64C79.8167 185.663 80.2477 185.561 80.6234 185.344C80.8435 185.186 81.0182 184.973 81.1299 184.726C81.2416 184.479 81.2865 184.208 81.26 183.938V180.491H85.9175V183.938C85.8765 184.38 85.9931 184.823 86.2469 185.188C86.4342 185.359 86.6564 185.489 86.8983 185.567C87.1402 185.645 87.3962 185.67 87.6486 185.64C88.732 185.64 89.2682 185.266 89.2682 184.524C89.2672 184.336 89.2447 184.149 89.2011 183.966C88.6613 181.735 88.3095 180.247 88.1457 179.503L92.6635 178.421C92.9464 179.585 93.3058 181.089 93.7414 182.934ZM80.4055 176.904C79.8292 176.905 79.2704 176.706 78.8244 176.342C78.3783 175.977 78.0726 175.469 77.9593 174.905C77.846 174.34 77.9322 173.754 78.2031 173.246C78.474 172.738 78.9129 172.34 79.445 172.119C79.9771 171.897 80.5695 171.868 81.1212 172.034C81.6729 172.2 82.1497 172.553 82.4705 173.031C82.7913 173.509 82.9362 174.084 82.8804 174.657C82.8246 175.23 82.5716 175.765 82.1646 176.173C81.937 176.409 81.6636 176.595 81.361 176.721C81.0584 176.846 80.7332 176.909 80.4055 176.904ZM83.4882 172.045C83.0556 172.043 82.6332 171.913 82.2741 171.672C81.915 171.431 81.6352 171.09 81.4699 170.69C81.3046 170.291 81.2612 169.852 81.345 169.428C81.4289 169.004 81.6363 168.614 81.9413 168.307C82.1399 168.098 82.3801 167.932 82.6464 167.821C82.9128 167.71 83.1995 167.655 83.4882 167.66C83.9229 167.659 84.3482 167.787 84.7102 168.027C85.0722 168.268 85.3545 168.61 85.5214 169.011C85.6883 169.412 85.7323 169.853 85.6477 170.279C85.5631 170.705 85.3538 171.096 85.0463 171.403C84.8434 171.61 84.6007 171.773 84.3329 171.883C84.0652 171.994 83.7778 172.049 83.4882 172.045ZM86.6434 176.881C86.3146 176.882 85.989 176.818 85.6852 176.693C85.3813 176.567 85.1052 176.383 84.8727 176.151C84.6402 175.919 84.456 175.643 84.3305 175.34C84.205 175.036 84.1408 174.711 84.1415 174.382C84.1374 174.056 84.2003 173.732 84.3261 173.431C84.4519 173.13 84.638 172.857 84.8731 172.631C85.103 172.395 85.3786 172.209 85.683 172.083C85.9874 171.958 86.3141 171.895 86.6434 171.9C87.2843 171.93 87.889 172.206 88.3318 172.67C88.7746 173.133 89.0217 173.75 89.0217 174.391C89.0217 175.032 88.7746 175.648 88.3318 176.112C87.889 176.576 87.2843 176.851 86.6434 176.881Z" fill="#303466"/>
<path d="M106.424 179.029C107.597 180.501 108.207 182.342 108.144 184.223V189.427C108.144 192.719 106.785 195.069 104.067 196.479C102.888 197.069 101.623 197.471 100.32 197.672C99.0982 197.876 97.8615 197.975 96.6229 197.968V193.316C98.9908 193.316 100.772 192.985 101.967 192.323C102.935 191.791 103.417 191.125 103.414 190.326H101.426C99.8769 190.371 98.3586 189.889 97.1199 188.959C95.6903 187.865 94.9755 186.287 94.9755 184.223C94.9206 182.455 95.4183 180.714 96.3996 179.241C96.9537 178.431 97.7068 177.776 98.5868 177.339C99.4668 176.902 100.444 176.699 101.426 176.748C102.379 176.711 103.328 176.898 104.196 177.295C105.064 177.691 105.827 178.285 106.424 179.029ZM103.486 185.684V184.223C103.524 183.491 103.328 182.767 102.928 182.153C102.759 181.913 102.532 181.718 102.269 181.586C102.006 181.455 101.714 181.391 101.42 181.4C101.122 181.391 100.826 181.454 100.558 181.586C100.291 181.717 100.059 181.912 99.8843 182.153C99.5162 182.68 99.3317 183.313 99.3593 183.955C99.3541 184.044 99.3541 184.134 99.3593 184.223C99.3662 184.45 99.4309 184.671 99.5472 184.866C99.6634 185.062 99.8275 185.224 100.024 185.338C100.445 185.572 100.922 185.685 101.403 185.667L103.486 185.684Z" fill="#303466"/>
<path d="M118.816 180.507V184.379C118.82 184.583 118.881 184.782 118.992 184.954C119.102 185.127 119.257 185.265 119.441 185.355C119.738 185.555 120.088 185.664 120.446 185.667H121.1V190.326H120.446C119.854 190.317 119.265 190.225 118.698 190.052C118.525 191.913 117.786 193.676 116.582 195.106C114.929 196.984 112.509 197.925 109.322 197.929H108.674V193.271H109.322C111.064 193.271 112.306 192.879 113.047 192.094C113.788 191.309 114.16 189.995 114.164 188.15V180.507H118.816Z" fill="#303466"/>
<path d="M132.693 176.022C133.564 177.696 134 179.866 134 182.532C134 185.4 132.902 187.505 130.705 188.847C128.886 189.882 126.816 190.394 124.724 190.326H121.027V185.667H124.724C125.904 185.71 127.083 185.605 128.237 185.355C126.365 185.436 124.513 184.952 122.92 183.966C122.126 183.433 121.483 182.703 121.055 181.847C120.628 180.992 120.429 180.04 120.48 179.085C120.482 178.434 120.573 177.787 120.748 177.16C120.951 176.399 121.293 175.682 121.759 175.046C122.92 173.434 124.696 172.631 127.07 172.631C128.238 172.574 129.398 172.866 130.399 173.47C131.401 174.074 132.2 174.963 132.693 176.022ZM126.064 170.589C125.465 170.588 124.885 170.379 124.422 169.999C123.959 169.619 123.643 169.09 123.527 168.502C123.411 167.915 123.502 167.306 123.785 166.778C124.068 166.251 124.525 165.837 125.079 165.608C125.633 165.38 126.249 165.35 126.822 165.524C127.396 165.698 127.891 166.065 128.224 166.563C128.557 167.061 128.706 167.658 128.648 168.254C128.589 168.85 128.325 169.407 127.902 169.83C127.663 170.075 127.378 170.269 127.062 170.399C126.746 170.53 126.406 170.594 126.064 170.589ZM129.443 180.758L129.415 180.435C129.415 180.201 129.359 179.989 129.326 179.799C129.269 179.365 129.161 178.94 129.002 178.533C128.865 178.125 128.61 177.767 128.269 177.505C127.928 177.242 127.516 177.088 127.086 177.06H126.941H126.813C126.544 177.047 126.275 177.091 126.023 177.187C125.771 177.283 125.542 177.429 125.35 177.618C125.026 177.97 124.854 178.435 124.869 178.912V179.04C124.862 179.452 124.996 179.853 125.249 180.178C125.502 180.503 125.859 180.731 126.26 180.825C127.315 181.044 128.394 181.131 129.471 181.082L129.443 180.758Z" fill="#303466"/>
</g>
<defs>
<clipPath id="clip0_4499_13828">
<rect width="134" height="199" fill="white"/>
</clipPath>
</defs>
</svg>
