<?xml version="1.0" encoding="utf-8"?>
<!-- Generator: Adobe Illustrator 25.4.0, SVG Export Plug-In . SVG Version: 6.00 Build 0)  -->
<svg version="1.1" id="Layer_1" xmlns="http://www.w3.org/2000/svg" xmlns:xlink="http://www.w3.org/1999/xlink" x="0px" y="0px"
	 viewBox="0 0 27 27" style="enable-background:new 0 0 27 27;" xml:space="preserve">
<style type="text/css">
	.st0{fill:#CACACA;}
</style>
<g>
	<path class="st0" d="M24.09,7.8c-0.05,2.32-0.13,4.64-0.21,6.95c-0.04,1.12-0.08,2.25-0.12,3.37c-0.03,0.96,0.18,2.34-1.01,2.6
		c-0.97,0.21-2.11,0.07-3.1,0.08c-1.22,0.01-2.43,0.02-3.65,0.04c-2.27,0.02-4.53,0.06-6.8,0.06c-1.12,0-2.25-0.01-3.37-0.16
		c-1.01-0.13-2.59-0.21-2.78-1.43C2.89,18.27,3.02,17.09,3,16.03c-0.02-1.19-0.03-2.38-0.05-3.57c-0.01-1.04-0.03-2.08-0.04-3.12
		C2.9,8.33,2.5,6.73,3.72,6.38C5.61,5.84,7.95,6.09,9.9,6.09c2.59,0,5.18,0,7.77,0.01c1.26,0,2.52,0,3.78,0
		c0.56,0,1.13-0.04,1.69,0.01C24.16,6.18,24.15,7,24.09,7.8c-0.09,1.06,1.56,1.05,1.65,0c0.08-0.94,0.04-2-0.69-2.69
		c-0.83-0.78-2.1-0.66-3.14-0.66c-2.97,0-5.94,0-8.9-0.01c-2.87,0-5.78-0.12-8.64,0.18C3.5,4.71,2.57,4.86,1.93,5.48
		c-0.82,0.79-0.7,1.92-0.68,2.96c0.04,2.98,0.08,5.95,0.12,8.93c0.01,1.03-0.18,2.35,0.35,3.29c0.51,0.9,1.55,1.25,2.5,1.47
		c2.79,0.64,5.75,0.41,8.59,0.39c3.04-0.03,6.08-0.02,9.12-0.09c1.04-0.02,2.11-0.15,2.81-1.02c0.72-0.91,0.64-2.19,0.68-3.29
		c0.12-3.44,0.26-6.88,0.33-10.32C25.76,6.74,24.11,6.74,24.09,7.8L24.09,7.8z"/>
</g>
<g>
	<path class="st0" d="M3.27,7.32c3.11,3.38,6.21,6.77,9.75,9.71c0.33,0.28,0.84,0.35,1.17,0c3.26-3.57,7.15-6.52,10.33-10.18
		c0.69-0.8-0.47-1.97-1.17-1.17c-3.18,3.66-7.07,6.61-10.33,10.18c0.39,0,0.78,0,1.17,0c-3.54-2.94-6.64-6.34-9.75-9.71
		C3.71,5.37,2.55,6.54,3.27,7.32L3.27,7.32z"/>
</g>
</svg>
