<svg width="26" height="23" viewBox="0 0 26 23" fill="none" xmlns="http://www.w3.org/2000/svg">
<path d="M5.90943 13.8324C5.86275 15.1758 5.816 16.5213 5.76918 17.8687C5.72835 19.0437 5.31029 20.9004 6.68772 21.4298C7.31846 21.6116 7.97609 21.6819 8.631 21.6375L14.6641 21.8472C15.9304 21.8912 17.236 22.0341 18.5056 21.9807C20.2336 21.8944 19.9759 19.8375 20.0187 18.6077C20.0411 17.9624 20.0635 17.3171 20.0861 16.6656C20.1317 15.9705 20.1193 15.2728 20.0489 14.5798C19.7907 13.0652 18.2752 13.0004 16.9915 12.9314C13.9499 12.7587 10.9014 12.7807 7.89861 12.7191C6.33401 12.6647 6.2433 15.0997 7.81399 15.1542L13.2226 15.269L15.7989 15.3281C16.2433 15.3435 16.6877 15.359 17.1321 15.3744C17.3513 15.382 17.5766 15.3898 17.7944 15.434L18.0136 15.4416C18.1232 15.4454 18.0867 15.4442 17.9003 15.3706L17.6023 14.8239C17.6828 15.2442 17.7007 15.6741 17.6555 16.0996C17.6382 16.5989 17.621 17.092 17.6343 17.5862C17.6003 18.5663 17.6262 19.573 17.5313 20.551L17.7229 19.9481L17.6771 20.038L18.1246 19.6147L18.019 19.6719L18.6335 19.5287C17.7484 19.565 16.8376 19.4663 15.9487 19.4354L7.74218 19.1502C7.40862 19.1021 7.42561 19.1393 7.80407 19.2987L8.09573 19.8513C8.08014 19.4043 8.09569 18.9568 8.14227 18.5119C8.15962 18.0127 8.17696 17.5135 8.19431 17.0143C8.23048 15.9733 8.26666 14.9323 8.30262 13.8973C8.3572 12.3266 5.92202 12.242 5.86745 13.8127L5.90943 13.8324Z" fill="#CDCDCD"/>
<path d="M6.30827 15.1527L4.35404 15.0848L3.00861 15.038C3.20062 15.3007 3.26589 15.3517 3.21073 15.1853C3.28611 15.1208 3.19853 14.4839 3.19541 14.3984L3.18245 13.3679L3.13363 11.4401C3.12435 10.8302 3.08001 10.1765 3.12006 9.55004C3.13487 9.12388 3.09374 9.0798 3.46197 9.00727C4.71167 8.79908 5.97789 8.70637 7.24458 8.73031C9.89013 8.72472 12.5421 8.88392 15.1589 9.00533L22.6227 9.26468C22.8358 9.27209 22.8662 9.27314 22.7123 9.31655L22.2892 8.86299C22.5147 9.37868 22.6203 9.93879 22.598 10.5012C22.6665 11.1618 22.7104 11.8278 22.7422 12.4932C22.7739 13.1587 22.7741 13.8536 22.7628 14.5298C22.8245 15.1218 22.7872 15.7199 22.6526 16.2997L22.9816 15.7747L22.8626 15.8681L23.4152 15.5765C22.3285 15.9776 20.8584 15.8351 19.7517 15.76L20.2818 18.0459C21.7471 17.2739 22.9874 16.3113 23.321 14.604C23.6546 12.8968 23.3238 11.014 22.9882 9.27128C22.9264 9.01151 22.781 8.77924 22.5744 8.61017C22.3677 8.4411 22.1112 8.3446 21.8443 8.33553L11.2757 7.96828L6.13745 7.78973C5.39472 7.76392 4.5162 7.6115 3.81642 7.92852C3.4793 8.10164 3.18998 8.35508 2.974 8.66648C2.75801 8.97788 2.62201 9.33767 2.57798 9.71407C2.25407 11.3088 2.25291 12.9523 2.5746 14.5475C2.72094 15.2475 2.96067 16.0665 3.73253 16.3066C4.10029 16.4125 4.49352 16.3863 4.84399 16.2326C5.19446 16.0789 5.48008 15.8073 5.65131 15.4651C5.96993 14.7575 6.13573 13.9906 6.1379 13.2146C6.15905 12.6058 6.0105 12.3202 6.61283 12.1766C7.30114 12.0653 7.99897 12.0242 8.69559 12.0539C9.59851 12.0304 10.5251 12.026 11.4148 12.0326C13.3283 12.0442 15.24 12.1106 17.1572 12.1894L18.667 12.2419C18.8691 12.2645 19.0727 12.2716 19.2758 12.2631C19.6203 12.3482 19.6716 12.2768 19.4266 12.1342C19.1817 11.9916 19.2075 11.9498 19.343 12.2593C19.3293 12.655 19.5164 13.0577 19.532 13.4849C19.5524 13.9841 19.5146 14.4839 19.4193 14.9744L21.6516 14.7594C21.1189 13.4243 20.4127 11.2969 18.7811 11.0634C17.0635 10.9031 15.3388 10.831 13.6137 10.8473L8.40247 10.6662C7.62931 10.6393 6.66661 10.4535 5.95884 10.8251C5.65926 11.0067 5.40146 11.2496 5.20237 11.5379C5.00327 11.8261 4.86736 12.1532 4.80356 12.4977C4.40345 14.0137 6.73075 14.7468 7.12499 13.2245C7.12901 13.1088 7.18803 12.9889 7.22858 12.8745C7.26913 12.7601 7.23133 12.7954 6.97871 13.0487L18.3023 13.4422C18.5397 13.4505 18.5762 13.4517 18.4058 13.4458C18.2353 13.4399 18.2414 13.4401 18.4408 13.6664C18.5327 13.8281 18.6246 13.9898 18.7104 14.1512C19.0075 14.7223 19.2796 15.3108 19.5148 15.9103C19.8906 16.8498 21.5419 16.6878 21.7471 15.6953C22.0914 14.031 22.3864 10.4512 20.1737 9.92931C19.0059 9.75736 17.8249 9.69183 16.6452 9.73354C15.3911 9.68996 14.1309 9.64617 12.8707 9.60238C11.6105 9.55859 10.4334 9.57865 9.24416 9.59828C8.17956 9.55851 7.11363 9.62355 6.06177 9.79246C5.60024 9.87092 5.16572 10.0638 4.7979 10.3534C4.43008 10.643 4.14069 11.0201 3.95614 11.4504C3.79889 11.9064 3.72238 12.3864 3.73008 12.8688C3.7212 13.1245 3.71253 13.3741 3.66711 13.6285C3.6564 13.7556 3.63367 13.8813 3.59921 14.0041C3.47841 14.3229 3.508 14.3483 3.68777 14.0864L4.62955 13.9972L4.47735 13.9919L5.00209 14.3271L4.86714 14.1761L5.15901 14.7227C4.88843 13.8945 4.75991 13.0266 4.77888 12.1555C4.79559 11.6746 4.68511 10.2932 5.09813 9.9845L4.5516 10.2764C5.20507 10.1645 5.87266 10.163 6.52663 10.2719L8.79135 10.3506L13.0164 10.4974L21.7769 10.8018L20.633 9.86603C20.9522 11.1304 21.0815 12.4352 21.0166 13.7377C20.8952 14.9525 20.1542 15.4022 19.1117 15.9328C18.8756 16.0591 18.6876 16.2596 18.5768 16.5035C18.4661 16.7473 18.4388 17.0208 18.4991 17.2817C18.5594 17.5426 18.704 17.7764 18.9105 17.9469C19.1171 18.1173 19.374 18.215 19.6416 18.2248C20.4961 18.282 21.3535 18.2812 22.2078 18.2225C23.0085 18.1589 24.0378 18.1825 24.668 17.5888C25.2981 16.9951 25.1806 15.9913 25.2073 15.2243C25.2409 14.2563 25.2319 13.2868 25.1862 12.3222C25.1405 11.3575 25.0647 10.5564 24.9612 9.6751C24.8578 8.79378 24.8002 7.99328 24.157 7.38578C23.5137 6.77828 22.7489 6.86142 21.9818 6.83477L19.1448 6.73619C15.4008 6.60608 11.6477 6.38424 7.90041 6.34546C6.11879 6.24416 4.33169 6.38714 2.58884 6.77042C0.896039 7.24798 0.656499 8.87929 0.676879 10.3977L0.723303 13.447C0.735667 14.319 0.614678 15.3449 0.94573 16.1671C1.13268 16.5838 1.4415 16.9341 1.83148 17.1718C2.22146 17.4095 2.6743 17.5234 3.13034 17.4987C4.15206 17.5646 5.18197 17.57 6.17431 17.6044C7.73891 17.6588 7.82353 15.2236 6.25893 15.1693L6.30827 15.1527Z" fill="#CDCDCD"/>
<path d="M7.21158 4.26376L7.08366 1.44944L5.86534 2.66776C7.92431 2.55812 9.97717 2.49109 12.0361 2.46063C14.0951 2.43018 16.0932 2.32662 18.079 2.50328L17.4699 2.33271L17.5734 2.38146L17.1348 1.94286C17.013 1.74184 17.1348 2.2718 17.1714 2.33271C17.1714 2.50328 17.214 2.67384 17.2323 2.84441C17.281 3.283 17.3176 3.7216 17.3541 4.1602L18.5724 2.94188C16.6109 3.12056 14.6494 3.2424 12.6879 3.30738C11.7255 3.33986 10.763 3.35814 9.80052 3.3622C8.79872 3.29837 7.79431 3.28617 6.79126 3.32565H6.54151C6.40749 4.31858 6.50496 4.69627 6.84609 4.4587C6.99297 4.44289 7.13787 4.41226 7.27859 4.36731C7.73546 4.3003 8.19233 4.26376 8.6492 4.22112C9.60559 4.13584 10.562 4.08711 11.5184 4.05665C13.5225 3.99574 15.5266 4.05665 17.5247 4.0932C19.0963 4.14193 19.0902 1.70529 17.5247 1.65655C15.0271 1.58345 12.5174 1.53471 10.0198 1.687C8.38726 1.78447 4.09877 1.63828 4.67138 4.37951C4.96987 5.78667 6.37704 5.7623 7.54053 5.78667C8.70403 5.81103 9.8858 5.78667 11.0554 5.78667C13.5651 5.74606 16.0708 5.61 18.5724 5.37852C18.8956 5.37852 19.2055 5.25016 19.4339 5.02168C19.6624 4.7932 19.7908 4.48332 19.7908 4.1602C19.7359 3.46575 19.6689 2.77131 19.5715 2.08296C19.474 1.3946 19.4496 0.669702 18.8039 0.255472C18.2496 -0.0856584 17.4577 0.0178968 16.8363 0.00571361C16.081 0.00571361 15.3256 0.00571361 14.5642 0.00571361C11.6646 0.00571361 8.76698 0.0788227 5.87143 0.225021C5.54831 0.225021 5.23842 0.353379 5.00994 0.581859C4.78146 0.810339 4.65311 1.12022 4.65311 1.44334L4.78103 4.25767C4.85413 5.81712 7.29078 5.8293 7.21768 4.25767L7.21158 4.26376Z" fill="#CDCDCD"/>
</svg>
