<svg width="247" height="54" viewBox="0 0 247 54" fill="none" xmlns="http://www.w3.org/2000/svg">
<path d="M57.2019 0C117.928 1.38489 141.899 -0.531797 214.561 1.10791C223.046 1.30734 232.436 2.63672 238.093 7.64448C241.176 10.381 242.718 13.9708 243.99 17.494C246.168 23.5099 247.823 29.825 246.564 36.0071C245.305 42.1893 240.681 48.2717 233.313 50.6869C228.858 52.1383 223.88 52.1605 219.057 52.1605H191.311C157.059 52.1605 125.635 54.3762 91.3832 53.9441C70.5943 53.7004 49.7489 53.3125 29.158 50.8086C21.592 49.8891 13.6017 48.4824 8.24184 44.2169C4.21135 41.004 2.20342 36.5611 1.07206 32.1516C-0.709844 25.2161 -0.511882 17.7485 3.51861 11.3891C7.5491 5.02968 15.9352 0.15487 24.972 0.309977L57.2019 0Z" fill="#FBBB62"/>
</svg>
