<svg width="25" height="21" viewBox="0 0 25 21" fill="none" xmlns="http://www.w3.org/2000/svg">
<path d="M0.788111 18.2874C2.64092 18.6075 4.54309 18.4862 6.34025 17.9334C7.93427 17.5173 9.31876 16.5278 10.2285 15.1544C10.3367 14.9524 10.3623 14.7162 10.2999 14.4957C10.2375 14.2752 10.0921 14.0874 9.89407 13.972C9.69608 13.8566 9.46104 13.8225 9.2384 13.8768C9.01576 13.9312 8.82288 14.0698 8.70036 14.2634C7.99952 15.2757 6.94851 15.9925 5.75023 16.2754C4.3056 16.7137 2.78003 16.8166 1.28963 16.5764C1.06761 16.5197 0.832397 16.549 0.63108 16.6584C0.429762 16.7678 0.277212 16.9493 0.203982 17.1664C0.142676 17.3893 0.169825 17.6273 0.279761 17.8307C0.389698 18.034 0.573928 18.1871 0.794008 18.2579L0.788111 18.2874Z" fill="#CDCDCD"/>
<path d="M20.5227 3.38849C21.4313 2.66866 22.3124 1.9154 23.166 1.1287C23.2279 1.06727 23.2771 0.994193 23.3106 0.913687C23.3441 0.833181 23.3614 0.746829 23.3614 0.65962C23.3614 0.572411 23.3441 0.486059 23.3106 0.405553C23.2771 0.325047 23.2279 0.25197 23.166 0.190541C23.0404 0.0683579 22.8721 0 22.6969 0C22.5217 0 22.3535 0.0683579 22.2279 0.190541C21.3723 0.975276 20.4932 1.72462 19.5846 2.45035C19.4931 2.54389 19.4312 2.66227 19.4065 2.79076C19.3818 2.91924 19.3955 3.05215 19.4458 3.17292C19.4961 3.29369 19.5809 3.39698 19.6895 3.46993C19.7981 3.54289 19.9258 3.58227 20.0566 3.58319C20.2292 3.57144 20.393 3.503 20.5227 3.38849Z" fill="#CDCDCD"/>
<path d="M23.6505 1.51137C22.2976 2.01492 20.9189 2.44625 19.5203 2.80353C19.4294 2.82032 19.3429 2.85582 19.2665 2.9078C19.19 2.95978 19.1252 3.02709 19.0762 3.10546C19.0271 3.18382 18.9949 3.27153 18.9816 3.36302C18.9682 3.4545 18.9741 3.54775 18.9987 3.63685C19.0234 3.72596 19.0663 3.80897 19.1247 3.8806C19.1831 3.95224 19.2558 4.01094 19.3382 4.05298C19.4205 4.09501 19.5107 4.11947 19.603 4.12478C19.6953 4.1301 19.7877 4.11617 19.8743 4.08387C21.2719 3.72308 22.6504 3.29181 24.0045 2.79172C24.1725 2.74089 24.3146 2.62744 24.4014 2.47479C24.4881 2.32214 24.5129 2.14199 24.4706 1.97159C24.4211 1.80293 24.3076 1.66033 24.1543 1.57432C24.001 1.48831 23.8202 1.46572 23.6505 1.51137Z" fill="#CDCDCD"/>
<path d="M13.5606 6.98395C11.7905 4.66515 14.0857 2.08084 16.6051 2.10444C17.1898 2.05914 17.7769 2.15148 18.3194 2.37407C18.8619 2.59665 19.3447 2.94329 19.7291 3.38616C20.1134 3.82903 20.3887 4.35582 20.5327 4.92426C20.6767 5.49271 20.6854 6.087 20.5583 6.65945C20.2338 9.14936 18.1982 11.0905 16.4281 12.719C14.3451 14.6432 12.0739 16.353 9.64871 17.8227C8.68107 18.4128 9.56611 19.9468 10.5456 19.3509C12.9088 17.9148 15.133 16.2614 17.1892 14.4124C19.0773 12.7131 21.0067 10.8309 21.9095 8.40001C22.6942 6.29952 22.47 3.6503 20.8238 2.00413C19.89 1.12854 18.708 0.56371 17.4401 0.387267C16.1723 0.210823 14.8809 0.431443 13.7435 1.0188C11.3303 2.34046 10.2564 5.5738 11.9734 7.8749C12.646 8.77764 14.186 7.87489 13.5016 6.98395H13.5606Z" fill="#CDCDCD"/>
<path d="M1.17063 18.4724C3.73193 19.0703 6.35922 19.338 8.98848 19.2689C10.1891 19.3004 11.3864 19.1268 12.5286 18.7556C13.5928 18.3053 14.5959 17.7224 15.5142 17.0209C19.2608 14.3717 22.4588 10.4185 22.2405 5.58623C22.1874 4.45338 20.4173 4.44748 20.4704 5.58623C20.6651 9.86392 17.7504 13.3274 14.4167 15.6167C13.6149 16.2413 12.7316 16.7535 11.7911 17.1389C10.7778 17.4216 9.72712 17.547 8.67576 17.5107C6.29425 17.5508 3.91669 17.3012 1.59545 16.7672C0.4862 16.5076 0.0141744 18.2187 1.12932 18.4724H1.17063Z" fill="#CDCDCD"/>
<path d="M0.273954 18.0336C1.59561 19.2726 3.34209 19.7447 5.08857 19.9866C6.89831 20.2679 8.74608 20.1836 10.5227 19.7387C13.8918 18.8419 16.423 16.3107 18.2639 13.4609C18.8539 12.505 17.3552 11.6141 16.7357 12.5699C15.1839 14.93 13.1011 17.1426 10.2985 17.9628C8.80536 18.3759 7.24501 18.4882 5.7081 18.2932C4.25663 18.1339 2.62816 17.8153 1.52482 16.7827C0.692879 16.0039 -0.557983 17.2547 0.273954 18.0336Z" fill="#CDCDCD"/>
<path d="M8.59366 14.9184C7.66142 14.2163 6.73507 13.7796 6.10964 12.7471C5.55018 11.7564 5.11047 10.7027 4.79978 9.60816C3.96634 7.3673 3.47119 5.01483 3.33063 2.62814L1.68445 3.07656C4.04455 7.04744 8.68806 8.4753 13.0779 8.68181C14.2166 8.73491 14.2166 6.96484 13.0779 6.91173C9.33119 6.73473 5.26591 5.59598 3.21262 2.19152C3.10979 2.03048 2.95821 1.9065 2.77999 1.83763C2.60176 1.76876 2.4062 1.75861 2.22181 1.80866C2.03741 1.85871 1.87382 1.96635 1.75487 2.11588C1.63592 2.26541 1.56784 2.44902 1.56055 2.63995C1.60775 5.35997 2.38658 7.97968 3.24212 10.5404C3.59754 11.7685 4.12812 12.9389 4.81749 14.0157C5.59042 15.1249 6.65248 15.6736 7.70272 16.4584C8.61136 17.1428 9.4728 15.6087 8.59366 14.9302V14.9184Z" fill="#CDCDCD"/>
<path d="M17.8148 7.112C17.8148 6.64587 17.7086 5.55432 17.9387 5.1L16.3515 6.33906C16.7589 6.29185 17.1712 6.30977 17.5729 6.39216L15.6966 5.61332C15.4783 5.0823 15.2954 5.24162 15.142 6.08536C14.8764 6.52197 14.5932 6.95269 14.2923 7.37161C13.744 8.12459 13.153 8.8456 12.5223 9.53111C11.2322 10.9521 9.81628 12.2535 8.29177 13.4194C5.89036 15.278 8.98209 19.1308 11.5074 17.5909C15.1479 15.3665 20.405 13.4135 20.7767 8.57527C21.0422 5.17082 15.732 5.18852 15.4665 8.57527C15.4075 9.3659 13.1064 10.3984 12.4868 10.7702L8.82868 13.0005L12.0502 17.1719C14.2635 15.4682 16.2467 13.4849 17.9505 11.2717C19.4374 9.33639 21.2664 6.91729 20.8121 4.30937C20.3578 1.70145 17.7853 0.533213 15.2541 1.12914C12.6108 1.75457 12.5045 4.9053 12.4927 7.1297C12.4927 10.5459 17.803 10.5518 17.803 7.1297L17.8148 7.112Z" fill="#CDCDCD"/>
<path d="M3.47821 8.11297C5.31319 9.11011 7.12456 10.1722 9.17196 10.6678C11.2097 11.0922 13.2857 11.3058 15.3672 11.305V8.35488C12.3194 8.65305 9.24666 8.58172 6.21593 8.14246C5.83994 8.04854 5.44223 8.10275 5.10508 8.29384C4.76793 8.48493 4.51712 8.79829 4.40454 9.16912C4.3027 9.54616 4.3533 9.94812 4.5454 10.2882C4.73751 10.6282 5.05569 10.879 5.43119 10.9864C8.71792 11.4963 12.0546 11.6033 15.3672 11.305C15.7552 11.2946 16.1243 11.1358 16.3987 10.8614C16.6731 10.587 16.8319 10.2179 16.8423 9.82995C16.8377 9.44016 16.6808 9.06764 16.4052 8.792C16.1295 8.51636 15.757 8.35948 15.3672 8.35488C13.5504 8.36149 11.7376 8.18357 9.95669 7.82386C8.15121 7.38724 6.58764 6.44909 4.97097 5.56996C4.80378 5.46487 4.61719 5.39442 4.42227 5.36279C4.22734 5.33116 4.02805 5.339 3.8362 5.38582C3.64436 5.43265 3.46388 5.51752 3.30545 5.63541C3.14703 5.75329 3.01388 5.90177 2.91391 6.07208C2.81394 6.24238 2.74919 6.43103 2.72349 6.62683C2.69778 6.82262 2.71165 7.02157 2.76428 7.2119C2.81691 7.40224 2.90722 7.58008 3.02985 7.73486C3.15249 7.88964 3.30495 8.01821 3.47821 8.11297Z" fill="#CDCDCD"/>
<path d="M3.82031 9.19817C3.98607 10.1365 4.33951 11.0317 4.85948 11.8302C5.37944 12.6287 6.05523 13.314 6.84635 13.8451C7.63747 14.3761 8.52766 14.7421 9.46357 14.921C10.3995 15.0998 11.3619 15.088 12.2931 14.886C12.6369 14.7912 12.9348 14.575 13.1314 14.2774C13.3281 13.9798 13.4103 13.6211 13.3628 13.2675C13.3153 12.914 13.1413 12.5897 12.873 12.3547C12.6047 12.1196 12.2604 11.9897 11.9037 11.989C11.8447 11.989 11.4553 11.9182 11.768 11.989C11.6323 11.9595 11.5084 11.9359 11.3785 11.8946C11.3431 11.8946 11.0068 11.7707 11.1779 11.8356C11.349 11.9005 10.9773 11.7353 10.9301 11.7117L10.6469 11.5347C10.3224 11.3223 10.8062 11.7117 10.5289 11.4403L10.2457 11.1571C10.0333 10.9388 10.3401 11.3046 10.1572 11.0273L9.62617 13.0451C9.91528 12.8563 9.70877 12.874 8.99484 13.0864C8.89805 13.0551 8.80941 13.0027 8.73523 12.933C8.67526 12.8834 8.63031 12.818 8.60542 12.7442C8.64083 12.9153 8.64673 12.9271 8.60542 12.7442C8.63697 13.0638 8.65076 13.3849 8.64672 13.706C8.64672 13.8909 8.64672 14.0738 8.64672 14.2547C8.64672 14.3491 8.64672 14.4376 8.64672 14.5261C8.64672 14.3609 8.64672 14.3609 8.64672 14.5261C8.64672 14.5851 8.46382 15.1161 8.59362 14.7975C8.59362 14.8447 8.35171 15.1987 8.44022 15.0866C8.52872 14.9745 8.22781 15.2813 8.18061 15.3167C8.41072 15.1338 7.9741 15.4584 7.9328 15.4879C7.52324 15.7694 7.17251 16.1282 6.90025 16.544C6.72836 16.839 6.64548 17.1775 6.6616 17.5186C6.67771 17.8597 6.79213 18.1888 6.99107 18.4663C7.19001 18.7438 7.46498 18.9579 7.78282 19.0827C8.10066 19.2075 8.44781 19.2377 8.78243 19.1696C9.15662 19.0622 9.47377 18.8123 9.66573 18.4736C9.85769 18.1349 9.90915 17.7345 9.80907 17.3582C9.69897 16.9855 9.4489 16.6698 9.11124 16.4773C8.77357 16.2849 8.37453 16.2305 7.9977 16.3257H7.90919H8.69393L8.60542 16.2962L9.25445 16.6797L9.37836 16.8272L9.57896 17.5706C9.57896 17.6119 9.49636 18.0545 9.41965 18.0486C9.44916 18.0486 9.58486 17.8952 9.61436 17.8716C9.42556 18.0368 9.79727 17.7477 9.86217 17.7005C10.3048 17.3888 10.6867 16.9989 10.9891 16.5499C11.4346 15.7604 11.6608 14.8661 11.6441 13.9597C11.7406 13.0538 11.5982 12.1383 11.231 11.3046C10.641 10.2838 9.18954 9.7174 8.1747 10.4549C7.84132 10.6563 7.59946 10.9796 7.50033 11.3563C7.40121 11.733 7.45262 12.1334 7.64368 12.4728C8.1151 13.1891 8.75088 13.7824 9.49805 14.2032C10.2452 14.624 11.0821 14.8601 11.9391 14.8919L11.5438 11.9949L11.2546 12.0421C11.408 12.0421 11.3903 12.0421 11.2133 12.0421C11.0363 12.0421 10.8711 12.0421 10.7 12.0421C10.5284 12.0391 10.3571 12.0273 10.1867 12.0067C10.4699 12.0421 9.90938 11.9418 9.86217 11.93C9.71467 11.8946 9.57896 11.8533 9.43736 11.8061L9.16004 11.7058C9.28985 11.7648 9.27215 11.753 9.11285 11.7058C8.80717 11.5563 8.51499 11.3806 8.2396 11.1807C8.46381 11.3459 8.10389 11.0568 8.06259 11.0155C7.94461 10.9073 7.83236 10.7931 7.72628 10.6732C7.66138 10.6083 7.60238 10.5375 7.54338 10.4667C7.63188 10.5847 7.62598 10.5729 7.54338 10.4372C7.46077 10.3015 7.38997 10.2071 7.31916 10.0891C7.24836 9.97111 7.14216 9.7705 7.05365 9.60529C6.90025 9.31028 7.08315 9.74099 6.98875 9.45188C6.87205 9.10308 6.78133 8.74613 6.71733 8.38393C6.61262 8.008 6.3632 7.6889 6.0237 7.49648C5.6842 7.30406 5.28228 7.25401 4.90596 7.35729C4.53404 7.46867 4.21929 7.71897 4.02702 8.05626C3.83476 8.39354 3.77975 8.79191 3.87341 9.16868L3.82031 9.19817Z" fill="#CDCDCD"/>
<path d="M20.6416 4.59929C21.0205 4.5706 21.3878 4.45557 21.7154 4.26299L22.5474 3.82047C23.102 3.50776 23.6448 3.17144 24.1758 2.81742C24.2599 2.77807 24.3348 2.72162 24.3957 2.65166C24.4567 2.5817 24.5024 2.49978 24.5299 2.41115C24.5574 2.32252 24.5661 2.22913 24.5554 2.13695C24.5447 2.04477 24.515 1.95583 24.4679 1.87583C24.4209 1.79582 24.3577 1.7265 24.2824 1.67232C24.2071 1.61814 24.1212 1.58028 24.0304 1.56117C23.9396 1.54206 23.8458 1.54211 23.755 1.56133C23.6643 1.58055 23.5785 1.6185 23.5032 1.67277C23.0076 2.00318 22.5002 2.3218 21.9809 2.61682L21.208 3.03573L20.8422 3.21864L20.736 3.25404L20.6298 3.28355C20.7124 3.28355 20.7183 3.28355 20.6298 3.28355C20.5374 3.27482 20.4441 3.28549 20.3561 3.31488C20.268 3.34427 20.187 3.39174 20.1184 3.45423C20.0497 3.51671 19.9949 3.59284 19.9573 3.67776C19.9198 3.76267 19.9004 3.85449 19.9004 3.94733C19.9004 4.04017 19.9198 4.13199 19.9573 4.2169C19.9949 4.30181 20.0497 4.37794 20.1184 4.44043C20.187 4.50291 20.268 4.55037 20.3561 4.57976C20.4441 4.60915 20.5374 4.61983 20.6298 4.61111L20.6416 4.59929Z" fill="#CDCDCD"/>
<path d="M18.1706 0.106257C17.2029 0.672682 16.2687 1.28433 15.368 1.94123C15.2158 2.02999 15.1049 2.17539 15.0596 2.34565C15.0142 2.51591 15.0381 2.69719 15.1261 2.84988C15.2159 3.0009 15.3613 3.11077 15.5311 3.15598C15.7009 3.20119 15.8817 3.17815 16.0347 3.09179C16.9375 2.43056 17.875 1.81803 18.8432 1.25682C18.9932 1.16601 19.1019 1.0202 19.146 0.85047C19.1901 0.680739 19.1661 0.500504 19.0792 0.34817C18.9873 0.199412 18.842 0.0914614 18.673 0.0464768C18.5041 0.00149217 18.3243 0.0228835 18.1706 0.106257Z" fill="#CDCDCD"/>
</svg>
