<?xml version="1.0" encoding="utf-8"?>
<!-- Generator: Adobe Illustrator 25.4.0, SVG Export Plug-In . SVG Version: 6.00 Build 0)  -->
<svg version="1.1" id="Layer_1" xmlns="http://www.w3.org/2000/svg" xmlns:xlink="http://www.w3.org/1999/xlink" x="0px" y="0px"
	 viewBox="0 0 27 27" style="enable-background:new 0 0 27 27;" xml:space="preserve">
<style type="text/css">
	.st0{fill:#C8C8C8;}
</style>
<g>
	<g>
		<g>
			<path class="st0" d="M11.44,9.15c-1.48-0.11-2.92-1.24-4.13-2C6.09,6.38,4.9,5.6,4,4.47C3.61,3.98,2.68,4.24,2.58,4.84
				C2.3,6.39,2.03,7.95,2.2,9.53c0.15,1.45,0.57,2.84,1.23,4.14c1.15,2.26,3.21,4.07,5.85,4.12c1.09,0.02,1.09-1.68,0-1.7
				c-2.12-0.04-3.61-1.67-4.47-3.47c-1.15-2.37-1.04-4.81-0.59-7.34C3.74,5.42,3.27,5.54,2.79,5.67c1.03,1.29,2.44,2.18,3.82,3.05
				c1.47,0.93,3.04,1.99,4.82,2.12C12.53,10.93,12.52,9.23,11.44,9.15L11.44,9.15z"/>
		</g>
	</g>
	<g>
		<g>
			<path class="st0" d="M1.82,20.87c3.58,1.64,7.55,2.69,11.48,1.87c2.83-0.59,5.36-2.22,7.17-4.46c2.39-2.95,4.65-8.07,2.19-11.6
				c-1.49-2.14-4.27-3.22-6.85-2.65c-2.83,0.63-4.46,3.27-4.74,6.02c-0.11,1.09,1.59,1.08,1.7,0c0.25-2.49,2.07-4.66,4.71-4.44
				c1.9,0.15,3.33,1.07,4.19,2.74c0.47,0.91,0.38,2.31,0.09,3.55c-0.97,4.21-4.1,7.95-8.35,9.07C9.8,21.91,5.99,20.92,2.67,19.4
				C1.69,18.95,0.82,20.42,1.82,20.87L1.82,20.87z"/>
		</g>
	</g>
	<g>
		<g>
			<path class="st0" d="M8.45,16.72c0,0.02-0.04,0.1-0.03,0.12c-0.03-0.09,0.11-0.21,0.01-0.05c-0.07,0.1,0.17-0.16,0.01-0.02
				c-0.05,0.04-0.09,0.09-0.13,0.13c-0.04,0.04-0.23,0.18-0.02,0.03c-0.06,0.04-0.12,0.09-0.18,0.13c-0.12,0.08-0.24,0.16-0.37,0.23
				c-0.33,0.19-0.67,0.36-1.02,0.52c-0.4,0.18-0.51,0.23-0.97,0.4c-0.74,0.29-1.5,0.54-2.27,0.74c-0.3,0.08-0.6,0.15-0.9,0.21
				c-0.07,0.01-0.13,0.02-0.2,0.03c-0.16,0.03,0.23-0.02,0.01,0C2.29,19.2,2.2,19.21,2.11,19.2c-1.09-0.04-1.09,1.66,0,1.7
				c0.46,0.02,0.93-0.1,1.37-0.2c0.61-0.14,1.21-0.33,1.81-0.53c1.26-0.43,2.59-0.91,3.69-1.67c0.45-0.31,1.02-0.75,1.11-1.33
				c0.07-0.45-0.12-0.91-0.59-1.05C9.1,16.01,8.53,16.26,8.45,16.72L8.45,16.72z"/>
		</g>
	</g>
	<g>
		<g>
			<path class="st0" d="M21.79,6.59c0.58-0.72,1.2-1.4,1.85-2.06c0.32-0.31,0.34-0.89,0-1.2c-0.34-0.31-0.87-0.34-1.2,0
				c-0.65,0.65-1.27,1.34-1.85,2.06c-0.15,0.18-0.25,0.36-0.25,0.6c0,0.21,0.09,0.46,0.25,0.6c0.16,0.15,0.37,0.26,0.6,0.25
				C21.4,6.83,21.65,6.76,21.79,6.59L21.79,6.59z"/>
		</g>
	</g>
	<g>
		<g>
			<path class="st0" d="M22.54,7.84c0.86-0.17,1.72-0.37,2.57-0.6c0.43-0.11,0.73-0.61,0.59-1.05c-0.14-0.44-0.59-0.72-1.05-0.59
				c-0.85,0.23-1.71,0.42-2.57,0.6c-0.2,0.04-0.41,0.22-0.51,0.39c-0.11,0.18-0.15,0.45-0.09,0.65C21.65,7.71,22.08,7.93,22.54,7.84
				L22.54,7.84z"/>
		</g>
	</g>
</g>
</svg>
