<svg width="35" height="33" viewBox="0 0 35 33" fill="none" xmlns="http://www.w3.org/2000/svg">
<path d="M30.4704 23.2699C28.7878 25.6151 26.5512 27.5077 23.9602 28.7797C21.0302 30.0597 17.6102 29.7797 14.5002 29.4897C11.3902 29.1997 8.2405 28.4899 6.0305 26.2699C3.8205 24.0499 3.2405 20.6199 3.0305 17.7699C2.86485 14.9598 3.57001 12.1669 5.05003 9.77238C6.53006 7.37785 8.7129 5.49793 11.3005 4.38956C14.1686 3.17055 17.307 2.72927 20.4001 3.10978C21.8174 3.22487 23.2079 3.56233 24.5202 4.10978C25.7454 4.79384 26.7988 5.74801 27.6003 6.89982C29.4121 9.28184 30.5877 12.0859 31.0163 15.0478C31.445 18.0097 31.1127 21.0316 30.0505 23.8295C29.3705 25.6295 32.2704 26.4198 32.9504 24.6298C34.0497 21.6469 34.441 18.4495 34.094 15.2895C33.7469 12.1294 32.6709 9.09307 30.9504 6.41984C29.0104 3.41984 26.6303 1.31972 23.1203 0.549721C19.5585 -0.258767 15.8496 -0.15206 12.3401 0.85978C5.92007 2.79978 0.800091 8.27949 0.110091 15.0595C-0.270364 18.92 0.480265 22.8083 2.27025 26.2499C3.16067 27.6706 4.32801 28.8975 5.70238 29.8578C7.07674 30.8182 8.63004 31.4921 10.2702 31.8398C12.4107 32.3288 14.5952 32.6002 16.7903 32.6498C19.0359 32.8498 21.2994 32.6809 23.4905 32.1498C27.2205 31.0698 30.2401 28.3996 32.5901 25.4096C33.7701 23.9096 31.6704 21.77 30.4704 23.29V23.2699Z" fill="#CDCDCD"/>
<path d="M19.9704 3.42008C21.9704 4.24008 22.7205 6.62975 23.0705 8.57975C23.487 11.1276 23.6642 13.7093 23.6003 16.2902C23.5503 21.0802 23.0503 25.9701 18.6003 28.7301C16.9603 29.7301 18.4601 32.35 20.1101 31.32C22.453 29.89 24.2787 27.7496 25.3205 25.2101C26.5105 22.2901 26.5803 18.9197 26.5803 15.8097C26.5803 10.5197 26.5302 2.87018 20.7502 0.520177C18.9602 -0.199823 18.1804 2.70008 19.9504 3.42008H19.9704Z" fill="#CDCDCD"/>
<path d="M18.7605 29.5796C16.8816 28.2186 15.3526 26.4312 14.2991 24.3642C13.2456 22.2972 12.6976 20.0099 12.7004 17.6899C12.7004 12.2999 15.4603 7.4597 18.5603 3.2197C19.7003 1.6597 17.1004 0.159938 15.9704 1.70994C12.3904 6.59994 9.41044 12.3696 9.72044 18.5996C9.86988 21.282 10.6238 23.8962 11.926 26.2461C13.2282 28.596 15.0451 30.6212 17.2405 32.1699C18.8105 33.2999 20.3105 30.6996 18.7605 29.5796Z" fill="#CDCDCD"/>
<path d="M3.29027 13.1099C12.6569 13.3099 22.0335 13.3634 31.4202 13.27C31.818 13.27 32.1999 13.1119 32.4812 12.8306C32.7625 12.5493 32.9202 12.1678 32.9202 11.77C32.9202 11.3722 32.7625 10.9903 32.4812 10.709C32.1999 10.4277 31.818 10.27 31.4202 10.27C22.0402 10.37 12.6636 10.3165 3.29027 10.1099C1.36027 10.1099 1.36027 13.1099 3.29027 13.1099Z" fill="#CDCDCD"/>
<path d="M2.93985 21.94C12.6898 22.59 22.4599 21.3699 32.2099 22.0899C34.1299 22.2399 34.1199 19.2299 32.2099 19.0899C22.4599 18.3699 12.6898 19.59 2.93985 18.94C1.00985 18.81 1.01985 21.81 2.93985 21.94Z" fill="#CDCDCD"/>
</svg>
