<svg width="65" height="62" viewBox="0 0 65 62" fill="none" xmlns="http://www.w3.org/2000/svg">
<path d="M0.997301 3.2997C3.6556 21.6793 4.58386 40.2679 3.76987 58.8209C3.76987 61.8264 8.42964 61.8264 8.42964 58.8209C9.22398 39.8521 8.24112 20.8504 5.49396 2.0648C5.07458 -0.894155 0.577922 0.364051 0.997301 3.2997V3.2997Z" fill="#D3D3D3"/>
<path d="M22.6429 58.5882C29.4928 40.7646 34.5253 22.1722 42.5867 4.81456H38.5561L60.7366 56.2816C61.9249 59.0309 65.9322 56.6544 64.7673 53.9517L42.5867 2.48467C42.3819 2.1316 42.088 1.83844 41.7343 1.63471C41.3807 1.43099 40.9796 1.32385 40.5714 1.32385C40.1632 1.32385 39.7623 1.43099 39.4086 1.63471C39.0549 1.83844 38.7609 2.1316 38.5561 2.48467C30.3316 20.2151 25.1592 39.157 18.1463 57.3767C17.0745 60.1726 21.5712 61.3841 22.6429 58.6115V58.5882Z" fill="#D3D3D3"/>
</svg>
