<svg width="81" height="62" viewBox="0 0 81 62" fill="none" xmlns="http://www.w3.org/2000/svg">
<path d="M0.0930044 3.2997C2.75896 21.6786 3.69504 40.2671 2.88889 58.8209C2.7491 61.8264 7.40887 61.8264 7.54866 58.8209C8.3353 39.8513 7.34461 20.8497 4.58966 2.0648C4.17028 -0.894155 -0.326375 0.364051 0.0930044 3.2997V3.2997Z" fill="#D3D3D3"/>
<path d="M43.3359 8.79886C49.4119 12.7112 55.0377 17.2822 60.1111 22.4288C65.097 27.4147 71.1314 33.0064 74.0904 39.4602C74.9265 41.0123 75.4082 42.7303 75.5009 44.4908C75.5935 46.2514 75.2948 48.0105 74.6262 49.6418C73.0885 52.8337 69.5936 53.9986 66.3318 54.5578C63.07 55.117 58.6432 55.6528 55.5444 53.952C54.1915 53.1645 53.1076 51.9872 52.4343 50.5739C51.7609 49.1607 51.5294 47.5773 51.77 46.0305L47.1103 45.4014C46.8307 49.0127 46.4347 53.3696 42.6602 55.0005C38.7998 56.3262 34.6496 56.568 30.6613 55.6994C26.8636 55.0238 22.53 53.5793 21.3417 49.502C20.5501 46.1299 20.4787 42.6287 21.1321 39.2271C22.1314 32.557 24.8174 26.2526 28.9355 20.9113C33.0536 15.57 38.4674 11.3688 44.6639 8.70571C47.4132 7.54077 45.0367 3.53329 42.334 4.69824C34.3455 8.21309 27.5891 14.0344 22.9315 21.4153C18.2738 28.7961 15.9271 37.4001 16.1926 46.1236C16.1435 48.2188 16.5858 50.2963 17.484 52.1898C18.3822 54.0833 19.7114 55.7401 21.3651 57.0275C25.4278 59.5787 30.1525 60.8753 34.9483 60.7552C39.2586 60.7552 44.6873 60.3126 47.9258 57.1206C51.1643 53.9287 51.5371 49.5252 51.8633 45.4712C52.0497 42.885 47.7161 42.2561 47.2035 44.8422C45.7823 53.556 52.3758 59.7534 60.7867 59.7534C69.1976 59.7534 78.4705 57.2372 79.9151 47.9177C81.3596 38.5982 74.0904 30.7931 68.2656 24.3393C61.6264 16.8674 54.0179 10.3167 45.6424 4.86135C43.1028 3.25373 40.7497 7.1913 43.3125 8.86882L43.3359 8.79886Z" fill="#D3D3D3"/>
</svg>
