<svg width="65" height="56" viewBox="0 0 65 56" fill="none" xmlns="http://www.w3.org/2000/svg">
<path d="M27.6187 4.29403C33.7966 8.18696 39.5167 12.7353 44.6751 17.8562C49.7446 22.8174 55.8801 28.3814 58.8887 34.8031C59.7388 36.3475 60.2286 38.057 60.3228 39.8088C60.417 41.5605 60.1133 43.311 59.4335 44.9341C57.87 48.1102 54.3166 49.2693 51.0001 49.8257C47.6836 50.3821 43.1826 50.9153 40.032 49.223C38.6564 48.4393 37.5542 47.2679 36.8696 45.8617C36.1849 44.4554 35.9496 42.8799 36.1943 41.3408L31.4564 40.7148C31.1721 44.3082 30.7694 48.6434 26.9317 50.2662C23.0065 51.5854 18.7869 51.8259 14.7317 50.9617C10.8704 50.2894 6.46415 48.8521 5.25599 44.795C4.45103 41.4397 4.37835 37.9559 5.04276 34.5712C6.05877 27.9342 8.78976 21.6611 12.9769 16.3463C17.164 11.0315 22.6686 6.85117 28.969 4.20134C31.7644 3.04219 29.3481 -0.945386 26.6001 0.213771C18.4776 3.71117 11.608 9.50357 6.87227 16.8478C2.13653 24.192 -0.249365 32.7532 0.0206252 41.4335C-0.0293095 43.5182 0.420351 45.5854 1.3336 47.4695C2.24684 49.3536 3.59829 51.0021 5.27967 52.2831C9.41045 54.8217 14.2144 56.1119 19.0906 55.9924C23.4731 55.9924 28.969 55.5519 32.2855 52.3758C35.602 49.1997 35.9574 44.8181 36.289 40.7843C36.4785 38.2109 32.0723 37.5851 31.5512 40.1584C30.1061 48.8289 36.8102 54.9955 45.3621 54.9955C53.9139 54.9955 63.3423 52.4919 64.811 43.2186C66.2798 33.9453 58.8887 26.179 52.9664 19.7573C46.2105 12.3278 38.4752 5.81028 29.964 0.37607C27.3818 -1.22357 24.9892 2.69446 27.595 4.36364L27.6187 4.29403Z" fill="#D3D3D3"/>
</svg>
