<svg width="47" height="64" viewBox="0 0 47 64" fill="none" xmlns="http://www.w3.org/2000/svg">
<path d="M0.680664 5.29958C3.33897 23.6792 4.26723 42.2677 3.45323 60.8208C3.33674 63.8263 7.99651 63.8263 8.113 60.8208C8.96133 41.857 8.03309 22.8554 5.34043 4.06468C4.92105 1.10572 0.424394 2.36393 0.843773 5.29958H0.680664Z" fill="#D3D3D3"/>
<path d="M38.9612 0.290595C31.9715 3.29615 22.9083 7.28034 20.3221 15.3883C19.7037 17.1645 19.6882 19.0948 20.2779 20.8807C20.8675 22.6666 22.0296 24.2083 23.584 25.267C25.3128 26.3511 27.2105 27.1385 29.1989 27.5969C29.9911 27.8299 32.9501 28.226 33.3462 28.9483C32.8569 28.0629 31.8551 29.6238 31.3192 30.1364C25.0751 36.2174 20.7647 45.4204 23.7936 54.1575C24.3695 56.0068 25.378 57.6923 26.7354 59.074C28.0928 60.4557 29.76 61.4939 31.5988 62.1025C36.2586 63.547 40.9183 62.2423 45.2286 60.8211C48.071 59.9124 46.8596 55.3925 43.9938 56.3244C40.3126 57.536 36.0955 58.9804 32.3444 57.3961C28.5933 55.8118 27.2186 50.4065 27.6846 46.5156C28.1926 42.5619 29.8631 38.8479 32.4842 35.8447C34.185 33.7944 38.0991 31.6276 38.2389 28.7152C38.5651 21.0965 22.2094 25.4068 24.912 16.6231C26.9623 9.98294 35.5829 6.72115 41.3377 4.29807C44.087 3.13313 41.7105 -0.897527 39.0078 0.267416L38.9612 0.290595Z" fill="#D3D3D3"/>
</svg>
