<svg width="27" height="63" viewBox="0 0 27 63" fill="none" xmlns="http://www.w3.org/2000/svg">
<path d="M19.1115 0.233456C12.0031 3.25467 3.05357 7.25963 0.466589 15.4099C-0.145663 17.1981 -0.155632 19.139 0.438211 20.9335C1.03205 22.7279 2.19675 24.2764 3.75276 25.34C5.48209 26.4297 7.38051 27.2213 9.36953 27.6821C10.1619 27.9163 13.0985 28.3145 13.518 29.0405C13.0053 28.1505 12.0264 29.7196 11.4904 30.2348C5.24436 36.3475 0.909405 45.5985 3.9625 54.3811C4.53515 56.2418 5.54273 57.9378 6.90101 59.3271C8.2593 60.7165 9.92885 61.7591 11.7701 62.3675C16.4313 63.8195 21.0925 62.508 25.3808 61.0794C28.2242 60.166 27.0122 55.6225 24.1456 56.5593C20.4632 57.7771 16.2448 59.2291 12.4925 57.6365C8.74026 56.0439 7.3419 50.6105 7.83132 46.6993C8.35032 42.7281 10.0199 38.9978 12.6324 35.9728C14.357 33.9118 18.2725 31.7337 18.389 28.8062C18.7386 21.1478 2.37771 25.4805 5.08122 16.6511C7.13216 9.9763 15.7554 6.69752 21.3955 4.26181C24.1456 3.0908 21.7917 -0.960857 19.0649 0.210155L19.1115 0.233456Z" fill="#D3D3D3"/>
</svg>
