<svg width="51" height="64" viewBox="0 0 51 64" fill="none" xmlns="http://www.w3.org/2000/svg">
<path d="M0.159411 5.2997C2.81771 23.6793 3.74597 42.2679 2.93198 60.8209C2.81548 63.8264 7.47525 63.8264 7.59175 60.8209C8.39777 41.852 7.41486 22.8493 4.65607 4.0648C4.23669 1.10584 -0.259969 2.36405 0.159411 5.2997V5.2997Z" fill="#D3D3D3"/>
<path d="M43.3545 20.654C37.2269 21.7491 24.7154 22.8441 25.1814 13.1984C25.3911 9.19097 28.3734 7.02417 31.9381 5.90583C33.7395 5.24536 35.6191 4.82233 37.5297 4.6476C39.8596 4.6476 40.4421 6.16209 40.8615 8.21239C43.9502 25.6851 45.6021 43.3816 45.8008 61.1241C45.8008 61.742 46.0463 62.3346 46.4832 62.7716C46.9202 63.2085 47.5128 63.454 48.1307 63.454C48.7486 63.454 49.3413 63.2085 49.7783 62.7716C50.2152 62.3346 50.4606 61.742 50.4606 61.1241C50.181 51.5483 49.5986 41.9724 48.6433 32.4199C48.1774 27.6204 47.6181 22.8673 46.9891 18.0911C46.696 13.7001 45.9861 9.34688 44.8689 5.09028C42.3294 -2.43525 33.0564 -0.0121659 27.5346 2.7604C26.0884 3.44053 24.7903 4.39909 23.7147 5.58117C22.6391 6.76326 21.8072 8.14581 21.2662 9.64965C20.7253 11.1535 20.486 12.7492 20.5621 14.3455C20.6383 15.9419 21.0283 17.5076 21.7099 18.9531C25.9037 27.597 36.7377 26.6418 44.5894 25.2672C47.5483 24.7313 46.2901 20.2579 43.3545 20.7705V20.654Z" fill="#D3D3D3"/>
</svg>
