<svg width="29" height="63" viewBox="0 0 29 63" fill="none" xmlns="http://www.w3.org/2000/svg">
<path d="M22.1096 20.4637C16.1681 21.552 4.03651 22.6403 4.48834 13.054C4.69166 9.07127 7.58337 6.91781 11.0624 5.80636C12.8014 5.15015 14.6165 4.7297 16.4617 4.55588C18.7209 4.55588 19.2856 6.06104 19.6923 8.09871C22.6872 25.4638 24.2891 43.0513 24.4817 60.6845C24.4817 61.2986 24.7197 61.8875 25.1434 62.3218C25.567 62.756 26.1417 63 26.7409 63C27.34 63 27.9146 62.756 28.3383 62.3218C28.762 61.8875 29 61.2986 29 60.6845C28.7289 51.1754 28.149 41.6662 27.2604 32.1571C26.786 27.3871 26.2438 22.6634 25.6338 17.9165C25.3496 13.5526 24.6612 9.22621 23.578 4.99584C21.1156 -2.48333 12.1242 -0.0751764 6.79263 2.68031C5.38834 3.35415 4.12749 4.3053 3.08224 5.47918C2.03699 6.65307 1.2279 8.02669 0.701207 9.52147C0.174514 11.0162 -0.0594393 12.6029 0.0128067 14.1904C0.0850528 15.778 0.462016 17.3352 1.12218 18.7733C5.18862 27.3639 15.7162 26.4146 23.3069 25.0484C26.176 24.5158 24.9561 20.07 22.1096 20.5795V20.4637Z" fill="#D3D3D3"/>
</svg>
