<svg width="48" height="56" viewBox="0 0 48 56" fill="none" xmlns="http://www.w3.org/2000/svg">
<path d="M0.24593 4.36432L20.1184 54.2722C20.2519 54.7684 20.5434 55.2065 20.9478 55.5187C21.3522 55.831 21.8471 56 22.3561 56C22.8651 56 23.3601 55.831 23.7645 55.5187C24.1689 55.2065 24.4603 54.7684 24.5938 54.2722C26.9617 45.1727 30.1761 36.3197 34.1938 27.8312C38.2518 19.4468 43.0054 11.4372 47.7359 3.42761C48.0131 2.89237 48.0748 2.26954 47.9082 1.68941C47.7415 1.10927 47.3594 0.616581 46.8416 0.314286C46.3238 0.0119912 45.7104 -0.0764321 45.1295 0.0672788C44.5486 0.21099 44.0451 0.575842 43.7242 1.08561C38.8315 9.35286 33.9387 17.6434 29.8112 26.3323C25.7554 34.9196 22.4876 43.8645 20.0489 53.0545H24.5242L4.65179 3.14644C3.53874 0.382882 -0.936677 1.60079 0.176368 4.38776L0.24593 4.36432Z" fill="#D3D3D3"/>
</svg>
