<svg width="70" height="62" viewBox="0 0 70 62" fill="none" xmlns="http://www.w3.org/2000/svg">
<path d="M0.906481 3.2997C3.56091 21.6797 4.49694 40.2672 3.70237 58.8209C3.56258 61.8264 8.22235 61.8264 8.36214 58.8209C9.14877 39.8513 8.15809 20.8497 5.40314 2.0648C4.98376 -0.894155 0.487102 0.364051 0.906481 3.2997V3.2997Z" fill="#D3D3D3"/>
<path d="M21.153 9.10149L41.1202 58.7513C41.2543 59.2449 41.5471 59.6807 41.9535 59.9914C42.3598 60.302 42.8569 60.4702 43.3684 60.4702C43.8799 60.4702 44.3772 60.302 44.7835 59.9914C45.1898 59.6807 45.4827 59.2449 45.6168 58.7513C48.0365 49.6989 51.2969 40.8925 55.3557 32.447C59.4563 24.106 64.2093 16.1378 68.9623 8.16962C69.1998 7.64402 69.2339 7.04889 69.058 6.49957C68.8821 5.95025 68.5089 5.48574 68.0102 5.19584C67.5116 4.90593 66.9231 4.81126 66.3587 4.9302C65.7943 5.04913 65.2941 5.37327 64.9548 5.83974C60.0388 14.0642 55.0994 22.312 50.9755 30.9558C46.9206 39.5073 43.6381 48.4041 41.1668 57.5399H45.6635L25.6963 7.88991C24.578 5.14064 20.0813 6.35225 21.1997 9.12481L21.153 9.10149Z" fill="#D3D3D3"/>
</svg>
