<svg width="56" height="62" viewBox="0 0 56 62" fill="none" xmlns="http://www.w3.org/2000/svg">
<path d="M0.0404027 3.2997C2.68704 21.6805 3.61525 40.2679 2.81297 58.8209C2.67318 61.8264 7.33295 61.8264 7.47274 58.8209C8.25542 39.8521 7.27262 20.8516 4.53706 2.0648C4.09438 -0.894155 -0.378977 0.364051 0.0404027 3.2997V3.2997Z" fill="#D3D3D3"/>
<path d="M20.6119 5.76995C30.3779 7.26397 40.2854 7.60804 50.1315 6.79511L47.8016 4.46522C47.0794 22.5684 49.8287 40.6717 51.1102 58.705C51.3199 61.664 55.9796 61.6873 55.7699 58.705C54.4885 40.6717 51.7391 22.5684 52.4614 4.46522C52.4614 3.8473 52.216 3.25472 51.7791 2.81778C51.3422 2.38084 50.7494 2.13534 50.1315 2.13534C40.7017 2.94406 31.2099 2.65478 21.8468 1.27329C18.9112 0.830617 17.653 5.32728 20.6119 5.76995Z" fill="#D3D3D3"/>
</svg>
