<svg width="41" height="62" viewBox="0 0 41 62" fill="none" xmlns="http://www.w3.org/2000/svg">
<path d="M0.424059 3.2997C3.09001 21.6786 4.02609 40.2671 3.21995 58.8209C3.08016 61.8264 7.73992 61.8264 7.87972 58.8209C8.66635 39.8513 7.67567 20.8497 4.92072 2.0648C4.50134 -0.894155 0.00467987 0.364051 0.424059 3.2997Z" fill="#D3D3D3"/>
<path d="M30.0123 49.6644H29.593C30.1055 49.8042 29.593 49.6644 29.593 49.6644C29.593 49.6644 29.1503 49.2683 29.593 49.6644L29.3133 49.3849C29.3133 49.3849 29.0803 49.0587 29.3133 49.3849L29.1036 49.0586C28.9733 48.8408 28.8566 48.6151 28.7542 48.3829C28.5678 48.0101 28.7542 48.3829 28.7542 48.3829C28.7101 48.2317 28.6556 48.0838 28.5911 47.9402C28.4746 47.6606 28.3814 47.3579 28.2882 47.055C28.1018 46.4609 27.9616 45.8533 27.8688 45.2376C27.8688 45.6337 27.8688 45.2376 27.8688 45.2376C27.8688 45.2376 27.8688 44.9347 27.8688 44.7949C27.8688 44.6551 27.8688 44.1891 27.8688 43.8862C27.8688 43.5833 27.8688 43.4435 27.8688 43.8862C27.8579 43.7389 27.8579 43.5909 27.8688 43.4435C27.8968 43.3009 27.9357 43.1608 27.9853 43.0242C27.9853 42.8844 27.9853 42.698 27.9853 43.0242C28.1018 42.7446 28.2882 42.4884 28.428 42.2088L28.7076 41.8826C28.8979 41.6767 29.1001 41.4822 29.3133 41.3001C29.3133 41.3001 28.9638 41.5331 29.3133 41.3001C29.4595 41.1858 29.6155 41.0844 29.7793 40.9972C29.9967 40.8592 30.2223 40.7347 30.455 40.6245C30.8511 40.4148 30.6181 40.6245 30.455 40.6245L30.8977 40.4614L31.783 40.2051H32.249C31.9228 40.2051 32.3888 40.2051 32.5053 40.2051C33.0067 40.0936 33.5309 40.1508 33.9964 40.3681C33.5537 40.1817 34.509 40.7642 33.9964 40.3681L34.3226 40.6478C34.6255 40.9274 34.3226 40.6478 34.3226 40.6478C34.9813 41.6226 35.3967 42.7411 35.5341 43.9095C35.5341 44.3289 35.5341 43.6299 35.5341 44.0493C35.5456 44.2278 35.5456 44.4067 35.5341 44.5852V45.4938C35.5341 45.6569 35.5341 45.8434 35.5341 46.0065C35.5341 45.7502 35.5341 46.0065 35.5341 46.123C35.4785 46.4464 35.4007 46.7655 35.3011 47.0782C35.3011 47.4276 35.4642 46.7986 35.3011 47.0782C35.2354 47.2508 35.1494 47.4151 35.0449 47.5675C35.2313 47.2646 34.5789 47.9869 34.6721 47.917C34.7653 47.8471 34.4624 48.0567 34.4391 48.08L33.9265 48.4062L32.9712 48.9654C32.4129 49.2895 31.8186 49.5476 31.2005 49.7343L30.7113 49.8507H29.989C29.523 49.8507 30.1055 49.8507 29.6162 49.8507C29.0199 49.687 28.383 49.7668 27.8455 50.0727C27.3081 50.3786 26.9142 50.8854 26.7505 51.4817C26.5867 52.078 26.6665 52.715 26.9724 53.2524C27.2783 53.7898 27.7851 54.1836 28.3814 54.3474C30.4745 54.7854 32.6552 54.4634 34.5323 53.4388C36.3276 52.7159 37.8908 51.5154 39.0523 49.9673C39.9981 48.3392 40.4286 46.4627 40.2871 44.5852C40.2176 42.6002 39.6999 40.6568 38.7726 38.9004C38.3283 38.051 37.7042 37.3087 36.9437 36.7252C36.1832 36.1418 35.3046 35.7312 34.3692 35.522C32.3069 35.1947 30.1938 35.5036 28.3115 36.4074C26.6668 37.1055 25.2652 38.2741 24.2827 39.7664C23.3003 41.2587 22.7808 43.0082 22.7897 44.7949C22.852 46.8367 23.3359 48.8437 24.2109 50.6896C24.554 51.6201 25.1132 52.4558 25.8422 53.1281C26.5713 53.8005 27.4495 54.2903 28.4047 54.5571C28.6999 54.6384 29.0084 54.6608 29.3122 54.6228C29.6161 54.5848 29.9095 54.4873 30.1757 54.3359C30.4419 54.1844 30.6756 53.9819 30.8634 53.74C31.0513 53.4982 31.1896 53.2216 31.2705 52.9262C31.3518 52.6309 31.3741 52.3225 31.3361 52.0186C31.2981 51.7147 31.2006 51.4213 31.0491 51.1552C30.8977 50.889 30.6952 50.6553 30.4533 50.4675C30.2114 50.2796 29.9349 50.1414 29.6395 50.0605L30.0123 49.6644Z" fill="#D3D3D3"/>
</svg>
