<svg width="62" height="62" viewBox="0 0 62 62" fill="none" xmlns="http://www.w3.org/2000/svg">
<path d="M0.979856 3.2997C3.6265 21.6805 4.55463 40.2679 3.75235 58.8209C3.61256 61.8264 8.27233 61.8264 8.41212 58.8209C9.1948 39.8521 8.21207 20.8516 5.47652 2.0648C5.03384 -0.894155 0.560477 0.364051 0.979856 3.2997Z" fill="#D3D3D3"/>
<path d="M55.243 2.67094C55.6624 6.18906 56.1516 9.66063 56.5011 13.2021C56.7807 15.928 57.1068 20.1917 53.5421 20.6344C47.2048 21.5663 42.7548 13.6447 42.6616 8.33254C42.6616 7.71461 42.4161 7.12203 41.9792 6.68509C41.5423 6.24816 40.9496 6.00265 40.3317 6.00265C39.7138 6.00265 39.1212 6.24816 38.6842 6.68509C38.2473 7.12203 38.0018 7.71461 38.0018 8.33254C37.7455 12.4098 38.6542 16.8134 37.5824 20.7975C36.7903 23.6866 34.2041 27.3678 30.7791 26.0164C27.8435 24.8515 26.4223 21.1236 25.5137 18.3977C24.2116 14.4419 23.3444 10.356 22.9274 6.2124L18.2677 6.84152C21.9955 23.407 21.18 40.4151 22.9274 57.2136C23.2303 60.1726 27.8901 60.1959 27.5872 57.2136C25.8165 39.9958 26.562 22.5914 22.7643 5.58329C22.1819 3.06702 17.9182 3.57964 18.1046 6.2124C18.8967 13.9476 20.8772 29.3249 30.7559 30.8626C32.8615 31.0461 34.9712 30.559 36.7832 29.471C38.5952 28.383 40.0166 26.7496 40.8443 24.8048C43.4071 19.6558 42.149 13.8311 42.4985 8.33254H37.8387C37.9785 16.4405 44.4322 25.7834 53.379 25.2942C64.5624 24.6651 60.5784 9.56739 59.7397 2.67094C59.3669 -0.264719 54.7071 -0.288017 55.0799 2.67094H55.243Z" fill="#D3D3D3"/>
</svg>
