<svg width="61" height="68" viewBox="0 0 61 68" fill="none" xmlns="http://www.w3.org/2000/svg">
<path d="M37.437 2.67118C37.8564 6.2126 38.3691 9.66095 38.7186 13.2723C38.9749 15.905 39.3011 19.9589 35.8762 20.5647C29.4923 21.7063 24.9724 13.575 24.8559 8.33278C24.8559 7.71486 24.6102 7.12228 24.1733 6.68534C23.7364 6.2484 23.1439 6.0029 22.526 6.0029C21.9081 6.0029 21.3154 6.2484 20.8784 6.68534C20.4415 7.12228 20.1961 7.71486 20.1961 8.33278C19.9631 12.4334 20.825 16.837 19.7533 20.8444C18.9611 23.78 16.2818 27.4145 12.7636 25.9467C9.89788 24.7352 8.52334 21.054 7.61468 18.3281C6.32033 14.3954 5.46097 10.3326 5.05187 6.21265L0.392096 6.84176C4.70238 25.8769 5.37805 45.5411 7.38175 64.9024C7.68463 67.8614 12.3677 67.8847 12.0415 64.9024C9.94462 45.145 9.24545 25.0381 4.84197 5.58353C4.2595 3.09056 -0.0041891 3.55658 0.182202 6.21265C0.974362 13.9479 2.95484 29.2552 12.787 30.8395C14.8625 31.0401 16.9486 30.5835 18.7505 29.5341C20.5524 28.4847 21.9788 26.8957 22.8286 24.9915C25.508 19.8425 24.2498 13.8779 24.576 8.33278H19.9163C20.0793 16.4408 26.5333 25.8769 35.5033 25.2711C46.6402 24.5255 42.656 9.59094 41.8172 2.67118C41.4444 -0.264474 36.7847 -0.287773 37.1575 2.67118H37.437Z" fill="#D3D3D3"/>
<path d="M50.0192 56.6542H49.5999C50.0892 56.794 49.5999 56.6542 49.5999 56.6542C49.5999 56.6542 49.1806 56.2581 49.5999 56.6542L49.3204 56.3746C49.3204 56.3746 49.0874 56.0484 49.3204 56.3746L49.1105 56.0484C48.9724 55.831 48.8482 55.6053 48.7379 55.3726C48.5515 54.9998 48.7379 55.3726 48.7379 55.3726L48.5746 54.9299C48.5746 54.6504 48.3649 54.3476 48.2717 54.0447C48.0744 53.4537 47.9341 52.8451 47.8525 52.2273C47.8525 52.6234 47.8525 52.2273 47.8525 52.2273C47.8409 52.08 47.8409 51.932 47.8525 51.7847C47.8292 51.4822 47.8292 51.1784 47.8525 50.876C47.8525 50.876 47.8525 50.4333 47.8525 50.876C47.8416 50.7286 47.8416 50.5806 47.8525 50.4333C47.8421 50.2937 47.8421 50.1535 47.8525 50.0139C47.8525 49.8741 47.8525 49.6877 47.8525 50.0139C47.9819 49.7326 48.1296 49.4602 48.2951 49.1985V49.1985C48.3674 49.0801 48.4534 48.9706 48.5513 48.8723C48.7441 48.6606 48.9546 48.4657 49.1804 48.2898C49.1804 48.2898 48.831 48.5228 49.1804 48.2898L49.6463 47.9869L50.3454 47.6142C50.7415 47.4045 50.5085 47.6142 50.3454 47.6142L50.7649 47.4511L51.6733 47.1949H52.1394C51.8132 47.1949 52.1394 47.1949 52.3724 47.1949C52.882 47.093 53.4106 47.1498 53.8868 47.3578C53.4442 47.1714 54.3994 47.7539 53.8868 47.3578L54.1897 47.6375C54.4926 47.9171 54.1897 47.6375 54.1897 47.6375C54.8676 48.6024 55.285 49.7258 55.4013 50.8993C55.4013 51.3187 55.4013 50.6197 55.4013 51.0391C55.4013 51.4585 55.4013 51.3885 55.4013 51.5749C55.4013 51.7613 55.4013 52.1807 55.4013 52.4836C55.4013 52.7865 55.4013 52.8331 55.4013 52.9962C55.4013 52.74 55.4013 52.9962 55.4013 53.1127C55.4013 53.2292 55.2613 53.7417 55.1681 54.0679C55.0749 54.3941 55.3079 53.7883 55.1681 54.0679C55.1032 54.2456 55.0087 54.4111 54.8885 54.5572C55.0982 54.2543 54.4461 54.9767 54.5393 54.9068C54.6325 54.8369 54.3293 55.0464 54.2827 55.0697L53.7702 55.3959L52.8152 55.9551C52.2648 56.2789 51.6783 56.537 51.0678 56.724L50.5783 56.8405H49.8329C49.3902 56.8405 49.9726 56.8405 49.4833 56.8405C48.887 56.6767 48.25 56.7566 47.7126 57.0624C47.1752 57.3683 46.7814 57.8751 46.6176 58.4714C46.4539 59.0677 46.5336 59.7047 46.8395 60.2421C47.1453 60.7796 47.6521 61.1734 48.2484 61.3371C50.3415 61.7752 52.5223 61.4531 54.3994 60.4286C56.1871 59.6926 57.7472 58.4945 58.9195 56.9571C59.8653 55.329 60.2956 53.4525 60.1541 51.5749C60.0758 49.5884 59.5504 47.6452 58.6166 45.8901C58.1799 45.0395 57.5609 44.2956 56.8038 43.7117C56.0466 43.1277 55.17 42.7181 54.2364 42.5118C52.1741 42.1845 50.0608 42.4933 48.1785 43.3971C46.5313 44.0942 45.1265 45.262 44.1401 46.754C43.1537 48.2461 42.6295 49.996 42.6333 51.7847C42.7178 53.8234 43.2009 55.826 44.0548 57.6793C44.4068 58.6086 44.9715 59.4424 45.7038 60.114C46.4361 60.7857 47.3156 61.2764 48.2717 61.5469C48.567 61.628 48.8755 61.6501 49.1793 61.612C49.4831 61.5739 49.7764 61.4763 50.0425 61.3249C50.3086 61.1734 50.5423 60.9711 50.7302 60.7293C50.9181 60.4876 51.0564 60.2112 51.1375 59.9159C51.2185 59.6207 51.2407 59.3123 51.2026 59.0085C51.1645 58.7047 51.0671 58.4114 50.9156 58.1453C50.7642 57.8792 50.5618 57.6455 50.3201 57.4576C50.0783 57.2697 49.8019 57.1313 49.5067 57.0502L50.0192 56.6542Z" fill="#D3D3D3"/>
</svg>
