<svg width="43" height="58" viewBox="0 0 43 58" fill="none" xmlns="http://www.w3.org/2000/svg">
<path d="M37.2256 2.17372C37.6449 5.63332 38.134 9.04715 38.4834 12.5297C38.7629 15.2103 39.089 19.403 35.502 19.8384C29.1898 20.7548 24.741 12.9649 24.6478 7.74114C24.6478 7.1335 24.4024 6.55077 23.9656 6.1211C23.5288 5.69143 22.9363 5.45001 22.3186 5.45001C21.7008 5.45001 21.1084 5.69143 20.6716 6.1211C20.2347 6.55077 19.9893 7.1335 19.9893 7.74114C19.7331 11.7506 20.6415 16.0809 19.5701 19.9988C18.7782 22.8398 16.1927 26.4597 12.7454 25.1309C9.83391 23.9853 8.41308 20.3195 7.50468 17.6388C6.17929 13.7515 5.28892 9.73356 4.84936 5.65628L0.1909 6.27492C3.89437 22.5648 3.10244 39.2901 4.84936 55.8091C5.15216 58.7188 9.81061 58.7417 9.50782 55.8091C7.71431 38.8777 8.48295 21.7629 4.66302 5.03763C4.104 2.56321 -0.158489 3.0673 0.00455737 5.65628C0.773203 13.2628 2.77636 28.3843 12.6523 29.8965C14.7573 30.0769 16.8664 29.5979 18.6779 28.528C20.4894 27.458 21.9104 25.8519 22.7378 23.9394C25.3 18.876 24.0422 13.1482 24.3916 7.74114H19.7331C19.8729 15.7143 26.3249 24.9018 35.2458 24.4206C46.4494 23.802 42.4664 8.95546 41.6279 2.17372C41.2552 -0.713105 36.5967 -0.736016 36.9694 2.17372H37.2256Z" fill="#D3D3D3"/>
</svg>
