<svg width="55" height="62" viewBox="0 0 55 62" fill="none" xmlns="http://www.w3.org/2000/svg">
<path d="M0.706403 3.2997C3.35304 21.6805 4.28125 40.2679 3.47897 58.8209C3.33918 61.8264 7.99895 61.8264 8.13874 58.8209C8.92537 39.8513 7.93469 20.8497 5.17974 2.0648C4.76036 -0.894155 0.263725 0.364051 0.706403 3.2997Z" fill="#D3D3D3"/>
<path d="M49.6801 5.32715C50.3791 9.98692 51.1712 14.9729 49.3772 19.3065C48.7855 21.1854 47.5497 22.7952 45.8874 23.8522C44.2252 24.9092 42.2432 25.3456 40.2907 25.0845C30.9711 23.5235 29.247 12.6896 29.1305 4.95443L24.4707 5.5834C28.2918 23.174 28.3617 41.2306 30.645 59.0076C31.0178 61.9433 35.7008 61.9899 35.3048 59.0076C32.9749 40.8112 32.9749 22.3353 28.9675 4.34864C28.8871 3.73071 28.5646 3.16992 28.0709 2.78979C27.5771 2.40965 26.9526 2.24132 26.3347 2.32165C25.7168 2.40198 25.156 2.72451 24.7759 3.21825C24.3958 3.71199 24.2274 4.33651 24.3077 4.95443C24.4708 15.5321 28.1753 29.0687 40.9197 29.8376C43.405 29.9148 45.8586 29.2632 47.9782 27.9633C50.0978 26.6634 51.7909 24.7719 52.8488 22.5217C55.8077 16.697 54.9457 10.1733 54.0137 3.88263C53.5711 0.946979 49.0743 2.18177 49.517 5.14072L49.6801 5.32715Z" fill="#D3D3D3"/>
</svg>
