<svg width="92" height="64" viewBox="0 0 92 64" fill="none" xmlns="http://www.w3.org/2000/svg">
<path d="M30.2218 2.92388C31.1071 8.70199 32.1091 15.1326 29.4996 20.6544C28.6482 22.8199 27.0743 24.6243 25.0447 25.7623C23.015 26.9002 20.6544 27.3017 18.3627 26.8985C7.34238 24.7084 5.24533 12.0804 5.10554 2.73759L0.445771 3.36656L13.3534 61.7535C14.0058 64.6891 18.5026 63.4544 17.8502 60.5187L4.94257 2.1318C4.86224 1.51388 4.53957 0.953085 4.04583 0.572949C3.55209 0.192813 2.92772 0.0244809 2.30979 0.104811C1.69187 0.185141 1.13108 0.507673 0.750943 1.00141C0.370807 1.49515 0.202475 2.11967 0.282805 2.73759C0.469195 14.8996 4.56971 30.5331 19.1315 31.698C22.0232 31.8505 24.8951 31.1415 27.3836 29.6608C29.8721 28.1802 31.8652 25.9944 33.1108 23.3803C36.6056 16.6004 35.5804 8.93506 34.4854 1.68912C34.0427 -1.26984 29.5462 -0.0117741 29.9888 2.92388H30.2218Z" fill="#D3D3D3"/>
<path d="M49.5371 60.5884C56.387 42.7648 61.4194 24.1724 69.4808 6.8148H65.4501L87.6307 58.2819C88.7956 61.0311 92.8262 58.6547 91.638 55.952L69.4808 4.48492C69.276 4.13185 68.9821 3.83868 68.6284 3.63496C68.2747 3.43123 67.8736 3.3241 67.4654 3.3241C67.0573 3.3241 66.6565 3.43123 66.3028 3.63496C65.9491 3.83868 65.6549 4.13185 65.4501 4.48492C57.2256 22.2153 52.03 41.1573 45.0403 59.377C43.9686 62.1729 48.4654 63.3843 49.5371 60.6118V60.5884Z" fill="#D3D3D3"/>
</svg>
