<svg width="92" height="64" viewBox="0 0 92 64" fill="none" xmlns="http://www.w3.org/2000/svg">
<path d="M30.5877 2.92388C31.4731 8.70199 32.4748 15.1326 29.8653 20.6544C29.0094 22.8217 27.4314 24.6269 25.3978 25.7647C23.3643 26.9025 20.9999 27.303 18.7051 26.8985C7.70806 24.7084 5.61132 12.0804 5.47153 2.73759L0.811758 3.36656L13.7194 61.7535C14.3485 64.6891 18.845 63.4544 18.1926 60.5187L5.30828 2.1318C5.22795 1.51388 4.90556 0.953085 4.41182 0.572949C3.91808 0.192813 3.29342 0.0244809 2.6755 0.104811C2.05757 0.185141 1.49707 0.507673 1.11693 1.00141C0.736794 1.49515 0.568177 2.11967 0.648507 2.73759C0.834898 14.8996 4.9124 30.5331 19.4975 31.698C22.3897 31.8536 25.2628 31.146 27.7519 29.6649C30.241 28.1839 32.2337 25.9964 33.4768 23.3803C36.9949 16.6004 35.9697 8.93506 34.8747 1.68912C34.432 -1.26984 29.9352 -0.0117741 30.3779 2.92388H30.5877Z" fill="#D3D3D3"/>
<path d="M43.8697 11.1019L63.8367 60.7517C63.9708 61.2453 64.2637 61.6811 64.67 61.9917C65.0763 62.3024 65.5738 62.4705 66.0852 62.4705C66.5967 62.4705 67.0938 62.3024 67.5002 61.9917C67.9065 61.6811 68.1994 61.2453 68.3335 60.7517C70.7428 51.696 74.0037 42.8887 78.0725 34.4474C82.1498 26.1064 86.926 18.1382 91.679 10.17C91.9575 9.63754 92.0196 9.01794 91.8522 8.4408C91.6848 7.86367 91.3008 7.37352 90.7805 7.07279C90.2603 6.77206 89.6438 6.68409 89.0601 6.82706C88.4765 6.97003 87.9707 7.333 87.6483 7.84013C82.7323 16.0646 77.8162 24.3123 73.669 32.9562C69.5939 41.4992 66.3104 50.3978 63.86 59.5403H68.3568L48.3898 9.8903C47.2715 7.14103 42.7747 8.35264 43.893 11.1252L43.8697 11.1019Z" fill="#D3D3D3"/>
</svg>
