<svg width="59" height="64" viewBox="0 0 59 64" fill="none" xmlns="http://www.w3.org/2000/svg">
<path d="M30.8717 2.92388C31.757 8.70199 32.7589 15.1326 30.1494 20.6544C29.2979 22.8199 27.724 24.6243 25.6944 25.7623C23.6648 26.9002 21.3042 27.3017 19.0125 26.8985C7.99214 24.7084 5.89524 12.0804 5.75544 2.73759L1.09567 3.36656L14.0033 61.7535C14.6557 64.6891 19.1524 63.4544 18.5 60.5187L5.59248 2.1318C5.51215 1.51388 5.18961 0.953086 4.69587 0.572949C4.20213 0.192813 3.57762 0.0244809 2.9597 0.104811C2.34177 0.185141 1.78098 0.507673 1.40085 1.00141C1.02071 1.49515 0.852377 2.11967 0.932707 2.73759C1.1191 14.8996 5.21962 30.5331 19.7814 31.698C22.6731 31.8505 25.5449 31.1415 28.0334 29.6608C30.5219 28.1802 32.5151 25.9944 33.7607 23.3803C37.2555 16.6004 36.2304 8.93506 35.1354 1.68912C34.6927 -1.26984 30.1961 -0.0117741 30.6387 2.92388H30.8717Z" fill="#D3D3D3"/>
<path d="M50.9783 5.2997C53.6366 23.6793 54.5648 42.2679 53.7508 60.8209C53.6343 63.8264 58.2941 63.8264 58.4106 60.8209C59.2049 41.8521 58.2221 22.8504 55.4749 4.0648C55.0555 1.10584 50.5589 2.36405 50.9783 5.2997V5.2997Z" fill="#D3D3D3"/>
</svg>
