<svg width="93" height="64" viewBox="0 0 93 64" fill="none" xmlns="http://www.w3.org/2000/svg">
<path d="M30.873 2.92323C31.7351 8.70134 32.7369 15.1319 30.1507 20.6538C29.2948 22.8211 27.7166 24.6263 25.6831 25.764C23.6495 26.9018 21.2853 27.3023 18.9905 26.8978C7.97015 24.7077 5.87339 12.0798 5.7336 2.73694L1.07383 3.36591L14.0512 61.7995C14.7035 64.7351 19.2003 63.5002 18.548 60.5645L5.64031 2.17765C5.60054 1.87168 5.50092 1.57666 5.34709 1.3092C5.19325 1.04175 4.98819 0.807165 4.74371 0.61894C4.49924 0.430716 4.22009 0.292432 3.92219 0.212092C3.6243 0.131752 3.3135 0.110884 3.00753 0.15066C2.70157 0.190435 2.4064 0.290193 2.13895 0.444028C1.87149 0.597864 1.63705 0.802786 1.44883 1.04726C1.2606 1.29174 1.12232 1.57088 1.04198 1.86878C0.961638 2.16667 0.94077 2.47748 0.980545 2.78344C1.16694 14.9454 5.26762 30.5789 19.8527 31.7439C22.7449 31.8995 25.618 31.1918 28.1071 29.7108C30.5962 28.2298 32.5889 26.0424 33.832 23.4263C37.3268 16.6464 36.3249 8.9809 35.2299 1.73496C34.7639 -1.22399 30.2905 0.0342165 30.7332 2.96987L30.873 2.92323Z" fill="#D3D3D3"/>
<path d="M86.2795 2.34097C86.6989 5.8824 87.2116 9.33074 87.5611 12.9421C87.8174 15.5748 88.1435 19.6287 84.7186 20.2345C78.3347 21.3761 73.8148 13.2448 73.6983 8.00257C73.6983 7.38465 73.4528 6.79207 73.0158 6.35513C72.5789 5.91819 71.9863 5.67269 71.3684 5.67269C70.7504 5.67269 70.1579 5.91819 69.7209 6.35513C69.284 6.79207 69.0385 7.38465 69.0385 8.00257C68.8055 11.9867 69.8539 16.6466 68.5958 20.4909C67.6406 23.4265 64.4952 24.0555 61.7459 23.4964C60.4393 23.1789 59.2519 22.4914 58.3262 21.5162C57.4005 20.5409 56.7759 19.3193 56.527 17.9979C55.2217 14.0681 54.362 10.0041 53.9641 5.88244L49.3043 6.51156C53.3816 24.5682 54.3601 43.1606 56.2939 61.5434C56.5968 64.4791 61.2799 64.5257 60.9537 61.5434C58.9733 42.7645 57.9714 23.7293 53.801 5.25333C53.2185 2.76035 48.9548 3.22637 49.1412 5.88244C49.9799 14.1302 51.4712 27.0611 61.7459 28.2028C63.6201 28.539 65.5508 28.349 67.3235 27.6539C69.0962 26.9588 70.6416 25.7858 71.7877 24.2653C74.77 19.6055 73.2323 13.1983 73.5351 7.95607H68.8754C69.0618 16.0641 75.4923 25.5 84.4623 24.8942C95.5992 24.1487 91.6151 9.21423 90.7763 2.29447C90.4036 -0.641184 85.7438 -0.664482 86.1166 2.29447L86.2795 2.34097Z" fill="#D3D3D3"/>
</svg>
