<svg width="79" height="64" viewBox="0 0 79 64" fill="none" xmlns="http://www.w3.org/2000/svg">
<path d="M30.4144 2.92388C31.2765 8.70199 32.2782 15.1326 29.692 20.6544C28.8361 22.8217 27.258 24.6269 25.2245 25.7647C23.1909 26.9025 20.8269 27.303 18.532 26.8985C7.51169 24.7084 5.41465 12.0804 5.27486 2.73759L0.615089 3.36656L13.4994 61.7535C14.1518 64.6891 18.6486 63.4544 17.9962 60.5187L5.08857 2.1318C5.00824 1.51388 4.68557 0.953085 4.19183 0.572949C3.69809 0.192813 3.07371 0.0244809 2.45579 0.104811C1.83787 0.185141 1.27708 0.507673 0.896939 1.00141C0.516803 1.49515 0.348471 2.11967 0.428801 2.73759C0.615191 14.8996 4.71573 30.5331 19.3008 31.698C22.193 31.8536 25.0661 31.146 27.5552 29.6649C30.0443 28.1839 32.037 25.9964 33.2801 23.3803C36.7749 16.6004 35.773 8.93506 34.6547 1.68912C34.212 -1.26984 29.7388 -0.0117741 30.1815 2.92388H30.4144Z" fill="#D3D3D3"/>
<path d="M71.7699 20.654C65.6423 21.7491 53.1307 22.8441 53.5967 13.1984C53.8064 9.19097 56.7887 7.02417 60.3767 5.90583C62.1701 5.24555 64.0421 4.82249 65.9452 4.6476C68.2751 4.6476 68.8574 6.16209 69.2767 8.21239C72.3769 25.6836 74.029 43.381 74.2161 61.1241C74.2161 61.742 74.4617 62.3346 74.8987 62.7716C75.3356 63.2085 75.9281 63.454 76.546 63.454C77.1639 63.454 77.7566 63.2085 78.1936 62.7716C78.6305 62.3346 78.8759 61.742 78.8759 61.1241C78.5963 51.5561 77.9985 41.988 77.0821 32.4199C76.5928 27.6204 76.0567 22.8673 75.4044 18.0911C75.1112 13.7001 74.4015 9.34688 73.2844 5.09028C70.7448 -2.43525 61.4717 -0.0121659 55.9732 2.7604C54.5249 3.43842 53.2247 4.39546 52.1467 5.57662C51.0688 6.75778 50.2341 8.13992 49.6909 9.64397C49.1477 11.148 48.9065 12.7445 48.981 14.3418C49.0555 15.9392 49.4443 17.5062 50.1252 18.9531C54.319 27.597 65.1764 26.6418 73.0281 25.2672C75.9638 24.7313 74.7055 20.2579 71.7699 20.7705V20.654Z" fill="#D3D3D3"/>
</svg>
