<svg width="59" height="64" viewBox="0 0 59 64" fill="none" xmlns="http://www.w3.org/2000/svg">
<path d="M30.4008 2.92388C31.2629 8.70199 32.2648 15.1326 29.6786 20.6544C28.8227 22.8217 27.2445 24.6269 25.2109 25.7647C23.1774 26.9025 20.8133 27.303 18.5185 26.8985C7.49813 24.7084 5.40123 12.0804 5.26143 2.73759L0.601665 3.36656L13.4859 61.7535C14.1382 64.6891 18.6349 63.4544 17.9825 60.5187L5.09833 2.1318C5.018 1.51388 4.69546 0.953086 4.20172 0.572949C3.70798 0.192813 3.08347 0.0244809 2.46554 0.104811C1.84762 0.185141 1.28697 0.507673 0.906837 1.00141C0.526701 1.49515 0.358226 2.11967 0.438556 2.73759C0.624947 14.8996 4.72549 30.5331 19.3106 31.698C22.2028 31.8536 25.076 31.146 27.5651 29.6649C30.0542 28.1839 32.0468 25.9964 33.2899 23.3803C36.7847 16.6004 35.7829 8.93506 34.6879 1.68912C34.2452 -1.26984 29.7485 -0.0117741 30.1912 2.92388H30.4008Z" fill="#D3D3D3"/>
<path d="M48.06 51.665H47.6407C48.13 51.8048 47.6407 51.665 47.6407 51.665C47.6407 51.665 47.2213 51.2689 47.6407 51.665L47.3611 51.3854C47.3611 51.3854 47.1281 51.0593 47.3611 51.3854L47.1513 51.0592C47.0133 50.8419 46.8889 50.6161 46.7786 50.3835V50.3835C46.7141 50.2399 46.6596 50.0919 46.6155 49.9408C46.499 49.6612 46.4058 49.3584 46.3126 49.0556C46.1186 48.4621 45.9706 47.8544 45.8699 47.2382C45.8699 47.6343 45.8699 47.2382 45.8699 47.2382C45.8699 47.2382 45.8699 46.9353 45.8699 46.7955C45.8699 46.6557 45.8699 46.1897 45.8699 45.8868C45.8699 45.5839 45.8699 45.4441 45.8699 45.8868C45.8808 45.7395 45.8808 45.5915 45.8699 45.4441L46.0097 45.0248C46.0097 44.885 46.0097 44.6986 46.0097 45.0248C46.1391 44.7434 46.287 44.4711 46.4524 44.2094C46.6854 43.8366 46.5689 44.023 46.4524 44.2094L46.732 43.8831C46.9223 43.6773 47.1246 43.4828 47.3378 43.3007C47.3378 43.3007 47.0116 43.5337 47.3378 43.3007L47.8038 42.9978L48.5027 42.6251C48.8988 42.4154 48.6658 42.6251 48.5027 42.6251L48.9221 42.462L49.8308 42.2057H50.2735C49.9706 42.2057 50.4132 42.2057 50.5297 42.2057C51.0393 42.1038 51.568 42.1606 52.0442 42.3687C51.6015 42.1823 52.5335 42.7647 52.0442 42.3687L52.3469 42.6484C52.6498 42.928 52.3469 42.6484 52.3469 42.6484C53.0193 43.6161 53.4361 44.7381 53.5585 45.9101C53.5585 46.3295 53.5585 45.6305 53.5585 46.0499C53.5701 46.2284 53.5701 46.4073 53.5585 46.5858C53.5818 46.8882 53.5818 47.192 53.5585 47.4944C53.57 47.6651 53.57 47.8364 53.5585 48.0071C53.5585 47.7508 53.5585 48.0071 53.5585 48.1236C53.5585 48.24 53.4188 48.7526 53.3256 49.0787C53.2324 49.4049 53.4654 48.7992 53.3256 49.0787C53.2516 49.2521 53.1578 49.4163 53.046 49.5681C53.2557 49.2652 52.6033 49.9875 52.6965 49.9176C52.7897 49.8477 52.4868 50.0573 52.4402 50.0806L51.9276 50.4068L50.9724 50.9659C50.416 51.2941 49.8213 51.5524 49.2017 51.7348L48.7123 51.8513H47.9901C47.5241 51.8513 48.13 51.8513 47.6407 51.8513C47.0444 51.6845 46.4061 51.7614 45.8665 52.065C45.3269 52.3687 44.9301 52.8743 44.7633 53.4706C44.5965 54.0669 44.6732 54.7051 44.9769 55.2447C45.2806 55.7844 45.7861 56.1811 46.3824 56.348C48.4755 56.7881 50.657 56.4659 52.5334 55.4394C54.3743 54.7292 55.9858 53.5287 57.1931 51.9679C58.1309 50.3373 58.5533 48.4609 58.4047 46.5858C58.3459 44.5992 57.8275 42.6535 56.8902 40.901C56.4535 40.0504 55.8345 39.3065 55.0774 38.7225C54.3203 38.1386 53.4437 37.7289 52.5101 37.5226C50.4402 37.195 48.3196 37.5037 46.4291 38.408C44.7862 39.1086 43.3863 40.2778 42.4043 41.7696C41.4222 43.2613 40.9015 45.0095 40.9073 46.7955C40.9807 48.8358 41.464 50.8406 42.3285 52.6902C42.6781 53.6169 43.2394 54.449 43.9675 55.1205C44.6956 55.7919 45.5703 56.2841 46.5222 56.5577C46.8175 56.639 47.1259 56.6614 47.4298 56.6234C47.7337 56.5854 48.0271 56.4879 48.2933 56.3365C48.5594 56.185 48.7931 55.9825 48.981 55.7406C49.1688 55.4987 49.3072 55.2222 49.3881 54.9268C49.5532 54.3336 49.4767 53.6993 49.1755 53.1623C48.8743 52.6253 48.3727 52.2294 47.7805 52.0611L48.06 51.665Z" fill="#D3D3D3"/>
</svg>
