<svg width="79" height="64" viewBox="0 0 79 64" fill="none" xmlns="http://www.w3.org/2000/svg">
<path d="M30.6743 2.92388C31.5363 8.70199 32.5382 15.1326 29.952 20.6544C29.0961 22.8217 27.5179 24.6269 25.4844 25.7647C23.4508 26.9025 21.0866 27.303 18.7918 26.8985C7.77143 24.7084 5.67467 12.0804 5.53488 2.73759L0.875113 3.36656L13.7593 61.7535C14.4117 64.6891 18.9083 63.4544 18.256 60.5187L5.37177 2.1318C5.29144 1.51388 4.96891 0.953085 4.47517 0.572949C3.98143 0.192813 3.35692 0.0244809 2.73899 0.104811C2.12107 0.185141 1.56028 0.507673 1.18014 1.00141C0.800006 1.49515 0.631674 2.11967 0.712004 2.73759C0.898395 14.8996 4.99893 30.5331 19.584 31.698C22.4762 31.8536 25.3493 31.146 27.8384 29.6649C30.3275 28.1839 32.3203 25.9964 33.5633 23.3803C37.0581 16.6004 36.0562 8.93506 34.9612 1.68912C34.5185 -1.26984 30.0219 -0.0117741 30.4645 2.92388H30.6743Z" fill="#D3D3D3"/>
<path d="M73.1254 2.92388C74.0108 8.70199 75.0126 15.1326 72.4032 20.6544C71.5473 22.8217 69.9691 24.6269 67.9355 25.7647C65.902 26.9025 63.5379 27.303 61.2431 26.8985C50.246 24.7084 48.1491 12.0804 48.0093 2.73759L43.3496 3.36656L56.2571 61.7535C56.8862 64.6891 61.3828 63.4544 60.7537 60.5187L47.986 2.1318C47.9057 1.51388 47.5832 0.953085 47.0894 0.572949C46.5957 0.192813 45.9712 0.0244809 45.3532 0.104811C44.7353 0.185141 44.1747 0.507673 43.7945 1.00141C43.4144 1.49515 43.2459 2.11967 43.3263 2.73759C43.5126 14.8996 47.6133 30.5331 62.1751 31.698C65.0678 31.8568 67.9422 31.1504 70.4319 29.6691C72.9216 28.1877 74.9138 25.9984 76.1544 23.3803C79.6725 16.6004 78.6473 8.93506 77.5523 1.68912C77.1096 -1.26984 72.6129 -0.0117741 73.0556 2.92388H73.1254Z" fill="#D3D3D3"/>
</svg>
