<svg width="98" height="64" viewBox="0 0 98 64" fill="none" xmlns="http://www.w3.org/2000/svg">
<path d="M30.4155 2.92388C31.2775 8.70199 32.2795 15.1326 29.67 20.6544C28.8186 22.8199 27.2447 24.6243 25.2151 25.7623C23.1854 26.9002 20.8248 27.3017 18.5331 26.8985C7.51277 24.7084 5.41573 12.0804 5.27594 2.73759L0.616168 3.36656L13.5238 61.7535C14.1762 64.6891 18.673 63.4544 18.0206 60.5187L5.11297 2.1318C5.07319 1.82583 4.97358 1.53067 4.81974 1.26321C4.66591 0.995759 4.4607 0.761174 4.21623 0.572949C3.97175 0.384725 3.69275 0.246583 3.39485 0.166244C3.09696 0.0859036 2.78615 0.0650356 2.48019 0.104811C2.17422 0.144586 1.87906 0.244202 1.6116 0.398037C1.34415 0.551873 1.10956 0.756937 0.92134 1.00141C0.733116 1.24589 0.594974 1.52503 0.514634 1.82293C0.434294 2.12083 0.413426 2.43163 0.453202 2.73759C0.639592 14.8996 4.74011 30.5331 19.3019 31.698C22.1936 31.8505 25.0655 31.1415 27.554 29.6608C30.0425 28.1802 32.0356 25.9944 33.2812 23.3803C36.776 16.6004 35.7508 8.93506 34.6557 1.68912C34.2131 -1.26984 29.7166 -0.0117741 30.1826 2.92388H30.4155Z" fill="#D3D3D3"/>
<path d="M61.1486 10.7989C67.2246 14.7112 72.8506 19.2822 77.9239 24.4288C82.9332 29.4147 88.9676 35.0064 91.9032 41.4602C92.7384 43.0121 93.2215 44.7289 93.3181 46.4886C93.4148 48.2483 93.1226 50.0078 92.4624 51.6418C91.574 53.0651 90.3571 54.2543 88.9138 55.1097C87.4705 55.9652 85.8428 56.4618 84.1678 56.5578C80.8128 57.1403 76.4792 57.6528 73.3805 55.952C72.0232 55.1677 70.9347 53.9918 70.2571 52.5784C69.5794 51.1649 69.3445 49.5798 69.583 48.0305L64.9232 47.4014C64.6437 51.0127 64.2708 55.3696 60.4731 57.0005C56.6205 58.3255 52.478 58.5672 48.4975 57.6994C44.6764 57.0238 40.3429 55.5793 39.1779 51.502C38.3785 48.1316 38.2992 44.6303 38.945 41.2271C39.9442 34.557 42.6302 28.2526 46.7483 22.9113C50.8664 17.57 56.2802 13.3688 62.4768 10.7057C65.226 9.54077 62.8495 5.53329 60.1469 6.69824C52.1583 10.2131 45.4018 16.0344 40.7442 23.4153C36.0865 30.7961 33.7401 39.4001 34.0056 48.1236C33.9565 50.2188 34.3987 52.2963 35.2969 54.1898C36.195 56.0833 37.5243 57.7401 39.1779 59.0275C43.2417 61.5761 47.9656 62.8725 52.761 62.7552C57.0713 62.7552 62.5001 62.3126 65.7387 59.1206C68.9772 55.9287 69.3498 51.5252 69.676 47.4712C69.8624 44.885 65.5288 44.2561 65.0162 46.8422C63.5717 55.556 70.1655 61.7534 78.5763 61.7534C86.9872 61.7534 96.2601 59.2372 97.7046 49.9177C99.1491 40.5982 91.8799 32.7931 86.0552 26.3393C79.4212 18.862 71.8121 12.3106 63.4321 6.86135C60.8925 5.25373 58.5626 9.1913 61.1022 10.8688L61.1486 10.7989Z" fill="#D3D3D3"/>
</svg>
