<svg width="72" height="64" viewBox="0 0 72 64" fill="none" xmlns="http://www.w3.org/2000/svg">
<path d="M30.2196 2.92388C31.1049 8.70199 32.1067 15.1326 29.4972 20.6544C28.6413 22.8217 27.0632 24.6269 25.0297 25.7647C22.9961 26.9025 20.6318 27.303 18.3369 26.8985C7.33989 24.7084 5.24316 12.0804 5.10336 2.73759L0.443594 3.36656L13.3512 61.7535C13.9803 64.6891 18.4768 63.4544 17.8478 60.5187L4.94011 2.1318C4.85978 1.51388 4.53739 0.953085 4.04365 0.572949C3.54991 0.192813 2.92525 0.0244809 2.30733 0.104811C1.68941 0.185141 1.1289 0.507673 0.748766 1.00141C0.36863 1.49515 0.200013 2.11967 0.280343 2.73759C0.466734 14.8996 4.56753 30.5331 19.1293 31.698C22.022 31.8568 24.8963 31.1504 27.386 29.6691C29.8757 28.1877 31.8681 25.9984 33.1086 23.3803C36.6267 16.6004 35.6015 8.93506 34.5065 1.68912C34.0638 -1.26984 29.567 -0.0117741 30.0097 2.92388H30.2196Z" fill="#D3D3D3"/>
<path d="M63.3043 0.290717C56.1748 3.29627 47.2281 7.28047 44.6652 15.3885C44.0531 17.1674 44.0431 19.0982 44.6368 20.8834C45.2304 22.6686 46.3949 24.209 47.9504 25.2672C49.6792 26.3512 51.5768 27.1387 53.5652 27.597C54.3574 27.83 57.2931 28.2261 57.7125 28.9484C57.1999 28.0631 56.2214 29.624 55.6855 30.1365C49.4414 36.2175 45.1079 45.4206 48.16 54.1576C48.7359 56.0069 49.7443 57.6924 51.1017 59.0741C52.4591 60.4558 54.1263 61.494 55.9651 62.1026C60.6249 63.5472 65.2846 62.2424 69.5949 60.8212C72.414 59.9126 71.2027 55.3926 68.3369 56.3246C64.6557 57.5361 60.4386 58.9805 56.6875 57.3962C52.9364 55.8119 51.5384 50.4066 52.0277 46.5157C52.5466 42.565 54.2155 38.8541 56.8271 35.8448C58.5513 33.7945 62.4657 31.6277 62.5822 28.7153C62.9317 21.0966 46.5757 25.4069 49.2783 16.6232C51.3286 9.98306 59.9493 6.72127 65.7041 4.29819C68.4534 3.13325 66.0769 -0.897405 63.3743 0.267538L63.3043 0.290717Z" fill="#D3D3D3"/>
</svg>
