<svg width="77" height="64" viewBox="0 0 77 64" fill="none" xmlns="http://www.w3.org/2000/svg">
<path d="M30.1883 2.92388C31.0504 8.70199 32.0524 15.1326 29.4429 20.6544C28.5914 22.8199 27.0175 24.6243 24.9879 25.7623C22.9583 26.9002 20.5976 27.3017 18.306 26.8985C7.28562 24.7084 5.18858 12.0804 5.04878 2.73759L0.389015 3.36656L13.2733 61.7535C13.9257 64.6891 18.4225 63.4544 17.7701 60.5187L4.8625 2.1318C4.78217 1.51388 4.45978 0.953085 3.96604 0.572949C3.4723 0.192813 2.84764 0.0244809 2.22971 0.104811C1.61179 0.185141 1.051 0.507673 0.670865 1.00141C0.290729 1.49515 0.122397 2.11967 0.202727 2.73759C0.389117 14.8996 4.48964 30.5331 19.0514 31.698C21.9431 31.8505 24.8151 31.1415 27.3036 29.6608C29.7921 28.1802 31.7852 25.9944 33.0307 23.3803C36.5255 16.6004 35.5006 8.93506 34.4056 1.68912C33.9629 -1.26984 29.4661 -0.0117741 29.9321 2.92388H30.1883Z" fill="#D3D3D3"/>
<path d="M41.6511 7.7702C51.4171 9.26379 61.3244 9.60786 71.1705 8.79535L68.8406 6.46547C68.1184 24.5687 70.891 42.6719 72.1492 60.7052C72.3589 63.6642 77.0186 63.6875 76.809 60.7052C75.5508 42.6719 72.7782 24.5687 73.5004 6.46547C73.5004 5.84755 73.2551 5.25496 72.8181 4.81803C72.3812 4.38109 71.7885 4.13558 71.1705 4.13558C61.7407 4.94431 52.2488 4.65503 42.8857 3.27354C39.95 2.83086 38.6921 7.32752 41.6511 7.7702Z" fill="#D3D3D3"/>
</svg>
