<svg width="30" height="58" viewBox="0 0 30 58" fill="none" xmlns="http://www.w3.org/2000/svg">
<path d="M24.8905 3.06802C25.5757 7.64712 26.3522 12.5468 24.5936 16.8053C24.0136 18.6517 22.8022 20.2336 21.1727 21.2723C19.5433 22.3111 17.6005 22.7399 15.6865 22.4833C6.55108 20.9494 4.86102 10.3031 4.74683 2.70176L0.179097 3.31984C3.92464 20.6059 3.99315 38.3499 6.23134 55.8192C6.59676 58.704 11.1873 58.7498 10.7991 55.8192C8.51521 37.9378 8.5152 19.7818 4.58696 2.10645C4.50821 1.49922 4.19207 0.948143 3.70808 0.574588C3.22409 0.201033 2.61191 0.0356148 2.0062 0.114554C1.40048 0.193494 0.850834 0.510441 0.478206 0.995634C0.105578 1.48083 -0.0595161 2.09453 0.0192273 2.70176C0.179098 13.0963 3.81044 26.3986 16.3032 27.1541C18.7393 27.23 21.1445 26.5897 23.2222 25.3123C25.2999 24.0349 26.9595 22.1761 27.9966 19.9649C30.8971 14.241 30.052 7.83029 29.1385 1.64851C28.7046 -1.23632 24.2967 -0.022908 24.7306 2.88482L24.8905 3.06802Z" fill="#D3D3D3"/>
</svg>
