<svg width="34" height="34" viewBox="0 0 34 34" fill="none" xmlns="http://www.w3.org/2000/svg">
<circle cx="17" cy="17" r="16" stroke="#3E444E" stroke-width="0.85"/>
<circle cx="17" cy="17" r="16" stroke="#3E444E" stroke-width="0.85"/>
<path d="M20.1211 9.47046H11.7991C11.0363 9.47046 10.4121 10.0865 10.4121 10.8394V20.4223H11.7991V10.8394H20.1211V9.47046ZM22.2016 12.2084H14.5731C13.8103 12.2084 13.1861 12.8245 13.1861 13.5774V23.1603C13.1861 23.9132 13.8103 24.5293 14.5731 24.5293H22.2016C22.9644 24.5293 23.5886 23.9132 23.5886 23.1603V13.5774C23.5886 12.8245 22.9644 12.2084 22.2016 12.2084ZM22.2016 23.1603H14.5731V13.5774H22.2016V23.1603Z" stroke="#3E444E" stroke-width="0.85"/>
<path d="M22.2016 23.1603H14.5731V13.5774H22.2016M20.1211 9.47046H11.7991C11.0363 9.47046 10.4121 10.0865 10.4121 10.8394V20.4223H11.7991V10.8394H20.1211V9.47046ZM22.2016 12.2084H14.5731C13.8103 12.2084 13.1861 12.8245 13.1861 13.5774V23.1603C13.1861 23.9132 13.8103 24.5293 14.5731 24.5293H22.2016C22.9644 24.5293 23.5886 23.9132 23.5886 23.1603V13.5774C23.5886 12.8245 22.9644 12.2084 22.2016 12.2084Z" stroke="#3E444E" stroke-width="0.85"/>
</svg>
