<svg width="33" height="34" viewBox="0 0 33 34" fill="none" xmlns="http://www.w3.org/2000/svg">
<circle cx="16.5" cy="17" r="16" stroke="#3E444E" stroke-width="0.85"/>
<path d="M12.8871 14.9331H10.1338V23.7132H12.8871V14.9331Z" stroke="#3E444E" stroke-width="0.85"/>
<path d="M20.3355 14.7426C20.234 14.7299 20.1262 14.7236 20.0183 14.7173C18.4767 14.6538 17.6076 15.5673 17.3031 15.9607C17.2206 16.0685 17.1826 16.132 17.1826 16.132V14.9583H14.5498V23.7384H17.1826H17.3031C17.3031 22.8439 17.3031 21.9558 17.3031 21.0613C17.3031 20.5791 17.3031 20.097 17.3031 19.6148C17.3031 19.0185 17.2587 18.3841 17.5569 17.8385C17.8106 17.3817 18.2674 17.1533 18.7812 17.1533C20.3038 17.1533 20.3355 18.53 20.3355 18.6569C20.3355 18.6632 20.3355 18.6696 20.3355 18.6696V23.7765H23.0888V18.0479C23.0888 16.0876 22.0928 14.933 20.3355 14.7426Z" stroke="#3E444E" stroke-width="0.85"/>
<path d="M11.5098 13.7975C12.3927 13.7975 13.1085 13.0817 13.1085 12.1988C13.1085 11.3159 12.3927 10.6001 11.5098 10.6001C10.6269 10.6001 9.91113 11.3159 9.91113 12.1988C9.91113 13.0817 10.6269 13.7975 11.5098 13.7975Z" stroke="#3E444E" stroke-width="0.85"/>
</svg>
