<svg width="164" height="44" viewBox="0 0 164 44" fill="none" xmlns="http://www.w3.org/2000/svg">
<path d="M37.0538 0C76.3906 1.12843 91.9182 -0.433316 138.987 0.902742C144.483 1.06524 150.566 2.14844 154.23 6.22883C156.227 8.45861 157.226 11.3836 158.051 14.2543C159.461 19.1562 160.533 24.3018 159.718 29.3391C158.902 34.3764 155.907 39.3325 151.134 41.3005C148.248 42.4831 145.023 42.5012 141.9 42.5012H123.926C101.739 42.5012 81.3832 44.3065 59.1956 43.9545C45.7291 43.7559 32.226 43.4398 18.8878 41.3996C13.9867 40.6504 8.81081 39.5041 5.33884 36.0286C2.728 33.4106 1.42732 29.7905 0.69445 26.1976C-0.459818 20.5464 -0.331584 14.4617 2.27926 9.28C4.89011 4.09826 10.3224 0.12619 16.1762 0.252574L37.0538 0Z" fill="#303466"/>
<path d="M27.0283 23.656V25H26.1963C26.2283 25.3947 26.2176 25.7467 26.1643 26.056C26.1216 26.3653 26.0469 26.6373 25.9403 26.872C25.8443 27.1173 25.6789 27.336 25.4443 27.528C25.2096 27.72 24.9643 27.8853 24.7083 28.024C24.4629 28.1627 24.1269 28.296 23.7003 28.424C23.2843 28.5627 22.8736 28.68 22.4683 28.776C22.0629 28.872 21.5456 28.984 20.9163 29.112L20.6763 27.784C22.6176 27.3893 23.8389 27.048 24.3403 26.76C24.8523 26.472 25.0603 25.9013 24.9643 25.048V25H22.8683C22.1003 25 21.4763 24.776 20.9963 24.328C20.5269 23.88 20.2603 23.2613 20.1963 22.472C20.1323 21.608 20.3456 20.8347 20.8363 20.152C21.3376 19.4587 22.0043 19.096 22.8363 19.064C23.6576 19.0213 24.3456 19.304 24.9003 19.912C25.4656 20.52 25.8016 21.3307 25.9083 22.344L26.0523 23.656H27.0283ZM22.8683 23.656H24.8203L24.6923 22.488C24.6176 21.816 24.4203 21.2987 24.1003 20.936C23.7803 20.5627 23.3803 20.3867 22.9003 20.408C22.3989 20.4293 22.0149 20.6373 21.7483 21.032C21.4816 21.416 21.3696 21.864 21.4123 22.376C21.4763 23.2293 21.9616 23.656 22.8683 23.656ZM27.2891 18.152L27.1451 17.448L28.4731 17.128C28.2491 16.904 28.1051 16.6373 28.0411 16.328C27.9238 15.848 28.0091 15.416 28.2971 15.032C28.5958 14.6373 28.9851 14.4293 29.4651 14.408C29.5931 14.3973 29.7638 14.408 29.9771 14.44C30.2011 14.4613 30.3878 14.488 30.5371 14.52L30.7771 14.568L30.6491 15.256C30.5745 15.2453 30.4838 15.2293 30.3771 15.208C30.2811 15.1867 30.0998 15.1653 29.8331 15.144C29.5665 15.112 29.4011 15.112 29.3371 15.144C29.0918 15.1973 28.8998 15.3253 28.7611 15.528C28.6331 15.72 28.5958 15.9387 28.6491 16.184C28.7025 16.4187 28.8358 16.6 29.0491 16.728C29.2625 16.8453 29.4918 16.8773 29.7371 16.824L31.3531 16.44L31.4971 17.144L27.2891 18.152ZM30.3131 18.888L30.9531 21.272C31.2625 22.4453 31.1291 23.3627 30.5531 24.024C29.9771 24.6747 29.1718 25 28.1371 25H26.8731V23.656H28.1371C29.5878 23.656 30.1318 22.9733 29.7691 21.608L29.1291 19.224L30.3131 18.888ZM40.5466 23.656H41.3306V25H40.5466C39.832 25 39.256 24.7013 38.8186 24.104C38.3066 24.7013 37.4586 25 36.2746 25H35.6506C34.8613 25 34.232 24.8453 33.7626 24.536C33.304 24.216 33.048 23.8 32.9946 23.288L32.9146 22.232H34.0346C34.0346 22.552 34.056 22.8187 34.0986 23.032C34.184 23.448 34.6373 23.656 35.4586 23.656H36.4346C37.1493 23.656 37.624 23.528 37.8586 23.272C38.104 23.016 38.168 22.6693 38.0506 22.232V22.216L36.8506 17.512L38.0346 17.192L39.2346 21.912C39.32 22.2213 39.384 22.456 39.4266 22.616C39.48 22.776 39.5546 22.952 39.6506 23.144C39.7573 23.3253 39.88 23.4587 40.0186 23.544C40.168 23.6187 40.344 23.656 40.5466 23.656ZM41.17 25V23.656H43.506C44.9567 23.656 45.4953 22.9733 45.122 21.608L44.498 19.224L45.666 18.888L46.322 21.336C46.6313 22.4773 46.4927 23.3733 45.906 24.024C45.3193 24.6747 44.5193 25 43.506 25H41.17ZM41.442 28.296L40.45 27.304L41.442 26.312L42.434 27.304L41.442 28.296ZM44.226 28.296L43.234 27.304L44.226 26.312L45.218 27.304L44.226 28.296ZM54.2896 24.92C54.343 25.4853 54.3163 25.9653 54.2096 26.36C54.103 26.7653 53.9376 27.1013 53.7136 27.368C53.4896 27.6453 53.1323 27.8907 52.6416 28.104C52.1616 28.3173 51.6603 28.4933 51.1376 28.632C50.615 28.7707 49.911 28.9307 49.0256 29.112L48.7856 27.784C50.7056 27.4 51.9216 27.0587 52.4336 26.76C52.9456 26.472 53.159 25.9013 53.0736 25.048L53.0576 24.808C52.375 24.936 51.6763 25 50.9616 25C50.2256 25 49.6123 24.7707 49.1216 24.312C48.6416 23.8427 48.3696 23.2293 48.3056 22.472C48.2416 21.6187 48.455 20.8453 48.9456 20.152C49.447 19.4587 50.1136 19.096 50.9456 19.064C51.767 19.0213 52.455 19.304 53.0096 19.912C53.575 20.52 53.911 21.3253 54.0176 22.328L54.2896 24.92ZM50.9616 23.656C51.687 23.656 52.3376 23.592 52.9136 23.464L52.8176 22.504C52.743 21.832 52.5403 21.3093 52.2096 20.936C51.8896 20.5627 51.4843 20.3867 50.9936 20.408C50.503 20.4293 50.1243 20.6373 49.8576 21.032C49.591 21.4267 49.479 21.8747 49.5216 22.376C49.543 22.7707 49.6816 23.0853 49.9376 23.32C50.1936 23.544 50.535 23.656 50.9616 23.656ZM64.0508 19.288C64.5734 19.8 64.9468 20.28 65.1708 20.728C65.3948 21.176 65.5068 21.672 65.5068 22.216C65.5068 22.984 65.2348 23.6453 64.6908 24.2C64.1574 24.744 63.5174 25.016 62.7708 25.016C62.0134 25.016 61.3628 24.744 60.8188 24.2C60.2854 23.6453 60.0188 22.984 60.0188 22.216C60.0188 21.2987 60.4294 20.44 61.2508 19.64L61.9068 19L61.3628 18.472L62.2108 17.496L64.0508 19.288ZM61.6508 23.272C61.9601 23.56 62.3334 23.704 62.7708 23.704C63.2081 23.704 63.5761 23.56 63.8748 23.272C64.1734 22.984 64.3228 22.632 64.3228 22.216C64.3228 21.9067 64.2481 21.6133 64.0988 21.336C63.9601 21.0587 63.6721 20.7067 63.2348 20.28L62.7868 19.848L62.1468 20.472C61.5174 21.1013 61.2028 21.6827 61.2028 22.216C61.2028 22.6213 61.3521 22.9733 61.6508 23.272ZM74.9685 23.656H75.7525V25H74.9685C74.2538 25 73.6778 24.7013 73.2405 24.104C72.7285 24.7013 71.8805 25 70.6965 25H70.0725C69.2832 25 68.6538 24.8453 68.1845 24.536C67.7258 24.216 67.4698 23.8 67.4165 23.288L67.3365 22.232H68.4565C68.4565 22.552 68.4778 22.8187 68.5205 23.032C68.6058 23.448 69.0592 23.656 69.8805 23.656H70.8565C71.5712 23.656 72.0458 23.528 72.2805 23.272C72.5258 23.016 72.5898 22.6693 72.4725 22.232V22.216L71.2725 17.512L72.4565 17.192L73.6565 21.912C73.7418 22.2213 73.8058 22.456 73.8485 22.616C73.9018 22.776 73.9765 22.952 74.0725 23.144C74.1792 23.3253 74.3018 23.4587 74.4405 23.544C74.5898 23.6187 74.7658 23.656 74.9685 23.656ZM83.6079 20.376C84.2372 20.7173 84.6692 21.2293 84.9039 21.912C85.1492 22.5947 85.1225 23.256 84.8239 23.896C84.5252 24.5467 84.0452 24.9947 83.3839 25.24C82.7332 25.4853 82.0879 25.4587 81.4479 25.16L79.5439 24.296C78.6265 24.7653 77.5705 25 76.3759 25H75.5919V23.656H76.3759C76.8665 23.656 77.3625 23.6187 77.8639 23.544C77.2132 23.2133 76.7705 22.7013 76.5359 22.008C76.3119 21.3147 76.3652 20.6267 76.6959 19.944C76.9199 19.4533 77.2665 19.064 77.7359 18.776L77.3999 18.6L77.9599 17.4L83.6079 20.376ZM78.5199 22.392L79.5599 22.888C79.9652 22.6 80.2639 22.232 80.4559 21.784C80.6265 21.4213 80.6425 21.0587 80.5039 20.696C80.3759 20.3227 80.1359 20.0453 79.7839 19.864C79.4105 19.6827 79.0372 19.6507 78.6639 19.768C78.3012 19.8853 78.0292 20.12 77.8479 20.472C77.6559 20.8347 77.6239 21.2027 77.7519 21.576C77.8799 21.9493 78.1359 22.2213 78.5199 22.392ZM83.7519 23.368C83.9119 23.048 83.9279 22.712 83.7999 22.36C83.6719 22.008 83.4265 21.7413 83.0639 21.56L81.7839 20.888C81.8372 21.3893 81.7572 21.8747 81.5439 22.344C81.3732 22.7387 81.1119 23.1067 80.7599 23.448L81.9439 24.008C82.2745 24.168 82.6159 24.1893 82.9679 24.072C83.3305 23.944 83.5919 23.7093 83.7519 23.368ZM90.1154 25C89.102 25 88.3927 24.7707 87.9874 24.312C87.582 23.8427 87.3527 23.016 87.2994 21.832L87.0114 14.472L88.2274 14.408L88.5154 21.832C88.5367 22.6107 88.6434 23.112 88.8354 23.336C89.0274 23.5493 89.454 23.656 90.1154 23.656H90.2754V25H90.1154ZM97.3711 16.008L96.5231 16.872L95.6591 16.008L96.5231 15.16L97.3711 16.008ZM96.1231 17.96L95.1311 18.936L94.1391 17.96L95.1311 16.968L96.1231 17.96ZM97.8991 18.936L96.9071 17.96L97.8991 16.968L98.8911 17.96L97.8991 18.936ZM100.955 22.04C101.083 22.52 101.334 22.9093 101.707 23.208C102.08 23.5067 102.507 23.656 102.987 23.656V25C102.059 25 101.291 24.6373 100.683 23.912C100.214 24.6373 99.4778 25 98.4751 25C97.6538 25 96.9978 24.6747 96.5071 24.024C96.0378 24.6747 95.3445 25 94.4271 25C93.6165 25 92.9818 24.6747 92.5231 24.024C92.0431 24.6747 91.3605 25 90.4751 25H90.1231V23.656H90.4751C91.4458 23.656 91.9311 23.224 91.9311 22.36V20.376H93.0671V22.36C93.2165 23.192 93.6698 23.624 94.4271 23.656C95.3978 23.656 95.8831 23.224 95.8831 22.36V20.376H97.0191V22.36C97.0191 22.4027 97.0191 22.4613 97.0191 22.536C97.0298 22.6 97.0618 22.7013 97.1151 22.84C97.1685 22.9787 97.2378 23.1013 97.3231 23.208C97.4191 23.3147 97.5578 23.4107 97.7391 23.496C97.9205 23.5813 98.1391 23.624 98.3951 23.624C99.0031 23.624 99.4191 23.4907 99.6431 23.224C99.8778 22.9573 99.9418 22.6427 99.8351 22.28L99.3071 20.312L100.411 19.992L100.939 21.96C100.939 21.9707 100.944 21.9867 100.955 22.008V22.04ZM108.842 19.48C109.546 19.864 109.978 20.504 110.138 21.4C110.298 22.296 110.144 23.2027 109.674 24.12C109.461 24.536 109.136 24.824 108.698 24.984C108.261 25.144 107.808 25.112 107.338 24.888L105.29 23.832C104.693 24.6107 103.93 25 103.002 25H102.826V23.656H103.002C103.738 23.656 104.261 23.352 104.57 22.744L105.754 20.488C106.064 19.8907 106.512 19.496 107.098 19.304C107.696 19.112 108.277 19.1707 108.842 19.48ZM108.714 23.56C109.024 22.952 109.157 22.3707 109.114 21.816C109.072 21.2613 108.837 20.872 108.41 20.648C108.08 20.4667 107.749 20.4453 107.418 20.584C107.088 20.712 106.826 20.968 106.634 21.352L105.914 22.728L107.994 23.784C108.304 23.9333 108.544 23.8587 108.714 23.56Z" fill="#FEFEFE"/>
<path d="M132.471 19.4034V17.2544C132.44 14.7354 130.372 12.7194 127.854 12.7504C125.387 12.7814 123.392 14.7674 123.35 17.2344V19.4034" stroke="white" stroke-width="1.5" stroke-linecap="round" stroke-linejoin="round"/>
<path d="M127.91 24.1562V26.3772" stroke="white" stroke-width="1.5" stroke-linecap="round" stroke-linejoin="round"/>
<path fill-rule="evenodd" clip-rule="evenodd" d="M127.91 18.8242C122.165 18.8242 120.25 20.3922 120.25 25.0952C120.25 29.7992 122.165 31.3672 127.91 31.3672C133.655 31.3672 135.571 29.7992 135.571 25.0952C135.571 20.3922 133.655 18.8242 127.91 18.8242Z" stroke="white" stroke-width="1.5" stroke-linecap="round" stroke-linejoin="round"/>
</svg>
