<svg width="20" height="20" viewBox="0 0 20 20" fill="none" xmlns="http://www.w3.org/2000/svg">
<path fill-rule="evenodd" clip-rule="evenodd" d="M17.8663 11.6617C15.6488 11.6617 15.6488 8.23306 17.8663 8.23306C17.8663 4.26042 17.8663 2.84253 10.0372 2.84253C2.20801 2.84253 2.20801 4.26042 2.20801 8.23306C4.42551 8.23306 4.42551 11.6617 2.20801 11.6617C2.20801 15.6352 2.20801 17.0531 10.0372 17.0531C17.8663 17.0531 17.8663 15.6352 17.8663 11.6617Z" stroke="#626262" stroke-width="1.5" stroke-linecap="round" stroke-linejoin="round"/>
<path fill-rule="evenodd" clip-rule="evenodd" d="M10.0367 7.64258C9.46753 7.64258 9.41337 8.55047 9.07503 8.87179C8.73587 9.19231 7.68337 8.826 7.5367 9.39521C7.39087 9.96521 8.33837 10.1586 8.45587 10.6473C8.57253 11.136 7.9942 11.8228 8.48837 12.1655C8.98337 12.5065 9.51587 11.7336 10.0367 11.7336C10.5575 11.7336 11.09 12.5065 11.585 12.1655C12.08 11.8228 11.5009 11.136 11.6175 10.6473C11.735 10.1586 12.6825 9.96521 12.5367 9.39521C12.39 8.826 11.3375 9.19231 10.9984 8.87179C10.66 8.55047 10.6059 7.64258 10.0367 7.64258Z" stroke="#626262" stroke-width="1.5" stroke-linecap="round" stroke-linejoin="round"/>
</svg>
