<svg width="33" height="34" viewBox="0 0 33 34" fill="none" xmlns="http://www.w3.org/2000/svg">
<circle cx="16.5" cy="17" r="16" stroke="#3E444E" stroke-width="0.85"/>
<path d="M15.0742 18.8348L15.4983 18.8631L15.5138 18.6315L15.3273 18.4933L15.0742 18.8348ZM14.8681 21.9235L14.444 21.8952L14.4138 22.3485H14.8681V21.9235ZM15.4739 21.6205L15.7702 21.9253L15.7702 21.9252L15.4739 21.6205ZM16.9293 20.2053L17.1819 19.8635L16.8917 19.6491L16.633 19.9006L16.9293 20.2053ZM19.9572 22.4424L19.7047 22.7842L19.7273 22.8009L19.7519 22.8145L19.9572 22.4424ZM21.0554 21.925L20.6397 21.8368L20.6394 21.8383L21.0554 21.925ZM23.0431 12.5583L22.6307 12.4554L22.6289 12.4627L22.6273 12.4701L23.0431 12.5583ZM22.199 11.6144L22.3519 12.0109L22.3634 12.0065L22.3747 12.0014L22.199 11.6144ZM10.5273 16.1149L10.3744 15.7183L10.3691 15.7205L10.5273 16.1149ZM10.3821 17.077L10.5087 16.6713L10.5065 16.6706L10.3821 17.077ZM13.3773 18.0119L13.2507 18.4176L13.4381 18.476L13.6041 18.3713L13.3773 18.0119ZM20.3116 13.6371L20.0912 13.2737L20.0848 13.2777L20.3116 13.6371ZM20.6928 13.7642L20.4106 13.4463L20.408 13.4487L20.6928 13.7642ZM15.0741 18.8346L14.7893 18.5191L14.4038 18.867L14.821 19.1761L15.0741 18.8346ZM14.6502 18.8065L14.444 21.8952L15.2921 21.9518L15.4983 18.8631L14.6502 18.8065ZM14.8681 22.3485C15.0926 22.3485 15.2776 22.2949 15.439 22.1986C15.5832 22.1125 15.6969 21.9965 15.7702 21.9253L15.1777 21.3158C15.0819 21.4089 15.0441 21.4444 15.0034 21.4687C14.9798 21.4828 14.9465 21.4985 14.8681 21.4985V22.3485ZM15.7702 21.9252L17.2256 20.51L16.633 19.9006L15.1776 21.3158L15.7702 21.9252ZM16.6768 20.5472L19.7047 22.7842L20.2097 22.1005L17.1819 19.8635L16.6768 20.5472ZM19.7519 22.8145C20.08 22.9955 20.4719 23.1011 20.8379 22.936C21.2062 22.77 21.3901 22.4018 21.4715 22.0118L20.6394 21.8383C20.5819 22.1139 20.4953 22.1581 20.4885 22.1612C20.4794 22.1653 20.3916 22.1966 20.1625 22.0703L19.7519 22.8145ZM21.4711 22.0132L23.4588 12.6465L22.6273 12.4701L20.6397 21.8368L21.4711 22.0132ZM23.4555 12.6612C23.5787 12.1669 23.5103 11.6913 23.1927 11.3841C22.8692 11.0712 22.4097 11.052 22.0233 11.2274L22.3747 12.0014C22.5214 11.9347 22.5857 11.9795 22.6018 11.9951C22.6239 12.0165 22.711 12.1338 22.6307 12.4554L23.4555 12.6612ZM22.0461 11.2178L10.3744 15.7184L10.6802 16.5115L22.3519 12.0109L22.0461 11.2178ZM10.3691 15.7205C10.1422 15.8115 9.94584 15.9214 9.79612 16.0538C9.64914 16.1837 9.5138 16.3661 9.4905 16.5993C9.46561 16.8483 9.5777 17.0551 9.72817 17.1971C9.87138 17.3323 10.06 17.4228 10.2577 17.4834L10.5065 16.6706C10.3808 16.6321 10.3263 16.5928 10.3116 16.579C10.3061 16.5738 10.3148 16.5803 10.3239 16.6013C10.3339 16.6244 10.3393 16.6538 10.3363 16.6838C10.3306 16.7411 10.303 16.7402 10.359 16.6907C10.4123 16.6436 10.5141 16.5781 10.6855 16.5094L10.3691 15.7205ZM10.2555 17.4827L13.2507 18.4176L13.5039 17.6062L10.5087 16.6713L10.2555 17.4827ZM13.6041 18.3713L20.5383 13.9966L20.0848 13.2777L13.1506 17.6524L13.6041 18.3713ZM20.5319 14.0005C20.5757 13.974 20.6107 13.9626 20.6296 13.9587C20.6567 13.9531 20.6339 13.9648 20.5795 13.9462C20.5499 13.936 20.493 13.9102 20.4416 13.8491C20.3845 13.7813 20.3554 13.6943 20.3586 13.6084C20.3614 13.5314 20.3888 13.4807 20.4007 13.4617C20.4132 13.4418 20.4208 13.4374 20.4107 13.4463L20.9749 14.0821C21.0605 14.0061 21.1999 13.8568 21.208 13.6398C21.2126 13.5162 21.1717 13.3966 21.092 13.3018C21.018 13.2138 20.9275 13.1669 20.8553 13.1421C20.7156 13.0943 20.5718 13.1028 20.4582 13.1262C20.3364 13.1513 20.2111 13.201 20.0912 13.2737L20.5319 14.0005ZM20.408 13.4487L14.7893 18.5191L15.3588 19.1502L20.9775 14.0797L20.408 13.4487ZM14.821 19.1761L14.8212 19.1762L15.3273 18.4933L15.3271 18.4932L14.821 19.1761Z" fill="#3E444E"/>
</svg>
