<svg width="34" height="34" viewBox="0 0 34 34" fill="none" xmlns="http://www.w3.org/2000/svg">
<circle cx="17" cy="17" r="16" stroke="#3E444E" stroke-width="0.85"/>
<path d="M10.6006 21.2168C11.9937 21.2952 13.2119 20.9696 14.4 20.1072C13.1999 19.9021 12.3676 19.3533 11.9153 18.2195C12.2651 18.1713 12.5727 18.2617 12.9345 18.117C11.7525 17.5984 10.9866 16.8204 10.9564 15.4755C11.3303 15.5057 11.6138 15.7529 12.06 15.7167C10.9745 14.6553 10.6428 13.4974 11.3243 12.0922C12.4581 13.3949 13.7849 14.2814 15.4071 14.6975C15.4976 14.7217 15.582 14.7458 15.6725 14.7639C16.0886 14.8604 16.5831 15.0654 16.8364 15.0353C17.2707 14.981 16.8364 14.4804 16.945 13.8291C17.2888 11.8028 19.5202 10.88 21.1726 12.0681C21.6551 12.4179 22.035 12.4119 22.5114 12.2008C22.7587 12.0922 23.012 11.9837 23.3075 11.857C23.2412 12.436 22.7949 12.7556 22.4391 13.1838C22.8431 13.2743 23.1688 13.1597 23.5427 13.0391C23.4161 13.4552 23.1024 13.6904 22.819 13.9196C22.5235 14.1548 22.4089 14.402 22.3968 14.788C22.2159 20.6319 15.576 25.1489 11.0348 21.5546C10.5946 21.2048 11.0227 21.5546 10.6006 21.2168Z" stroke="#3E444E" stroke-width="0.85"/>
</svg>
