<svg width="34" height="34" viewBox="0 0 34 34" fill="none" xmlns="http://www.w3.org/2000/svg">
<circle cx="17" cy="17" r="16" stroke="#3E444E" stroke-width="0.85"/>
<path d="M23.1404 14.391C22.8056 13.6512 22.3249 12.987 21.7147 12.4146C21.1045 11.8475 20.3971 11.3993 19.6087 11.0861C18.7932 10.7621 17.9292 10.6001 17.0382 10.6001C16.1471 10.6001 15.2831 10.7621 14.4677 11.0861C13.6792 11.3993 12.9718 11.8421 12.3616 12.4146C11.7514 12.987 11.2708 13.6512 10.9359 14.391C10.5903 15.1579 10.4121 15.9787 10.4121 16.8211C10.4121 18.2954 10.9629 19.7102 11.9728 20.8335L11.4327 23.7766L14.3057 22.4967C15.1643 22.8639 16.0769 23.0475 17.0328 23.0475C17.9238 23.0475 18.7878 22.8855 19.6032 22.5615C20.3917 22.2483 21.0991 21.8055 21.7093 21.2331C22.3195 20.6607 22.8002 19.9964 23.135 19.2566C23.4806 18.4898 23.6588 17.6689 23.6588 16.8265C23.6642 15.9787 23.486 15.1633 23.1404 14.391Z" stroke="#3E444E" stroke-width="0.85"/>
<path d="M19.7283 18.0631C19.4475 17.9227 19.2423 17.8363 19.0965 17.7823C19.0047 17.7499 18.7887 17.6527 18.7131 17.7121C18.4755 17.9065 18.2217 18.4574 17.9517 18.56C17.282 18.4304 16.661 17.9713 16.175 17.5015C15.959 17.2963 15.5594 16.7131 15.473 16.5565C15.4568 16.3945 15.7484 16.1785 15.8132 16.0543C16.148 15.6763 15.8942 15.4387 15.851 15.282C15.7754 15.12 15.6458 14.8284 15.5324 14.5908C15.4352 14.4342 15.4136 14.202 15.2407 14.1156C14.5063 13.7376 14.0851 14.4936 13.9123 14.8878C12.8701 17.3989 19.1343 22.1781 20.4087 18.884C20.4735 18.5978 20.4465 18.4898 20.3493 18.3602C20.1549 18.2252 19.9281 18.1658 19.7283 18.0631Z" stroke="#3E444E" stroke-width="0.85"/>
</svg>
